<?xml version="1.0" standalone="no"?>
<!DOCTYPE svg PUBLIC "-//W3C//DTD SVG 1.1//EN" "http://www.w3.org/Graphics/SVG/1.1/DTD/svg11.dtd" >
<svg xmlns="http://www.w3.org/2000/svg" xmlns:xlink="http://www.w3.org/1999/xlink" version="1.1">
<metadata>
Created by FontForge 20170924 at Tue Nov  3 02:05:28 2020
 By www-data
</metadata>
<defs>
<font id="TAN-PEARL-Regular" horiz-adv-x="330" >
  <font-face 
    font-family="TAN - PEARL"
    font-weight="400"
    font-stretch="normal"
    units-per-em="1000"
    panose-1="0 0 0 0 0 0 0 0 0 0"
    ascent="800"
    descent="-200"
    x-height="708"
    cap-height="1000"
    bbox="-133 -436 1786 1209"
    underline-thickness="50"
    underline-position="-125"
    stemh="30"
    stemv="59"
    unicode-range="U+000D-FB02"
  />
<missing-glyph horiz-adv-x="250" 
 />
    <glyph glyph-name="fi" unicode="fi" horiz-adv-x="660" 
d="M30 0v10c86 0 92 71 92 268v511c0 120 123 232 261 232c127 0 174 -77 174 -160c0 -60 -34 -90 -71 -90s-67 30 -67 67s21 67 62 67c22 0 36 -13 36 -13c0 56 -55 115 -155 115c-142 0 -154 -146 -154 -213v-86h330v-430c0 -197 6 -268 92 -268v-10h-270v10
c86 0 92 71 92 268v152c0 186 -5 260 -79 267h-165v-419c0 -197 6 -268 92 -268v-10h-270z" />
    <glyph glyph-name="fl" unicode="fl" horiz-adv-x="663" 
d="M30 10c86 0 92 71 92 268v511c0 120 117 232 269 232c62 0 114 -12 150 -23v-498v-222c0 -197 6 -268 92 -268v-10h-270v10c86 0 92 71 92 268v444c0 197 -5 282 -103 282c-142 0 -144 -143 -144 -210v-143c10 34 41 64 77 64c39 0 52 -22 101 -22c13 0 31 5 34 20h2
c7 -43 -23 -75 -56 -73c-58 3 -63 31 -102 31c-27 0 -56 -19 -56 -63v-330c0 -197 6 -268 92 -268v-10h-270v10z" />
    <glyph glyph-name=".notdef" horiz-adv-x="250" 
 />
    <glyph glyph-name="uni0000" horiz-adv-x="0" 
 />
    <glyph glyph-name="uni0000" horiz-adv-x="0" 
 />
    <glyph glyph-name="uni000D" unicode="&#xd;" horiz-adv-x="250" 
 />
    <glyph glyph-name="space" unicode=" " horiz-adv-x="350" 
 />
    <glyph glyph-name="A" unicode="A" horiz-adv-x="876" 
d="M30 175c0 246 400 340 400 444c0 19 -11 27 -24 27c-48 0 -78 -105 -135 -105c-28 0 -33 27 -23 53c61 161 98 260 161 426h10l320 -845c44 -110 76 -165 137 -165v-10h-328v10c141 0 136 81 98 182l-124 327c4 -32 6 -72 6 -120c0 -243 -117 -419 -316 -419
c-116 0 -182 91 -182 195zM115 194c0 -94 59 -166 157 -166c167 0 246 205 246 369c0 74 -3 129 -21 188l-121 319l-115 -306c-13 -35 -5 -47 11 -47c46 0 83 105 136 105c19 0 33 -13 33 -39c0 -134 -326 -176 -326 -423z" />
    <glyph glyph-name="V" unicode="V" horiz-adv-x="924" 
d="M0 990v10h328v-10c-141 0 -136 -81 -98 -182l270 -712c83 236 177 472 254 709c26 80 28 185 -113 185v10h283v-10c-61 0 -95 -54 -137 -165l-320 -845h-10l-320 845c-44 110 -76 165 -137 165z" />
    <glyph glyph-name="W" unicode="W" horiz-adv-x="1340" 
d="M0 990v10h328v-10c-141 0 -136 -81 -98 -182l270 -712c52 147 108 294 162 442l-109 287c-44 110 -76 165 -137 165v10h508v-10c-61 0 -95 -54 -137 -165l-74 -195l203 -534c83 236 177 472 254 709c26 80 28 185 -113 185v10h283v-10c-61 0 -95 -54 -137 -165l-320 -845
h-10l-203 536l-203 -536h-10l-320 845c-44 110 -76 165 -137 165zM690 989c-96 0 -77 -95 -44 -181l58 -152c17 49 33 99 50 149c23 69 52 184 -64 184z" />
    <glyph glyph-name="B" unicode="B" horiz-adv-x="839" 
d="M30 1000h116c88 0 212 20 300 20c141 0 270 -44 270 -184c0 -261 -452 -241 -452 -352c0 -23 17 -26 29 -26c42 0 112 61 208 61c153 0 278 -98 278 -250c0 -173 -119 -289 -332 -289c-116 0 -187 20 -297 20h-120v10c86 0 92 71 92 268v444c0 197 -6 268 -92 268v10z
M207 978v-952c61 -22 109 -32 183 -32c186 0 303 102 303 268c0 120 -68 246 -193 246c-84 0 -152 -60 -211 -60c-18 0 -35 10 -35 34c0 131 376 150 376 352c0 124 -120 172 -242 172c-65 0 -123 -10 -181 -28z" />
    <glyph glyph-name="R" unicode="R" horiz-adv-x="872" 
d="M30 0v10c86 0 92 71 92 268v444c0 197 -6 268 -92 268v10h120c110 0 181 20 297 20c213 0 332 -118 332 -281c0 -137 -112 -261 -286 -261c-94 0 -158 64 -200 64c-12 0 -29 -3 -29 -26c0 -65 211 -79 292 -205c79 -123 172 -301 286 -301v-10h-153
c-46 0 -74 63 -232 300c-97 146 -203 150 -203 218c0 24 17 34 35 34c59 0 105 -57 198 -57c125 0 206 123 206 243c0 166 -117 268 -303 268c-74 0 -122 -10 -183 -32v-696c0 -197 6 -268 92 -268v-10h-269z" />
    <glyph glyph-name="P" unicode="P" horiz-adv-x="839" 
d="M30 990v10h120c110 0 181 20 297 20c213 0 332 -134 332 -312c0 -163 -120 -315 -342 -315c-88 0 -187 28 -230 47v-162c0 -197 6 -268 92 -268v-10h-269v10c86 0 92 71 92 268v444c0 197 -6 268 -92 268zM207 450c51 -21 125 -37 212 -37c199 0 274 174 274 294
c0 181 -117 299 -303 299c-74 0 -122 -10 -183 -32v-524z" />
    <glyph glyph-name="K" unicode="K" horiz-adv-x="845" 
d="M647 905c0 37 -13 79 -35 95h99c18 -17 30 -56 30 -93c0 -309 -484 -342 -484 -407c0 -57 180 -29 276 -173c94 -140 188 -317 302 -317v-10h-153c-46 0 -74 63 -232 300c-111 166 -203 143 -203 200c0 90 400 125 400 405zM30 0v10c86 0 92 71 92 268v444
c0 197 -6 268 -92 268v10h269v-10c-86 0 -92 -71 -92 -268v-444c0 -197 6 -268 92 -268v-10h-269z" />
    <glyph glyph-name="D" unicode="D" horiz-adv-x="903" 
d="M30 0v10c86 0 92 71 92 268v444c0 197 -6 268 -92 268v10h80c105 0 191 20 279 20c308 0 454 -246 454 -520s-146 -520 -454 -520c-88 0 -174 20 -279 20h-80zM207 978v-956c58 -18 116 -28 181 -28c247 0 369 233 369 506s-122 506 -369 506c-65 0 -123 -10 -181 -28z
" />
    <glyph glyph-name="T" unicode="T" horiz-adv-x="759" 
d="M30 1000h699v-135h-10c0 3 1 0 1 4c0 67 -126 121 -298 121v-712c0 -197 -2 -268 84 -268v-10h-261v10c86 0 92 71 92 268v712c-172 0 -298 -54 -298 -121c0 -4 1 -1 1 -4h-10v135z" />
    <glyph glyph-name="E" unicode="E" horiz-adv-x="776" 
d="M30 990v10h716v-135h-10v4c0 67 -132 121 -362 121h-166v-430c30 29 70 46 116 46c99 0 154 -62 242 -62c38 0 74 22 74 57h10c0 -59 -49 -110 -128 -110c-122 0 -173 86 -244 88c-29 1 -54 -14 -70 -35v-534h128c95 0 400 11 400 155h10v-165h-716v10c86 0 92 71 92 268
v444c0 197 -6 268 -92 268z" />
    <glyph glyph-name="F" unicode="F" horiz-adv-x="775" 
d="M30 10c86 0 92 71 92 268v444c0 197 -6 268 -92 268v10h715v-135h-10v4c0 67 -132 121 -362 121h-165v-443c12 27 56 59 116 59c99 0 154 -62 242 -62c38 0 74 22 74 57h10c0 -59 -49 -110 -128 -110c-122 0 -173 88 -244 88c-52 0 -70 -41 -70 -88v-213
c0 -197 6 -268 92 -268v-10h-270v10z" />
    <glyph glyph-name="L" unicode="L" horiz-adv-x="775" 
d="M30 1000h270v-10c-86 0 -92 -71 -92 -268v-712h127c95 0 400 11 400 155h10v-165h-715v10c86 0 92 71 92 268v444c0 197 -6 268 -92 268v10z" />
    <glyph glyph-name="H" unicode="H" horiz-adv-x="916" 
d="M300 0h-270v10c86 0 92 71 92 268v444c0 197 -6 268 -92 268v10h270v-10c-86 0 -92 -71 -92 -268v-175c12 27 56 59 116 59c99 0 182 -62 270 -62c38 0 74 22 74 57h10c0 -59 -49 -110 -128 -110c-122 0 -201 88 -272 88c-52 0 -70 -41 -70 -88v-213
c0 -197 6 -268 92 -268v-10zM616 990v10h270v-10c-86 0 -92 -71 -92 -268v-444c0 -197 6 -268 92 -268v-10h-270v10c86 0 92 71 92 268v444c0 197 -6 268 -92 268z" />
    <glyph glyph-name="J" unicode="J" horiz-adv-x="317" 
d="M-50 -206l2 10s10 -1 16 -1c98 0 151 112 151 264v655c0 197 -6 268 -92 268v10h270v-10c-86 0 -92 -71 -92 -268v-653c0 -143 -91 -279 -220 -279c-16 0 -23 2 -35 4z" />
    <glyph glyph-name="U" unicode="U" horiz-adv-x="916" 
d="M30 990v10h270v-10c-86 0 -92 -71 -92 -268v-444c0 -194 110 -288 252 -288s248 95 248 288v444c0 197 -6 268 -92 268v10h270v-10c-86 0 -92 -71 -92 -268v-444c0 -200 -150 -298 -334 -298s-338 96 -338 298v444c0 197 -6 268 -92 268z" />
    <glyph glyph-name="Y" unicode="Y" horiz-adv-x="818" 
d="M0 990v10h278v-10h-22c-28 0 -54 -13 -54 -53c0 -68 185 -372 247 -493c69 131 237 434 237 500c0 36 -28 46 -56 46h-26v10h214v-10c-76 0 -100 -75 -191 -249c-62 -116 -141 -252 -175 -318v-145c0 -197 6 -268 92 -268v-10h-270v10c86 0 92 71 92 268v145
c-34 66 -113 202 -175 318c-91 174 -115 249 -191 249z" />
    <glyph glyph-name="Z" unicode="Z" horiz-adv-x="789" 
d="M732 0h-702l626 990h-285c-172 0 -296 -54 -296 -121v-4h-10v135h694l-626 -990h143c95 0 446 11 446 155h10v-165z" />
    <glyph glyph-name="X" unicode="X" horiz-adv-x="859" 
d="M30 0v9c56 0 112 81 203 233c56 93 119 202 150 252l-3 6c-26 48 -85 148 -143 247c-95 162 -150 243 -206 243v10h295v-10h-22c-28 0 -54 -13 -54 -53c0 -55 138 -275 220 -420c148 255 193 355 195 418c1 38 -28 56 -56 56h-27v9h247v-9c-56 0 -112 -81 -203 -233
c-56 -93 -119 -202 -150 -252l3 -6c26 -48 85 -148 143 -247c95 -162 150 -243 206 -243v-10h-295v10h22c28 0 54 13 54 53c0 55 -138 275 -220 421c-148 -256 -193 -355 -195 -419c-1 -38 28 -56 56 -56h27v-9h-247z" />
    <glyph glyph-name="C" unicode="C" horiz-adv-x="832" 
d="M505 -20c-249 0 -445 220 -445 520s196 520 445 520c229 0 307 -119 307 -210c0 -208 -283 -282 -283 -401c0 -31 10 -48 30 -65c-54 -12 -87 47 -87 93c0 176 281 235 281 381c0 119 -81 190 -248 190c-207 0 -355 -216 -355 -508s162 -508 355 -508
c222 0 285 168 285 168h11v-134c-80 -26 -168 -46 -296 -46z" />
    <glyph glyph-name="G" unicode="G" horiz-adv-x="921" 
d="M60 500c0 300 196 520 445 520c123 0 208 -20 285 -46v-134h-10s-61 168 -275 168c-207 0 -355 -216 -355 -508s162 -508 355 -508c176 0 252 153 252 189v141c0 195 -189 166 -323 166c-73 0 -130 9 -130 68c0 85 92 126 152 126c149 0 231 -91 360 -91
c70 0 73 30 73 30c16 -63 -39 -98 -101 -98c-120 0 -255 96 -354 96c-62 0 -119 -21 -119 -68c0 -67 122 -51 248 -51c137 0 280 -18 280 -178v-144c-76 -126 -195 -198 -338 -198c-249 0 -445 220 -445 520z" />
    <glyph glyph-name="O" unicode="O" horiz-adv-x="1010" 
d="M505 -20c-249 0 -445 220 -445 520s196 520 445 520s445 -220 445 -520s-196 -520 -445 -520zM505 1008c-207 0 -355 -216 -355 -508s162 -508 355 -508s355 216 355 508s-148 508 -355 508z" />
    <glyph glyph-name="Q" unicode="Q" horiz-adv-x="1014" 
d="M60 499c0 300 196 520 445 520s445 -220 445 -520c0 -308 -187 -434 -345 -519c-52 -28 -107 -48 -144 -84c20 11 40 19 66 19c137 0 246 -114 491 -114c57 0 104 37 119 85c6 -4 9 -14 9 -21c0 -88 -101 -148 -198 -148c-172 0 -273 186 -430 186c-26 0 -52 -10 -74 -29
l-7 8s25 37 76 68c252 154 349 288 349 547c0 292 -148 508 -355 508s-355 -216 -355 -508c0 -197 66 -454 274 -454c71 0 165 63 165 175c0 249 -258 350 -258 565c0 82 51 139 75 139l3 -6c-24 -10 -30 -42 -30 -65c0 -187 266 -339 266 -560c0 -128 -93 -258 -223 -258
c-235 0 -364 211 -364 466z" />
    <glyph glyph-name="S" unicode="S" horiz-adv-x="822" 
d="M60 760c0 139 127 260 358 260c123 0 208 -20 285 -46v-134h-10s-61 168 -275 168c-186 0 -288 -113 -288 -224c0 -274 632 -177 632 -527c0 -139 -144 -277 -375 -277c-132 0 -249 67 -323 122v134h10s131 -238 369 -238c146 0 261 107 261 218c0 301 -644 216 -644 544
z" />
    <glyph glyph-name="N" unicode="N" horiz-adv-x="897" 
d="M30 1000h175l560 -854v436c0 291 -82 408 -168 408v10h270v-10c-86 0 -92 -71 -92 -268v-742h-10l-633 964v-526c0 -291 82 -408 168 -408v-10h-270v10c86 0 92 71 92 268v444c0 197 -6 268 -92 268v10z" />
    <glyph glyph-name="M" unicode="M" horiz-adv-x="1081" 
d="M30 1000h161l384 -806l300 806h176v-10c-86 0 -92 -71 -92 -268v-444c0 -197 6 -268 92 -268v-10h-270v10c86 0 92 71 92 268v689c-108 -289 -209 -564 -332 -894h-9c-157 336 -247 530 -399 856l-1 -429v-127c0 -291 82 -363 168 -363v-10h-270v10c86 0 92 71 92 268
v444c0 197 -6 268 -92 268v10z" />
    <glyph glyph-name="A.001" horiz-adv-x="876" 
d="M40 447c-111 0 -173 83 -173 141c0 41 17 57 17 57h9c0 -49 60 -139 227 -139c38 0 74 12 106 29h-1c61 161 121 319 184 485h10l320 -845c44 -110 76 -165 137 -165v-10h-328v10c141 0 136 81 98 182l-124 327c4 -32 6 -72 6 -120c0 -243 -117 -419 -316 -419
c-116 0 -182 91 -182 195c0 246 400 340 400 444c0 19 -11 27 -24 27c-48 0 -175 -199 -366 -199zM115 194c0 -94 59 -166 157 -166c167 0 246 205 246 369c0 74 -3 129 -21 188l-121 319l-137 -361c76 44 133 113 169 113c19 0 33 -13 33 -39c0 -134 -326 -176 -326 -423z
" />
    <glyph glyph-name="C.001" horiz-adv-x="832" 
d="M489 -20c-240 0 -429 220 -429 520s189 520 429 520c123 0 208 -20 285 -46v-134h-10s-61 168 -275 168c-186 0 -342 -216 -342 -508s156 -508 342 -508c214 0 275 168 275 168h10v-134c-77 -26 -162 -46 -285 -46z" />
    <glyph glyph-name="I" unicode="I" 
d="M30 990v10h270v-10c-86 0 -92 -71 -92 -268v-444c0 -197 6 -268 92 -268v-10h-270v10c86 0 92 71 92 268v444c0 197 -6 268 -92 268z" />
    <glyph glyph-name="question" unicode="?" horiz-adv-x="775" 
d="M60 769c0 138 123 251 313 251c193 0 342 -124 342 -295c0 -324 -443 -236 -443 -470c0 -31 9 -45 33 -68c-4 -10 -28 -23 -45 -23c-43 0 -71 48 -71 95c0 45 25 89 71 128c99 85 265 118 265 273c0 31 -21 57 -54 57c-77 0 -112 -135 -243 -135c-107 0 -168 91 -168 187
zM111 824c0 -100 63 -187 161 -187c100 0 112 94 200 94c41 0 64 -31 64 -68c0 -121 -101 -184 -190 -229c141 50 303 31 303 247c0 157 -120 323 -300 323c-147 0 -238 -74 -238 -180zM261 114c37 0 67 -30 67 -67s-30 -67 -67 -67s-67 30 -67 67s30 67 67 67z" />
    <glyph glyph-name="exclam" unicode="!" horiz-adv-x="254" 
d="M96 632c-20 203 -42 388 31 388s50 -185 31 -388c-14 -148 -25 -313 -25 -426h-12c0 115 -11 278 -25 426zM127 -20c-37 0 -67 30 -67 67s30 67 67 67s67 -30 67 -67s-30 -67 -67 -67z" />
    <glyph glyph-name="k" unicode="k" horiz-adv-x="700" 
d="M300 0h-270v10c86 0 92 71 92 268v444c0 197 -6 268 -92 268v10h178v-722c0 -197 6 -268 92 -268v-10zM525 652c0 26 -13 46 -47 46v10h120c14 0 17 -13 17 -26c0 -198 -371 -171 -371 -242c0 -59 173 -31 272 -190c41 -66 40 -121 68 -188c14 -33 37 -52 86 -52v-10
h-115c-47 0 -60 61 -73 107c-16 58 -28 107 -47 141c-82 148 -201 131 -201 192c0 92 291 60 291 212z" />
    <glyph glyph-name="a" unicode="a" horiz-adv-x="746" 
d="M60 202c0 352 506 237 506 402c0 81 -94 114 -175 114c-95 0 -187 -33 -187 -116c0 -38 31 -55 40 -46c10 -30 -23 -58 -56 -58c-43 0 -72 37 -72 80c0 99 118 150 275 150c113 0 260 -47 260 -126c0 -161 -503 -15 -503 -406c0 -104 66 -183 164 -183
c108 0 245 111 245 402c0 22 -2 45 -17 49c0 6 11 14 27 14c73 0 82 -76 82 -156c0 -89 1 -104 1 -210c0 -84 49 -102 76 -102v-10h-71c-53 0 -95 49 -95 124v171c-36 -172 -102 -315 -277 -315c-129 0 -223 93 -223 222z" />
    <glyph glyph-name="r" unicode="r" horiz-adv-x="676" 
d="M300 0h-270v10c86 0 92 71 92 268v152c0 197 -6 268 -92 268v10h116c115 0 244 20 355 20c89 0 155 -45 155 -122c0 -53 -29 -97 -86 -97c-28 0 -55 18 -55 46c28 1 54 34 54 75c0 46 -35 84 -107 84c-62 0 -197 -11 -254 -29v-407c0 -197 6 -268 92 -268v-10z" />
    <glyph glyph-name="l" unicode="l" 
d="M30 0v10c86 0 92 71 92 268v444c0 197 -6 268 -92 268v10h178v-722c0 -197 6 -268 92 -268v-10h-270z" />
    <glyph glyph-name="i" unicode="i" horiz-adv-x="320" 
d="M300 0h-270v10c86 0 92 71 92 268v152c0 197 -6 268 -92 268v10h178v-430c0 -197 6 -268 92 -268v-10zM93 839c0 37 30 67 67 67s67 -30 67 -67s-30 -67 -67 -67s-67 30 -67 67z" />
    <glyph glyph-name="n" unicode="n" horiz-adv-x="787" 
d="M30 10c86 0 92 71 92 268v152c0 197 -6 268 -92 268v10h114c82 0 207 20 264 20c89 0 267 -13 267 -223v-227c0 -197 6 -268 92 -268v-10h-270v10c86 0 92 71 92 268c0 30 -1 206 -1 206c0 224 -157 230 -225 230c-51 0 -107 -12 -155 -29v-407c0 -197 6 -268 92 -268
v-10h-270v10z" />
    <glyph glyph-name="u" unicode="u" horiz-adv-x="777" 
d="M20 698v10h178c0 -30 1 -484 1 -484c0 -224 157 -230 225 -230c51 0 107 12 155 29v407c0 197 -6 268 -92 268v10h178v-430c0 -197 6 -268 92 -268v-10h-114c-82 0 -207 -20 -264 -20c-89 0 -267 13 -267 223v227c0 197 -6 268 -92 268z" />
    <glyph glyph-name="t" unicode="t" horiz-adv-x="318" 
d="M20 708c167 0 168 174 168 242h10v-242h76v-10h-76v-480c0 -156 -6 -210 32 -210c31 0 58 47 58 47l10 -5c-26 -43 -59 -70 -110 -70c-57 0 -76 46 -76 112v606h-92v10z" />
    <glyph glyph-name="m" unicode="m" horiz-adv-x="1253" 
d="M300 0h-270v10c86 0 92 71 92 268v152c0 197 -6 268 -92 268v10h114c82 0 207 20 264 20c48 0 122 -4 180 -41c32 0 130 41 286 41c89 0 267 -13 267 -223v-227c0 -197 6 -268 92 -268v-10h-270v10c86 0 92 71 92 268c0 30 -1 206 -1 206c0 224 -157 231 -225 231
c-73 0 -146 -16 -209 -53c33 -33 55 -83 55 -157v-227c0 -197 6 -268 92 -268v-10h-270v10c86 0 92 71 92 268c0 30 -1 206 -1 206c0 224 -157 230 -225 230c-51 0 -107 -12 -155 -29v-407c0 -197 6 -268 92 -268v-10z" />
    <glyph glyph-name="h" unicode="h" horiz-adv-x="787" 
d="M30 10c86 0 92 71 92 268v444c0 197 -6 268 -92 268v10h178v-289c36 0 156 17 200 17c89 0 267 -13 267 -223v-227c0 -197 6 -268 92 -268v-10h-270v10c86 0 92 71 92 268c0 30 -1 206 -1 206c0 224 -157 230 -225 230c-51 0 -107 -12 -155 -29v-407
c0 -197 6 -268 92 -268v-10h-270v10z" />
    <glyph glyph-name="f" unicode="f" horiz-adv-x="541" 
d="M30 0v10c86 0 92 71 92 268v511c0 120 117 232 269 232c62 0 114 -12 150 -23v-112h-10c-11 67 -64 118 -179 118c-142 0 -144 -143 -144 -210v-143c13 34 45 64 90 64c54 0 76 -22 146 -22c16 0 32 5 36 20h3c9 -43 -25 -75 -68 -73c-50 2 -94 31 -148 31
c-35 0 -59 -19 -59 -63v-330c0 -197 6 -268 92 -268v-10h-270z" />
    <glyph glyph-name="g" unicode="g" horiz-adv-x="729" 
d="M336 -435c-183 0 -316 76 -316 224c0 88 77 147 155 147c92 0 129 -44 222 -44c24 0 70 13 60 50l4 1c38 -48 2 -134 -84 -134c-74 0 -113 44 -204 44c-45 0 -94 -34 -94 -83c0 -117 108 -195 259 -195c154 0 296 124 296 295c0 104 -89 180 -223 180
c-82 0 -102 -18 -179 -18c-40 0 -84 18 -84 58c0 146 424 19 424 365c0 135 -80 261 -216 261s-217 -129 -217 -264c0 -136 94 -227 207 -227v-9c-17 -3 -34 -4 -50 -4c-146 0 -243 112 -243 240c0 142 113 276 303 276h302v-32l-216 22c137 -34 216 -147 216 -266
c0 -365 -499 -236 -499 -360c0 -33 39 -50 73 -50c95 0 160 48 255 48c118 0 222 -92 222 -212c0 -174 -141 -313 -373 -313z" />
    <glyph glyph-name="j" unicode="j" horiz-adv-x="287" 
d="M-50 -414l7 10c14 -11 36 -18 58 -18c91 0 102 117 102 189v663c0 197 -6 268 -92 268v10h178v-926c0 -102 -60 -218 -177 -218c-35 0 -58 9 -76 22zM160 906c37 0 67 -30 67 -67s-30 -67 -67 -67s-67 30 -67 67s30 67 67 67z" />
    <glyph glyph-name="c" unicode="c" horiz-adv-x="733" 
d="M403 -20c-215 0 -343 168 -343 374s128 374 343 374c169 0 277 -70 277 -70v-118h-4c-55 110 -170 176 -275 176c-203 0 -257 -218 -255 -359c2 -186 109 -343 293 -343c79 0 211 43 260 172l14 -6c-52 -119 -161 -200 -310 -200z" />
    <glyph glyph-name="e" unicode="e" horiz-adv-x="773" 
d="M403 -20c-215 0 -343 168 -343 374s128 374 343 374s307 -127 306 -228c-1 -113 -66 -181 -181 -181c-161 0 -210 89 -308 89c-24 0 -46 -17 -49 -25l-4 1c0 41 36 80 105 80c105 0 183 -133 263 -133c148 0 152 385 -134 385c-203 0 -257 -218 -255 -359
c2 -186 109 -343 293 -343c79 0 211 43 260 172l14 -6c-52 -119 -161 -200 -310 -200z" />
    <glyph glyph-name="e.001" horiz-adv-x="773" 
d="M60 354c0 206 128 374 343 374s290 -148 290 -243c0 -86 -89 -81 -89 -81h-457c-1 -16 -2 -33 -2 -50c0 -220 103 -362 258 -362c118 0 247 65 296 194l14 -6c-52 -119 -161 -200 -310 -200c-215 0 -343 168 -343 374zM148 422h384s80 -6 80 60c0 103 -54 234 -209 234
c-138 0 -235 -113 -255 -294z" />
    <glyph glyph-name="o" unicode="o" horiz-adv-x="808" 
d="M403 -20c-215 0 -343 168 -343 374s128 374 343 374s345 -168 345 -374s-130 -374 -345 -374zM145 354c0 -220 103 -362 258 -362s260 142 260 362s-105 362 -260 362s-258 -142 -258 -362z" />
    <glyph glyph-name="s" unicode="s" horiz-adv-x="670" 
d="M60 41v122h10c0 -47 85 -176 242 -173c109 2 217 66 217 181c0 211 -455 102 -455 383c0 94 83 174 246 174c169 0 248 -70 248 -70v-118h-4c-39 115 -127 178 -234 178c-126 0 -198 -70 -198 -145c0 -207 478 -112 478 -389c0 -147 -143 -204 -298 -204
c-106 0 -188 20 -252 61z" />
    <glyph glyph-name="v" unicode="v" horiz-adv-x="732" 
d="M0 698v10h123c45 0 72 -41 84 -80c53 -172 86 -287 148 -481c18 -56 44 -83 73 -87c51 160 94 294 131 421c23 80 44 217 -68 217h-22v10h263v-10h-17c-69 0 -118 -134 -137 -195c-49 -157 -98 -319 -163 -523c0 0 -90 -19 -150 167c-53 165 -84 273 -126 408
c-19 61 -43 143 -115 143h-24z" />
    <glyph glyph-name="w" unicode="w" horiz-adv-x="1123" 
d="M0 698v10h123c45 0 72 -41 84 -80c53 -172 86 -287 148 -481c18 -56 44 -83 73 -87c50 155 92 286 128 410c-23 72 -49 228 -141 228h-24v10h123c45 0 72 -41 84 -80c53 -172 86 -287 148 -481c18 -56 44 -83 73 -87c51 160 94 294 131 421c23 80 44 217 -68 217h-22v10
h263v-10h-17c-69 0 -118 -134 -137 -195c-48 -157 -98 -319 -163 -523c0 0 -91 -19 -150 167c-38 119 -68 212 -95 304c-43 -140 -89 -291 -146 -471c0 0 -90 -19 -150 167c-53 165 -84 273 -126 408c-19 61 -43 143 -115 143h-24z" />
    <glyph glyph-name="y" unicode="y" horiz-adv-x="732" 
d="M0 698v10h123c45 0 72 -41 84 -80c53 -172 86 -287 148 -481c18 -56 44 -83 73 -87c51 160 94 294 131 421c23 80 44 217 -68 217h-22v10h263v-10h-17c-69 0 -118 -134 -137 -195c-49 -157 -98 -319 -163 -523c-27 -77 -140 -395 -230 -395h-135v10
c122 0 303 222 353 385c-26 1 -91 22 -138 167c-53 165 -84 273 -126 408c-19 61 -43 143 -115 143h-24z" />
    <glyph glyph-name="q" unicode="q" horiz-adv-x="832" 
d="M403 -20c-215 0 -343 168 -343 374s128 374 343 374c105 0 148 -20 282 -20h127v-10c-86 0 -92 -71 -92 -268v-567c0 -197 6 -268 92 -268v-10h-270v10c86 0 92 71 92 268v212c-58 -56 -134 -95 -231 -95zM145 354c0 -220 103 -362 258 -362c108 0 233 81 233 187
c0 75 -2 373 -2 459c-43 41 -120 78 -231 78c-155 0 -258 -142 -258 -362z" />
    <glyph glyph-name="z" unicode="z" horiz-adv-x="619" 
d="M30 0l448 698h-139c-161 0 -256 -55 -274 -144h-10v154h534l-448 -698h155c161 0 256 55 274 144h10v-154h-550z" />
    <glyph glyph-name="d" unicode="d" horiz-adv-x="834" 
d="M403 -20c-215 0 -343 168 -343 374s128 374 343 374c105 0 170 -20 233 -60v54c0 197 -6 268 -92 268v10h178v-722c0 -197 6 -268 92 -268v-10h-178v79c-48 -57 -136 -99 -233 -99zM403 716c-155 0 -258 -142 -258 -362s103 -362 258 -362c108 0 233 81 233 187v410
c-30 46 -100 127 -233 127z" />
    <glyph glyph-name="b" unicode="b" horiz-adv-x="804" 
d="M343 0h-313v10c86 0 92 71 92 268v444c0 197 -6 268 -92 268v10h178v-409c60 90 144 137 243 137c167 0 293 -118 293 -310c0 -266 -170 -418 -401 -418zM208 437v-400c34 -16 72 -27 123 -27c171 0 327 169 327 387c0 225 -132 307 -250 307c-103 0 -200 -70 -200 -267z
" />
    <glyph glyph-name="p" unicode="p" horiz-adv-x="794" 
d="M20 698v10h178v-117c60 90 144 137 243 137c167 0 293 -118 293 -310c0 -266 -170 -418 -401 -418c-51 0 -68 0 -135 16v-153c0 -197 6 -268 92 -268v-10h-270v10c86 0 92 71 92 268v567c0 197 -6 268 -92 268zM198 437v-398c32 -17 75 -29 123 -29
c171 0 326 159 326 387c0 225 -131 307 -249 307c-103 0 -200 -70 -200 -267z" />
    <glyph glyph-name="x" unicode="x" horiz-adv-x="625" 
d="M0 10h13c78 0 140 87 188 170l82 140l-193 315c-15 25 -33 63 -71 63h-19v10h105c36 0 55 -22 64 -36l167 -274l77 132c51 88 46 168 -11 168h-24v10h247v-10h-13c-78 0 -140 -87 -188 -170l-81 -140l192 -315c15 -25 33 -63 71 -63h19v-10h-107c-36 0 -53 22 -62 36
l-167 274l-77 -132c-51 -88 -46 -168 11 -168h24v-10h-247v10z" />
    <glyph glyph-name="ae" unicode="&#xe6;" horiz-adv-x="1285" 
d="M60 202c0 352 506 237 506 402c0 81 -94 114 -175 114c-95 0 -187 -33 -187 -116c0 -38 31 -55 40 -46c10 -30 -23 -58 -56 -58c-43 0 -72 37 -72 80c0 99 118 150 275 150c112 0 258 -46 260 -124c59 76 149 124 264 124c215 0 290 -148 290 -243
c0 -129 -115 -166 -202 -166c-112 0 -204 84 -281 84c-24 0 -36 -12 -39 -20l-4 1c0 41 44 71 90 71c83 0 163 -118 283 -118c68 0 108 44 108 117c0 106 -89 245 -289 245c-153 0 -256 -109 -256 -248c0 -263 189 -418 358 -418c79 0 189 24 238 153l14 -6
c-52 -119 -161 -200 -310 -200c-210 0 -336 160 -343 358l-10 -43c-34 -144 -104 -315 -279 -315c-129 0 -223 93 -223 222zM613 543c-116 -68 -465 -22 -465 -347c0 -104 66 -183 164 -183c108 0 217 117 263 395c6 49 19 94 38 135z" />
    <glyph glyph-name="zero" unicode="0" horiz-adv-x="923" 
d="M80 500c0 300 164 520 382 520c217 0 381 -220 381 -520s-164 -520 -381 -520c-218 0 -382 220 -382 520zM341 876c0 -215 265 -435 265 -659c0 -65 -6 -155 -59 -206c122 58 211 240 211 489c0 303 -132 508 -296 508c-96 0 -121 -37 -121 -132zM352 977
c-106 -72 -187 -250 -187 -477c0 -303 131 -508 297 -508c93 0 113 63 113 140c0 194 -266 423 -266 663c0 71 12 130 43 182z" />
    <glyph glyph-name="one" unicode="1" 
d="M300 0h-270v10c86 0 92 71 92 268v472c0 105 -6 139 -92 139v10c66 9 156 85 168 121h10v-742c0 -197 6 -268 92 -268v-10z" />
    <glyph glyph-name="two" unicode="2" horiz-adv-x="822" 
d="M80 119c0 242 576 335 576 622c0 134 -78 267 -240 267c-159 0 -239 -121 -239 -216c0 -70 48 -130 106 -130c27 0 60 11 60 40c10 -5 17 -18 17 -32c0 -56 -48 -85 -102 -85c-77 0 -152 60 -152 184c0 171 155 251 310 251c262 0 326 -177 326 -270
c0 -382 -651 -384 -651 -624c0 -65 45 -82 87 -82c121 0 242 97 410 97c72 0 139 -40 139 -97c0 -16 -4 -33 -17 -44c-20 34 -65 58 -114 56c-145 -6 -253 -76 -373 -76c-85 0 -143 59 -143 139z" />
    <glyph glyph-name="three" unicode="3" horiz-adv-x="846" 
d="M388 -20c-142 0 -308 71 -308 217c0 78 36 138 119 138c65 0 98 -68 68 -102c-10 4 -20 6 -29 6c-42 0 -69 -36 -69 -74c0 -114 111 -173 219 -173c163 0 285 114 285 337c0 124 -88 211 -191 211c-162 0 -208 -98 -267 -98c-24 0 -45 24 -45 48c0 155 419 68 419 324
c0 82 -45 194 -200 194c-162 0 -215 -92 -215 -167c0 -38 18 -98 66 -98c21 0 38 7 50 28c8 -4 13 -14 13 -25c0 -44 -43 -67 -83 -67c-64 0 -125 47 -125 144c0 134 171 197 294 197c145 0 287 -71 287 -209c0 -274 -468 -161 -468 -306c0 -22 16 -29 28 -29
c41 0 150 91 295 91c132 0 235 -90 235 -239c0 -197 -184 -348 -378 -348z" />
    <glyph glyph-name="four" unicode="4" horiz-adv-x="736" 
d="M39 248h-9c200 297 326 521 399 752h114c-178 -275 -286 -431 -464 -706c48 33 120 53 178 53c120 0 205 -91 304 -91c62 0 119 21 119 68c0 83 -151 32 -151 131v377h85v-414c0 -48 77 -25 77 -99c0 -49 -33 -86 -77 -107c2 -147 17 -202 92 -202v-10h-270v10
c72 0 88 50 91 183c-137 1 -192 95 -348 95c-63 0 -104 -19 -140 -40z" />
    <glyph glyph-name="five" unicode="5" horiz-adv-x="860" 
d="M405 -20c-166 0 -325 123 -325 282c0 107 56 208 184 208c63 0 119 -41 114 -100c-21 17 -44 27 -74 27c-95 0 -127 -98 -127 -152c0 -138 96 -253 228 -253c195 0 289 200 289 393c0 183 -108 346 -302 346c-189 0 -211 -157 -245 -157c-10 0 -15 14 -15 47
c0 32 1 144 1 186v139c0 43 46 74 97 74c141 0 226 -74 367 -80c51 -2 108 6 124 60c39 -62 -11 -146 -104 -146c-172 0 -229 80 -377 80c-41 0 -96 -25 -96 -72c0 -104 -3 -135 -3 -202c0 -5 -3 -42 19 -42c24 0 84 138 250 138c236 0 370 -163 370 -371
c0 -215 -153 -405 -375 -405z" />
    <glyph glyph-name="six" unicode="6" horiz-adv-x="860" 
d="M449 -20c-189 0 -369 160 -369 530s233 510 412 510c97 0 141 -42 141 -42l-6 -8s-30 38 -128 38c-208 0 -327 -220 -327 -498c0 -283 103 -518 277 -518c162 0 245 175 245 403c0 176 -44 358 -223 358c-64 0 -159 -46 -159 -130c0 -172 224 -180 224 -346
c0 -46 -21 -89 -67 -89c-14 0 -28 4 -36 17c21 0 28 28 28 48c0 133 -196 168 -196 330c0 70 67 182 226 182c184 0 289 -181 289 -370c0 -180 -94 -415 -331 -415z" />
    <glyph glyph-name="seven" unicode="7" horiz-adv-x="770" 
d="M80 961c0 20 9 39 23 39c0 -38 54 -63 99 -63c118 0 234 83 390 83c64 0 98 -32 98 -81c0 -189 -349 -399 -349 -755c0 -73 40 -157 95 -181c-6 -14 -23 -23 -41 -23c-79 0 -140 102 -140 220c0 311 391 492 391 679c0 34 -27 58 -77 58c-125 0 -244 -91 -356 -87
c-63 2 -133 50 -133 111z" />
    <glyph glyph-name="eight" unicode="8" horiz-adv-x="851" 
d="M438 -20c-200 0 -378 110 -378 289c0 231 240 243 406 308c89 35 175 96 175 222c0 136 -109 210 -225 210c-110 0 -215 -89 -215 -196c0 -113 89 -203 195 -203l4 -6c-9 -10 -30 -16 -51 -16c-113 0 -234 80 -234 216c0 142 151 216 301 216s311 -70 311 -220
c0 -133 -123 -185 -255 -232c-154 -55 -326 -113 -326 -283c0 -175 139 -295 292 -295c160 0 267 147 267 293c0 118 -68 245 -181 252v8c140 0 267 -113 267 -259c0 -176 -159 -304 -353 -304z" />
    <glyph glyph-name="nine" unicode="9" horiz-adv-x="860" 
d="M369 235c-184 0 -289 181 -289 370c0 181 94 415 331 415c189 0 369 -160 369 -530s-233 -510 -412 -510c-97 0 -141 42 -141 42l6 8s30 -38 128 -38c208 0 327 221 327 498c0 283 -103 518 -277 518c-162 0 -245 -175 -245 -403c0 -176 44 -358 223 -358
c64 0 159 46 159 130c0 172 -224 180 -224 346c0 46 21 89 67 89c14 0 28 -4 36 -17c-21 0 -28 -28 -28 -48c0 -133 196 -167 196 -330c0 -70 -67 -182 -226 -182z" />
    <glyph glyph-name="at" unicode="@" horiz-adv-x="1099" 
d="M549 -20c-286 0 -519 233 -519 520s233 520 519 520c287 0 520 -233 520 -520c0 -125 -61 -306 -212 -306c-112 0 -168 82 -168 140v131c-27 -132 -78 -241 -212 -241c-98 0 -170 71 -170 170c0 269 387 181 387 307c0 62 -72 88 -134 88c-73 0 -143 -26 -143 -89
c0 -29 24 -42 30 -35c8 -23 -17 -45 -42 -45c-33 0 -56 29 -56 62c0 75 91 114 211 114c87 0 199 -36 199 -96c0 -123 -385 -12 -385 -311c0 -80 50 -140 126 -140c82 0 187 85 187 308c0 17 -1 34 -13 37c0 5 9 11 21 11c56 0 63 -58 63 -120v-176c0 -69 50 -99 98 -99
c157 0 203 181 203 290c0 280 -231 510 -509 510c-276 0 -509 -230 -509 -510c0 -279 232 -510 508 -510c124 0 247 47 338 128l7 -7c-92 -81 -212 -131 -345 -131z" />
    <glyph glyph-name="registered" unicode="&#xae;" horiz-adv-x="639" 
d="M319 500c-143 0 -259 117 -259 260c0 144 116 260 259 260c144 0 260 -116 260 -260c0 -143 -116 -260 -260 -260zM69 760c0 -137 110 -249 250 -249c136 0 249 112 249 249s-114 250 -249 250s-250 -113 -250 -250zM175 944h44c40 0 66 7 109 7c78 0 121 -43 121 -103
c0 -49 -41 -95 -104 -95c-35 0 -58 23 -73 23c-5 0 -11 0 -11 -9c0 -24 77 -29 107 -75c29 -45 62 -110 104 -110v-4h-56c-17 0 -27 23 -85 110c-35 53 -74 55 -74 80c0 8 6 12 13 12c21 0 38 -21 72 -21c46 0 76 45 76 89c0 61 -43 98 -111 98c-27 0 -45 -4 -67 -12v-254
c0 -72 2 -98 34 -98v-4h-99v4c32 0 34 26 34 98v162c0 72 -2 98 -34 98v4z" />
    <glyph glyph-name="dollar" unicode="$" horiz-adv-x="822" 
d="M60 760c0 134 119 252 336 260c-8 43 -18 83 -18 108c0 26 10 48 30 48c21 0 31 -22 31 -48c0 -24 -11 -65 -18 -108c121 0 206 -20 282 -46v-134h-10s-61 168 -275 168c-3 -20 -5 -40 -5 -60v-398c168 -61 349 -122 349 -293c0 -132 -129 -263 -340 -276
c8 -39 17 -75 17 -98c0 -26 -10 -48 -31 -48c-20 0 -30 22 -30 48c0 22 9 58 16 97c-123 0 -233 50 -330 122v134h10s114 -208 323 -235c4 21 6 42 6 62v419c-168 64 -343 124 -343 278zM704 216c0 141 -141 204 -291 262v-415c0 -21 3 -43 6 -64c8 -1 16 -1 24 -1
c146 0 261 107 261 218zM130 784c0 -125 131 -179 273 -231v395c0 19 -2 40 -5 60c-173 -8 -268 -117 -268 -224z" />
    <glyph glyph-name="sterling" unicode="&#xa3;" horiz-adv-x="875" 
d="M156 -20c-43 0 -96 19 -96 57c0 65 195 17 180 236c-16 233 -156 302 -156 477c0 82 68 270 348 270c193 0 358 -80 358 -251c0 -124 -75 -184 -152 -184c-54 0 -102 29 -102 85c0 14 7 27 17 32c0 -29 33 -40 60 -40c58 0 106 60 106 130c0 95 -90 216 -287 216
c-161 0 -264 -110 -264 -244c0 -136 100 -231 129 -365c18 30 64 72 129 72c103 0 139 -52 225 -52c55 0 81 27 96 52l8 -5c-8 -27 -52 -98 -143 -98c-98 0 -153 65 -227 65c-42 0 -69 -26 -85 -50c3 -18 5 -37 5 -56c0 -247 -234 -247 -234 -290c0 -24 37 -47 85 -47
c172 0 299 175 495 175c92 0 164 -53 164 -114c0 -35 -18 -71 -57 -71c7 9 10 22 10 33c0 48 -68 69 -125 67c-194 -6 -294 -100 -487 -100zM297 399c-3 -5 -6 -11 -7 -15l8 -5c1 1 1 2 2 4c-1 5 -2 11 -3 16z" />
    <glyph glyph-name="yen" unicode="&#xa5;" horiz-adv-x="938" 
d="M60 990v10h270v-10h-22c-28 0 -54 -13 -54 -53c0 -67 186 -375 251 -500c66 125 241 439 241 507c0 36 -28 46 -56 46h-26v10h214v-10c-76 0 -100 -75 -191 -249c-62 -116 -141 -252 -175 -318v-4c26 -9 53 -17 88 -17c62 0 86 34 101 58h9c-8 -28 -55 -110 -151 -110
c-17 0 -33 1 -47 4v-35c26 -9 53 -17 88 -17c62 0 86 34 101 58h9c-8 -28 -55 -110 -151 -110c-17 0 -33 1 -47 4c1 -179 10 -244 92 -244v-10h-270v10c86 0 92 71 92 268v4c-39 18 -72 37 -113 37c-46 0 -71 -23 -86 -47l-9 -5c8 28 62 88 144 88c24 0 45 -3 64 -7v34
c-39 18 -72 37 -113 37c-46 0 -71 -23 -86 -47l-9 -5c8 28 62 88 144 88c18 0 34 -1 49 -4c-39 72 -106 189 -160 290c-93 173 -115 249 -191 249z" />
    <glyph glyph-name="Euro" unicode="&#x20ac;" horiz-adv-x="834" 
d="M60 500c0 300 189 520 429 520c123 0 208 -20 285 -46v-134h-10s-61 168 -275 168c-162 0 -302 -164 -335 -400c24 34 77 77 150 77c123 0 166 -60 269 -60c70 0 97 38 114 66h10c-9 -32 -62 -126 -171 -126c-133 0 -188 79 -277 79c-52 0 -80 -26 -97 -54
c-3 -29 -5 -59 -5 -90c0 -37 3 -73 7 -107c24 34 77 77 150 77c123 0 166 -60 269 -60c70 0 97 38 114 66h10c-9 -32 -62 -126 -171 -126c-133 0 -188 79 -277 79c-48 0 -76 -22 -93 -48c36 -230 173 -389 333 -389c214 0 275 168 275 168h10v-134
c-77 -26 -162 -46 -285 -46c-240 0 -429 220 -429 520zM154 393c-6 -9 -10 -17 -12 -24l10 6c1 2 3 4 4 6c-1 4 -1 8 -2 12zM154 608c-6 -9 -10 -17 -12 -24l10 6c1 6 2 12 2 18z" />
    <glyph glyph-name="germandbls" unicode="&#xdf;" horiz-adv-x="806" 
d="M208 0h-178v10c86 0 92 71 92 268v472c0 147 109 270 260 270c138 0 234 -68 234 -185c0 -238 -357 -265 -357 -340c0 -34 33 -31 33 -31c53 0 111 62 200 62c158 0 284 -96 284 -255c0 -168 -137 -291 -304 -291c-109 0 -220 55 -220 159c0 14 1 19 3 29h9
c-19 -107 82 -155 175 -155c136 0 252 95 252 238c0 125 -85 249 -203 249c-114 0 -139 -43 -196 -46c-22 -1 -43 16 -43 36c0 85 282 132 282 348c0 87 -49 170 -149 170c-94 0 -174 -96 -174 -258v-750z" />
    <glyph glyph-name="ampersand" unicode="&#x26;" horiz-adv-x="904" 
d="M60 314c0 149 140 285 319 285c47 0 67 6 67 28c0 18 -18 23 -47 23c-33 0 -52 -9 -87 -9c-101 0 -205 42 -205 167c0 96 93 212 324 212c123 0 294 -63 294 -197c0 -97 -61 -144 -125 -144c-44 0 -83 23 -83 67c0 11 5 21 13 25c12 -21 29 -28 50 -28c48 0 66 60 66 98
c0 75 -53 167 -215 167c-186 0 -237 -136 -237 -197c0 -145 130 -151 205 -151c34 0 57 -9 57 -32c0 -30 -24 -38 -55 -38c-148 0 -255 -130 -255 -303c0 -150 107 -295 278 -295c186 0 285 146 285 258c0 72 -33 132 -105 132c-81 0 -113 -56 -183 -56c-42 0 -71 36 -71 78
c0 87 118 176 232 176c89 0 129 -28 194 -28c30 0 46 8 63 29c15 -16 4 -92 -97 -92c-89 0 -103 27 -201 27c-77 0 -181 -42 -181 -112c0 -31 21 -68 61 -68c78 0 132 83 237 83c51 0 144 -33 144 -156c0 -201 -225 -283 -377 -283c-258 0 -365 150 -365 334z" />
    <glyph glyph-name="ampersand.001" horiz-adv-x="920" 
d="M401 -20c-176 0 -341 103 -341 279c0 163 76 229 170 269c-73 91 -121 176 -121 259c0 133 126 233 276 233c132 0 271 -64 280 -196c14 -201 -185 -212 -342 -275c11 -12 22 -25 33 -37c148 -168 233 -255 363 -391c59 57 96 135 96 225c0 103 -63 129 -125 129
c-51 0 -78 -19 -136 -19c-56 0 -91 52 -73 93c10 -17 23 -25 42 -25c67 0 84 31 151 31c115 0 158 -98 158 -201c0 -70 -32 -165 -104 -242c24 -25 51 -51 79 -82c9 -10 42 -21 54 -21v-9h-119c-25 0 -45 18 -64 37c-6 6 -11 12 -17 18c-66 -45 -151 -75 -260 -75zM314 559
c131 42 264 77 264 268c0 121 -100 181 -193 181c-153 0 -220 -90 -220 -188c0 -88 77 -180 149 -261zM287 462c-15 16 -29 32 -42 48c-62 -41 -106 -102 -106 -208c0 -144 143 -279 330 -279c65 0 127 16 180 46c-136 147 -250 269 -362 393z" />
    <glyph glyph-name="percent" unicode="%" horiz-adv-x="926" 
d="M255 481c-111 0 -195 114 -195 269c0 156 84 270 195 270c171 0 280 -93 280 -270c0 -209 -115 -338 -115 -500c0 -130 56 -230 179 -252c-73 37 -123 132 -123 251c0 156 84 270 195 270s195 -114 195 -270c0 -155 -84 -269 -195 -269c-92 0 -282 46 -282 270
c0 209 115 338 115 500c0 128 -55 229 -176 252c73 -38 122 -133 122 -252c0 -155 -84 -269 -195 -269zM549 250c0 -72 16 -260 121 -260c67 0 122 106 122 260c0 155 -55 259 -122 259c-68 0 -121 -104 -121 -259zM133 751c0 -154 53 -260 121 -260c67 0 122 106 122 260
c0 66 -23 259 -122 259c-68 0 -121 -104 -121 -259z" />
    <glyph glyph-name="braceleft" unicode="{" horiz-adv-x="340" 
d="M60 500c0 48 128 17 128 250c0 73 -39 114 -39 250c0 86 53 168 131 168v-10c-47 0 -67 -57 -67 -120c0 -86 48 -202 48 -288c0 -213 -190 -213 -190 -250s190 -37 190 -250c0 -86 -48 -202 -48 -288c0 -63 20 -120 67 -120v-10c-78 0 -131 82 -131 168
c0 136 39 177 39 250c0 233 -128 202 -128 250z" />
    <glyph glyph-name="parenleft" unicode="(" horiz-adv-x="496" 
d="M436 -169c-151 0 -376 268 -376 670s225 670 376 670v-14c-144 0 -288 -307 -288 -656s144 -656 288 -656v-14z" />
    <glyph glyph-name="asciitilde" unicode="~" horiz-adv-x="675" 
d="M68 462l-8 3c9 32 70 101 162 101c123 0 166 -60 269 -60c66 0 99 30 116 58l8 -3c-9 -32 -62 -119 -171 -119c-133 0 -188 72 -277 72c-52 0 -82 -24 -99 -52z" />
    <glyph glyph-name="plus" unicode="+" horiz-adv-x="620" 
d="M60 499c0 25 22 38 48 38c37 0 132 -33 198 -34c-1 66 -34 161 -34 198c0 26 13 48 38 48s38 -22 38 -48c0 -37 -33 -132 -34 -198c66 1 161 34 198 34c26 0 48 -13 48 -38s-22 -38 -48 -38c-37 0 -132 33 -198 34c1 -66 34 -161 34 -198c0 -26 -13 -48 -38 -48
s-38 22 -38 48c0 37 33 132 34 198c-66 -1 -161 -34 -198 -34c-26 0 -48 13 -48 38z" />
    <glyph glyph-name="period" unicode="." horiz-adv-x="254" 
d="M60 67c0 37 30 67 67 67s67 -30 67 -67s-30 -67 -67 -67s-67 30 -67 67z" />
    <glyph glyph-name="comma" unicode="," horiz-adv-x="259" 
d="M127 0c-37 0 -67 30 -67 67s30 67 67 67s72 -30 72 -90c0 -135 -98 -160 -98 -160l-1 10c43 10 73 76 58 119c0 0 -9 -13 -31 -13z" />
    <glyph glyph-name="asterisk" unicode="*" horiz-adv-x="300" 
d="M74 916c-10 3 -15 10 -13 19s12 11 21 8c13 -5 44 -28 67 -35c0 24 -13 60 -13 74c0 9 5 18 14 18c10 0 14 -9 14 -18c0 -14 -12 -50 -12 -74c23 7 53 31 66 35c9 3 19 0 22 -8c3 -9 -4 -16 -13 -19c-13 -4 -51 -4 -74 -11c14 -20 45 -41 53 -53c5 -7 7 -17 0 -22
c-9 -6 -16 -2 -22 6c-9 11 -20 48 -34 67c-14 -19 -24 -55 -33 -67c-6 -8 -15 -11 -22 -6c-9 6 -6 14 -1 22c7 11 40 33 54 53c-23 8 -62 7 -74 11z" />
    <glyph glyph-name="hyphen" unicode="-" horiz-adv-x="545" 
d="M60 480v20h426v-20h-426z" />
    <glyph glyph-name="minus" unicode="&#x2212;" horiz-adv-x="620" 
d="M60 500c0 25 22 38 48 38c38 0 136 -34 202 -34s164 34 202 34c26 0 48 -13 48 -38s-22 -38 -48 -38c-38 0 -136 34 -202 34s-164 -34 -202 -34c-26 0 -48 13 -48 38z" />
    <glyph glyph-name="less" unicode="&#x3c;" horiz-adv-x="585" 
d="M77 489c-8 3 -17 6 -17 11s9 8 17 11c193 76 331 187 407 187c33 0 41 -18 41 -30c0 -33 -37 -43 -37 -43l-411 -125l411 -125s37 -10 37 -43c0 -13 -8 -30 -41 -30c-76 0 -213 113 -407 187z" />
    <glyph glyph-name="ogonek" unicode="&#x2db;" horiz-adv-x="239" 
d="M129 -185c-43 0 -69 37 -69 74c0 61 60 116 119 116v-5c-55 0 -90 -41 -90 -83c0 -35 14 -65 49 -65c16 0 31 15 23 30l2 2s16 -5 16 -23c0 -25 -18 -46 -50 -46z" />
    <glyph glyph-name="cedilla" unicode="&#xb8;" horiz-adv-x="248" 
d="M60 -176l4 8c5 -4 15 -6 23 -6c75 0 86 115 29 115c-14 0 -26 -7 -34 -14l-8 12l38 70h10l-38 -70c12 9 25 14 41 14c92 0 86 -140 -32 -140c-13 0 -26 5 -33 11z" />
    <glyph glyph-name="hungarumlaut" unicode="&#x2dd;" horiz-adv-x="327" 
d="M161 1088h11c54 0 26 97 74 97c12 0 21 -9 21 -23c0 -32 -49 -82 -92 -82h-14v8zM60 1080v8h11c54 0 26 97 74 97c12 0 21 -9 21 -23c0 -32 -49 -82 -92 -82h-14z" />
    <glyph glyph-name="acute" unicode="&#xb4;" horiz-adv-x="313" 
d="M60 1090h32c86 0 86 85 133 85c18 0 28 -13 28 -27c0 -41 -67 -68 -117 -68h-76v10z" />
    <glyph glyph-name="macron" unicode="&#xaf;" horiz-adv-x="335" 
d="M60 1080v22h215v-22h-215z" />
    <glyph glyph-name="circumflex" unicode="&#x2c6;" horiz-adv-x="286" 
d="M30 1090l110 86l116 -86l-6 -10l-107 46l-107 -46z" />
    <glyph glyph-name="caron" unicode="&#x2c7;" horiz-adv-x="286" 
d="M256 1166l-116 -86l-110 86l6 10l107 -46l107 46z" />
    <glyph glyph-name="tilde" unicode="&#x2dc;" horiz-adv-x="358" 
d="M65 1092l-5 3c4 14 26 43 66 43c48 0 72 -28 117 -28c44 0 49 20 49 20l6 -3c-8 -28 -34 -47 -70 -47c-44 0 -64 29 -120 29c-19 0 -36 -7 -43 -17z" />
    <glyph glyph-name="breve" unicode="&#x2d8;" horiz-adv-x="340" 
d="M60 1166h9c21 -35 56 -56 101 -56s80 21 101 56h9c-9 -48 -55 -86 -110 -86c-54 0 -101 38 -110 86z" />
    <glyph glyph-name="C_A" horiz-adv-x="1722" 
d="M60 500c0 300 189 520 429 520c221 0 296 -119 296 -210c0 -208 -259 -252 -259 -397c0 -84 71 -107 112 -107c315 0 520 460 617 714h10l320 -845c44 -110 76 -165 137 -165v-10h-328v10c141 0 136 81 98 182l-124 327c4 -32 6 -72 6 -120c0 -243 -117 -419 -316 -419
c-116 0 -182 91 -182 195c0 246 399 333 399 444c0 19 -17 39 -43 39c-62 0 -193 -104 -235 -152c-110 -125 -204 -208 -359 -208c-76 0 -162 50 -162 138c0 176 252 236 252 382c0 119 -72 190 -216 190c-211 0 -365 -216 -365 -508s156 -508 342 -508
c214 0 275 168 275 168h10v-134c-77 -26 -162 -46 -285 -46c-240 0 -429 220 -429 520zM961 194c0 -94 59 -166 157 -166c167 0 246 205 246 369c0 74 -3 129 -21 188l-121 319c-52 -106 -114 -243 -197 -360l1 1c74 71 159 122 206 122c31 0 53 -24 53 -50
c0 -134 -324 -176 -324 -423z" />
    <glyph glyph-name="C_E" horiz-adv-x="1616" 
d="M60 500c0 300 189 520 429 520c221 0 296 -119 296 -210c0 -208 -259 -252 -259 -397c0 -84 71 -107 112 -107c132 0 221 66 325 176v240c0 197 -6 268 -92 268v10h716v-135h-10v4c0 67 -132 121 -362 121h-166v-419c76 68 172 119 251 119c89 0 192 -55 192 -161
c0 -93 -62 -129 -94 -129c-8 0 -21 3 -21 9c23 11 48 35 48 91c0 88 -77 156 -165 156c-89 0 -155 -47 -211 -99v-547h128c95 0 400 11 400 155h10v-165h-716v10c86 0 92 71 92 268v190c-96 -103 -186 -170 -325 -170c-76 0 -162 50 -162 138c0 176 252 236 252 382
c0 119 -72 190 -216 190c-211 0 -365 -216 -365 -508s156 -508 342 -508c214 0 275 168 275 168h10v-134c-77 -26 -162 -46 -285 -46c-240 0 -429 220 -429 520z" />
    <glyph glyph-name="S_S" horiz-adv-x="1691" 
d="M60 760c0 139 127 260 358 260c269 0 334 -262 403 -520c67 -252 172 -509 436 -509c213 0 316 114 316 225c0 301 -644 248 -644 544c0 139 127 260 358 260c123 0 208 -20 285 -46v-134h-10s-61 168 -275 168c-186 0 -288 -113 -288 -224c0 -274 632 -207 632 -527
c0 -139 -144 -277 -375 -277c-271 0 -377 261 -447 520c-69 255 -136 508 -391 508c-186 0 -288 -113 -288 -224c0 -274 632 -207 632 -527c0 -139 -144 -277 -375 -277c-132 0 -249 67 -323 122v134h10s131 -238 369 -238c146 0 261 107 261 218c0 301 -644 248 -644 544z
" />
    <glyph glyph-name="E_A" horiz-adv-x="1667" 
d="M821 175c0 246 400 340 400 444c0 19 -11 27 -24 27c-48 0 -78 -105 -135 -105c-28 0 -33 27 -23 53c61 161 98 260 161 426h10l320 -845c44 -110 76 -165 137 -165v-10h-328v10c141 0 136 81 98 182l-124 327c4 -32 6 -72 6 -120c0 -243 -117 -419 -316 -419
c-116 0 -182 91 -182 195zM906 194c0 -94 59 -166 157 -166c167 0 246 205 246 369c0 74 -3 129 -21 188l-121 319l-115 -306c-13 -35 -5 -47 11 -47c46 0 83 105 136 105c19 0 33 -13 33 -39c0 -134 -326 -176 -326 -423zM30 990v10h715v-135h-10v4c0 67 -132 121 -362 121
h-165v-434c10 31 77 92 164 92c179 0 310 -176 453 -176c64 0 142 28 163 59l5 -7c-17 -27 -53 -105 -167 -105c-198 0 -329 186 -509 186c-34 0 -86 -14 -109 -61v-534h127c95 0 400 11 400 155h10v-165h-715v10c86 0 92 71 92 268v444c0 197 -6 268 -92 268z" />
    <glyph glyph-name="E_R" horiz-adv-x="1677" 
d="M745 0h-715v10c86 0 92 71 92 268v444c0 197 -6 268 -92 268v10h715v-135h-10v4c0 67 -132 121 -362 121h-165v-458c44 45 129 86 212 86c150 0 236 -94 385 -94c95 0 122 71 122 106v92c0 197 -6 268 -92 268v10h120c110 0 181 20 297 20c213 0 332 -118 332 -281
c0 -137 -112 -261 -286 -261c-94 0 -158 64 -200 64c-12 0 -29 -3 -29 -26c0 -65 210 -79 292 -205c80 -123 172 -301 286 -301v-10h-153c-46 0 -74 63 -232 300c-97 146 -203 150 -203 218c0 24 17 34 35 34c59 0 105 -57 198 -57c125 0 206 123 206 243
c0 166 -117 268 -303 268c-74 0 -122 -10 -183 -32v-696c0 -197 6 -268 92 -268v-10h-269v10c86 0 92 71 92 268v312c-10 -44 -59 -106 -167 -106c-131 0 -238 96 -374 101c-77 3 -174 -47 -178 -80v-495h127c95 0 400 11 400 155h10v-165z" />
    <glyph glyph-name="H_E" horiz-adv-x="1698" 
d="M300 0h-270v10c86 0 92 71 92 268v444c0 197 -6 268 -92 268v10h270v-10c-86 0 -92 -71 -92 -268v-166c22 27 90 79 182 79c115 0 213 -63 318 -110v197c0 197 -6 268 -92 268v10h270v-10c-86 0 -92 -71 -92 -268v-230c35 -10 72 -17 111 -17c83 0 126 28 139 59v188
c0 197 -6 268 -92 268v10h716v-135h-10v4c0 67 -132 121 -362 121h-166v-430c30 29 70 46 116 46c99 0 154 -62 242 -62c38 0 74 22 74 57h10c0 -59 -49 -110 -128 -110c-122 0 -173 86 -244 88c-29 1 -54 -14 -70 -35v-534h128c95 0 400 11 400 155h10v-165h-716v10
c86 0 92 71 92 268v244c-10 -32 -59 -83 -168 -83c-27 0 -54 4 -82 11v-172c0 -197 6 -268 92 -268v-10h-270v10c86 0 92 71 92 268v201c-119 48 -243 122 -372 122c-54 0 -121 -29 -128 -79v-244c0 -197 6 -268 92 -268v-10z" />
    <glyph glyph-name="H_A" horiz-adv-x="1778" 
d="M1114 0c-116 0 -182 91 -182 195c0 246 400 340 400 444c0 19 -11 27 -24 27c-48 0 -78 -105 -135 -105c-28 0 -33 27 -23 53c61 161 98 260 161 426h10l320 -845c44 -110 76 -165 137 -165v-10h-328v10c141 0 136 81 98 182l-124 327c4 -32 6 -72 6 -120
c0 -243 -117 -419 -316 -419zM30 30c86 0 92 71 92 268v444c0 197 -6 268 -92 268v10h270v-10c-86 0 -92 -71 -92 -268v-166c22 27 79 79 182 79c117 0 218 -53 318 -98v185c0 197 -6 268 -92 268v10h270v-10c-86 0 -92 -71 -92 -268v-220c46 -16 94 -27 144 -27
c83 0 132 30 161 56l5 -7c-28 -27 -94 -85 -228 -85c-27 0 -54 4 -82 11v-172c0 -197 6 -268 92 -268v-10h-270v10c86 0 92 71 92 268v201c-119 48 -243 122 -372 122c-54 0 -121 -29 -128 -79v-244c0 -197 6 -268 92 -268v-10h-270v10zM1343 637
c0 -134 -326 -176 -326 -423c0 -94 59 -166 157 -166c167 0 246 205 246 369c0 74 -3 129 -21 188l-121 319l-115 -306c-13 -35 -5 -47 11 -47c46 0 83 105 136 105c19 0 33 -13 33 -39z" />
    <glyph glyph-name="dotlessi" unicode="&#x131;" 
d="M300 0h-270v10c86 0 92 71 92 268v152c0 197 -6 268 -92 268v10h178v-430c0 -197 6 -268 92 -268v-10z" />
    <glyph glyph-name="uni0237" unicode="&#x237;" horiz-adv-x="313" 
d="M30 -414l7 10c14 -11 36 -18 58 -18c91 0 102 117 102 189v663c0 197 -6 268 -92 268v10h178v-926c0 -102 -60 -218 -177 -218c-35 0 -58 9 -76 22z" />
    <glyph glyph-name="quotesingle" unicode="'" horiz-adv-x="259" 
d="M127 886c-37 0 -67 30 -67 67s30 67 67 67s72 -30 72 -90c0 -135 -98 -160 -98 -160l-1 10c43 10 73 76 58 119c0 0 -9 -13 -31 -13z" />
    <glyph glyph-name="slash" unicode="/" horiz-adv-x="454" 
d="M60 -20l324 1040h10l-324 -1040h-10z" />
    <glyph glyph-name="parenright" unicode=")" horiz-adv-x="496" 
d="M60 1157v14c151 0 376 -268 376 -670s-225 -670 -376 -670v14c144 0 288 307 288 656s-144 656 -288 656z" />
    <glyph glyph-name="greater" unicode="&#x3e;" horiz-adv-x="585" 
d="M60 668c0 12 8 30 41 30c76 0 213 -114 407 -187c8 -3 17 -6 17 -11s-9 -8 -17 -11c-194 -74 -331 -187 -407 -187c-33 0 -41 17 -41 30c0 33 37 43 37 43l411 125l-411 125s-37 10 -37 43z" />
    <glyph glyph-name="braceright" unicode="}" horiz-adv-x="340" 
d="M127 1038c0 63 -20 120 -67 120v10c78 0 131 -82 131 -168c0 -136 -39 -177 -39 -250c0 -233 128 -202 128 -250s-128 -17 -128 -250c0 -73 39 -114 39 -250c0 -86 -53 -168 -131 -168v10c47 0 67 57 67 120c0 86 -48 202 -48 288c0 213 190 213 190 250
s-190 37 -190 250c0 86 48 202 48 288z" />
    <glyph glyph-name="exclamdown" unicode="&#xa1;" horiz-adv-x="254" 
d="M127 -20c-73 0 -50 185 -31 388c14 148 25 311 25 426h12c0 -113 10 -278 25 -426c20 -203 42 -388 -31 -388zM127 886c-37 0 -67 30 -67 67s30 67 67 67s67 -30 67 -67s-30 -67 -67 -67z" />
    <glyph glyph-name="section" unicode="&#xa7;" horiz-adv-x="670" 
d="M60 41v122h10c0 -47 85 -176 242 -173c109 2 217 66 217 181c0 211 -455 102 -455 383c0 54 27 104 82 136c-49 33 -82 80 -82 156c0 94 83 174 246 174c169 0 248 -70 248 -70v-118h-4c-39 115 -127 178 -234 178c-126 0 -198 -70 -198 -145c0 -207 478 -112 478 -389
c0 -65 -28 -112 -72 -145c43 -33 72 -79 72 -147c0 -147 -143 -204 -298 -204c-106 0 -188 20 -252 61zM183 673c-33 -27 -51 -63 -51 -100c0 -140 218 -142 360 -214c23 28 37 63 37 104c0 144 -211 139 -346 210z" />
    <glyph glyph-name="bar" unicode="|" horiz-adv-x="131" 
d="M60 -20v1040h11v-1040h-11z" />
    <glyph glyph-name="brokenbar" unicode="&#xa6;" horiz-adv-x="131" 
d="M60 -20v451h11v-451h-11zM71 569h-11v451h11v-451z" />
    <glyph glyph-name="perthousand" unicode="&#x2030;" horiz-adv-x="1383" 
d="M60 750c0 156 84 270 195 270c171 0 280 -93 280 -270c0 -209 -115 -338 -115 -500c0 -130 56 -230 179 -252c-73 37 -123 132 -123 251c0 156 84 270 195 270s195 -114 195 -270c0 -155 -84 -269 -195 -269c-92 0 -282 46 -282 270c0 209 115 338 115 500
c0 128 -55 229 -176 252c73 -38 122 -133 122 -252c0 -155 -84 -269 -195 -269s-195 114 -195 269zM1128 -20c-111 0 -195 114 -195 269c0 156 84 270 195 270s195 -114 195 -270c0 -155 -84 -269 -195 -269zM670 509c-68 0 -121 -104 -121 -259c0 -72 16 -260 121 -260
c67 0 122 106 122 260c0 155 -55 259 -122 259zM133 751c0 -154 53 -260 121 -260c67 0 122 106 122 260c0 66 -23 259 -122 259c-68 0 -121 -104 -121 -259zM1005 250c0 -154 55 -260 122 -260s122 106 122 260c0 155 -55 259 -122 259s-122 -104 -122 -259z" />
    <glyph glyph-name="OE" unicode="&#x152;" horiz-adv-x="1197" 
d="M30 500c0 300 181 500 421 500h716v-135h-10v4c0 67 -132 121 -362 121h-166v-430c30 29 70 46 116 46c99 0 154 -62 242 -62c38 0 74 22 74 57h10c0 -59 -49 -110 -128 -110c-122 0 -173 86 -244 88c-29 1 -54 -14 -70 -35v-534h128c95 0 400 11 400 155h10v-165h-716
c-240 0 -421 200 -421 500zM451 990c-186 0 -334 -198 -334 -490s148 -490 334 -490c86 0 92 71 92 268v444c0 197 -6 268 -92 268z" />
    <glyph glyph-name="oe" unicode="&#x153;" horiz-adv-x="1354" 
d="M30 354c0 206 128 374 343 374c161 0 275 -94 321 -229c46 135 159 229 320 229c215 0 290 -148 290 -243c0 -129 -115 -166 -202 -166c-112 0 -204 84 -281 84c-24 0 -36 -12 -39 -20l-4 1c0 41 44 71 90 71c83 0 163 -118 283 -118c68 0 108 44 108 117
c0 106 -89 245 -289 245c-91 0 -256 -58 -256 -248c0 -263 189 -418 358 -418c79 0 189 24 238 153l14 -6c-52 -119 -161 -200 -310 -200c-161 0 -274 95 -320 229c-46 -134 -160 -229 -321 -229c-215 0 -343 168 -343 374zM115 354c0 -220 103 -362 258 -362
s260 142 260 362s-105 362 -260 362s-258 -142 -258 -362zM293 490c0 73 37 132 109 151l3 -10c-22 0 -59 -27 -59 -79c0 -107 96 -192 96 -309c0 -67 -37 -126 -109 -145l-3 10c22 0 59 27 59 79c0 100 -96 198 -96 303z" />
    <glyph glyph-name="multiply" unicode="&#xd7;" horiz-adv-x="494" 
d="M70 323c-17 17 -10 41 8 60c26 27 116 70 164 116c-48 46 -138 90 -164 116c-19 19 -26 43 -8 61c7 7 16 10 24 10c13 0 26 -6 37 -17c26 -26 70 -117 116 -164c46 47 89 139 116 164c11 11 24 17 37 17c8 0 17 -3 24 -10c18 -18 12 -42 -7 -61
c-26 -26 -117 -70 -164 -116c47 -46 137 -89 164 -116c18 -18 25 -42 7 -60c-7 -7 -16 -11 -25 -11c-12 0 -25 7 -36 18c-26 26 -70 116 -116 164c-46 -48 -91 -137 -116 -164c-11 -11 -23 -18 -36 -18c-9 0 -18 4 -25 11z" />
    <glyph glyph-name="questiondown" unicode="&#xbf;" horiz-adv-x="775" 
d="M60 275c0 324 443 236 443 470c0 31 -9 45 -33 68c4 10 28 23 45 23c43 0 71 -48 71 -95c0 -45 -25 -89 -71 -128c-99 -85 -265 -118 -265 -273c0 -31 21 -57 54 -57c77 0 112 135 243 135c107 0 168 -91 168 -187c0 -138 -123 -251 -313 -251c-193 0 -342 124 -342 295z
M429 566c-141 -50 -303 -31 -303 -247c0 -157 120 -323 300 -323c147 0 238 74 238 180c0 100 -63 187 -161 187c-100 0 -112 -94 -200 -94c-41 0 -64 31 -64 68c0 121 101 184 190 229zM448 953c0 37 30 67 67 67s67 -30 67 -67s-30 -67 -67 -67s-67 30 -67 67z" />
    <glyph glyph-name="periodcentered" unicode="&#xb7;" horiz-adv-x="254" 
d="M60 501c0 37 30 67 67 67s67 -30 67 -67s-30 -67 -67 -67s-67 30 -67 67z" />
    <glyph glyph-name="ellipsis" unicode="&#x2026;" horiz-adv-x="762" 
d="M568 67c0 37 30 67 67 67s67 -30 67 -67s-30 -67 -67 -67s-67 30 -67 67zM381 0c-37 0 -67 30 -67 67s30 67 67 67s67 -30 67 -67s-30 -67 -67 -67zM60 67c0 37 30 67 67 67s67 -30 67 -67s-30 -67 -67 -67s-67 30 -67 67z" />
    <glyph glyph-name="grave" unicode="`" horiz-adv-x="313" 
d="M177 1080c-50 0 -117 27 -117 68c0 14 10 27 28 27c47 0 47 -85 133 -85h32v-10h-76z" />
    <glyph glyph-name="ring" unicode="&#x2da;" horiz-adv-x="249" 
d="M125 1080c-36 0 -65 29 -65 65c0 35 29 64 65 64c35 0 64 -29 64 -64c0 -36 -29 -65 -64 -65zM71 1145c0 -30 24 -54 54 -54s54 24 54 54c0 29 -24 53 -54 53s-54 -24 -54 -53z" />
    <glyph glyph-name="dotaccent" unicode="&#x2d9;" horiz-adv-x="206" 
d="M60 1123c0 24 19 44 43 44s44 -20 44 -44c0 -23 -20 -43 -44 -43s-43 20 -43 43z" />
    <glyph glyph-name="bullet" unicode="&#x2022;" horiz-adv-x="266" 
d="M60 500c0 40 33 73 73 73s73 -33 73 -73s-33 -73 -73 -73s-73 33 -73 73z" />
    <glyph glyph-name="onesuperior" unicode="&#xb9;" horiz-adv-x="280" 
d="M220 500h-160v8c44 0 47 36 47 137v232c0 54 -3 73 -47 73v8c34 5 98 44 105 62h8v-375c0 -101 3 -137 47 -137v-8z" />
    <glyph glyph-name="twosuperior" unicode="&#xb2;" horiz-adv-x="481" 
d="M60 562c0 123 296 180 296 326c0 57 -33 126 -116 126c-84 0 -115 -55 -115 -103c0 -27 16 -71 52 -71c17 0 35 9 35 23c7 -3 11 -11 11 -20c0 -28 -28 -50 -62 -50c-53 0 -90 41 -90 104c0 82 81 123 169 123c140 0 181 -90 181 -137c0 -194 -350 -195 -350 -317
c0 -29 24 -33 46 -33c70 0 143 53 209 53c54 0 83 -33 83 -62c0 -8 -2 -17 -9 -22c-11 17 -35 29 -61 28c-77 -3 -134 -39 -198 -39c-45 0 -81 30 -81 71z" />
    <glyph glyph-name="threesuperior" unicode="&#xb3;" horiz-adv-x="530" 
d="M247 491c-88 0 -187 33 -187 117c0 40 26 72 75 72c46 0 60 -43 42 -60c-6 3 -13 4 -19 4c-21 0 -37 -18 -37 -39c0 -58 64 -88 126 -88c94 0 157 58 157 172c0 63 -44 107 -103 107c-93 0 -120 -50 -154 -50c-13 0 -26 12 -26 25c0 78 233 41 233 164
c0 42 -16 99 -115 99c-89 0 -104 -47 -104 -85c0 -22 13 -47 36 -47c12 0 19 2 25 11c5 -2 8 -7 8 -12c0 -23 -22 -41 -54 -41c-46 0 -76 36 -76 80c0 80 106 100 165 100c101 0 181 -36 181 -106c0 -139 -277 -82 -277 -156c0 -11 10 -15 16 -15c24 0 87 47 170 47
c76 0 141 -46 141 -122c0 -100 -111 -177 -223 -177z" />
    <glyph glyph-name="approxequal" unicode="&#x2248;" horiz-adv-x="607" 
d="M60 551c8 22 62 70 142 70c108 0 146 -41 236 -41c58 0 86 22 101 41l8 -3c-8 -22 -54 -88 -150 -88c-117 0 -165 55 -243 55c-46 0 -70 -18 -85 -38zM60 404c8 22 62 70 142 70c108 0 146 -42 236 -42c58 0 86 23 101 42l8 -3c-8 -22 -54 -88 -150 -88
c-117 0 -165 55 -243 55c-46 0 -70 -18 -85 -38z" />
    <glyph glyph-name="equal" unicode="=" horiz-adv-x="620" 
d="M108 539c-26 0 -48 13 -48 38s22 38 48 38c38 0 136 -34 202 -34s164 34 202 34c26 0 48 -13 48 -38s-22 -38 -48 -38c-38 0 -136 34 -202 34s-164 -34 -202 -34zM60 425c0 25 22 38 48 38c38 0 136 -34 202 -34s164 34 202 34c26 0 48 -13 48 -38s-22 -38 -48 -38
c-38 0 -136 34 -202 34s-164 -34 -202 -34c-26 0 -48 13 -48 38z" />
    <glyph glyph-name="colon" unicode=":" horiz-adv-x="254" 
d="M60 67c0 37 30 67 67 67s67 -30 67 -67s-30 -67 -67 -67s-67 30 -67 67zM60 424c0 37 30 67 67 67s67 -30 67 -67s-30 -67 -67 -67s-67 30 -67 67z" />
    <glyph glyph-name="semicolon" unicode=";" horiz-adv-x="259" 
d="M60 67c0 37 30 67 67 67s72 -30 72 -90c0 -135 -98 -160 -98 -160l-1 10c43 10 73 76 58 119c0 0 -9 -13 -31 -13c-37 0 -67 30 -67 67zM60 424c0 37 30 67 67 67s67 -30 67 -67s-30 -67 -67 -67s-67 30 -67 67z" />
    <glyph glyph-name="dieresis" unicode="&#xa8;" horiz-adv-x="283" 
d="M60 1110c0 16 13 29 30 29c16 0 29 -13 29 -29c0 -17 -13 -30 -29 -30c-17 0 -30 13 -30 30zM193 1080c-16 0 -29 13 -29 30c0 16 13 29 29 29c17 0 30 -13 30 -29c0 -17 -13 -30 -30 -30z" />
    <glyph glyph-name="copyright" unicode="&#xa9;" horiz-adv-x="1158" 
d="M60 500c0 287 233 520 519 520c287 0 519 -233 519 -520s-232 -520 -519 -520c-286 0 -519 233 -519 520zM580 1010c-276 0 -510 -230 -510 -510s225 -510 509 -510c278 0 510 230 510 510s-233 510 -509 510zM249 502c0 206 128 374 343 374c169 0 248 -70 248 -70v-118
h-4c-69 111 -183 159 -288 159c-91 0 -256 -58 -256 -248c0 -263 189 -418 358 -418c79 0 189 24 238 153l14 -6c-52 -119 -161 -200 -310 -200c-215 0 -343 168 -343 374z" />
    <glyph glyph-name="bracketleft" unicode="[" horiz-adv-x="453" 
d="M393 -169h-333v1338h333v-20h-252v-1298h252v-20z" />
    <glyph glyph-name="bracketright" unicode="]" horiz-adv-x="453" 
d="M393 -169h-333v20h252v1298h-252v20h333v-1338z" />
    <glyph glyph-name="backslash" unicode="\" horiz-adv-x="454" 
d="M60 1020h10l324 -1040h-10z" />
    <glyph glyph-name="ordfeminine" unicode="&#xaa;" horiz-adv-x="531" 
d="M30 648c0 249 358 168 358 284c0 58 -67 81 -124 81c-67 0 -132 -23 -132 -82c0 -27 22 -39 28 -33c7 -21 -16 -41 -39 -41c-31 0 -51 27 -51 57c0 70 83 106 194 106c80 0 184 -33 184 -89c0 -114 -356 -11 -356 -287c0 -74 47 -130 116 -130c77 0 174 79 174 285
c0 15 -2 32 -12 34c0 5 7 10 19 10c51 0 58 -54 58 -110v-149c0 -59 35 -72 54 -72v-7h-50c-38 0 -67 35 -67 88v121c-26 -122 -72 -223 -196 -223c-91 0 -158 66 -158 157z" />
    <glyph glyph-name="ordmasculine" unicode="&#xba;" horiz-adv-x="547" 
d="M273 491c-152 0 -243 119 -243 265c0 145 91 264 243 264s244 -119 244 -264c0 -146 -92 -265 -244 -265zM90 756c0 -156 73 -256 183 -256c109 0 184 100 184 256c0 155 -75 256 -184 256c-110 0 -183 -101 -183 -256zM293 959l2 -8c-15 0 -41 -19 -41 -55
c0 -76 67 -136 67 -219c0 -47 -26 -89 -77 -102l-2 7c16 0 42 19 42 55c0 71 -68 140 -68 215c0 51 26 93 77 107z" />
    <glyph glyph-name="degree" unicode="&#xb0;" horiz-adv-x="352" 
d="M176 788c-64 0 -116 52 -116 116s52 116 116 116s116 -52 116 -116s-52 -116 -116 -116zM93 904c0 -46 38 -83 84 -83s83 37 83 83s-37 83 -83 83s-84 -37 -84 -83z" />
    <glyph glyph-name="quotedbl" unicode="&#x22;" horiz-adv-x="440" 
d="M60 953c0 37 30 67 67 67s72 -30 72 -90c0 -135 -98 -160 -98 -160l-1 10c43 10 73 76 58 119c0 0 -9 -13 -31 -13c-37 0 -67 30 -67 67zM241 953c0 37 30 67 67 67s72 -30 72 -90c0 -135 -98 -160 -98 -160l-1 10c43 10 73 76 58 119c0 0 -9 -13 -31 -13
c-37 0 -67 30 -67 67z" />
    <glyph glyph-name="currency" unicode="&#xa4;" horiz-adv-x="661" 
d="M60 736l35 36l132 -133c31 23 67 35 103 35s73 -12 103 -35l132 132l36 -35l-133 -132c46 -62 45 -147 -2 -207l2 2l133 -133l-36 -35l-132 133l2 2c-31 -24 -68 -36 -105 -36c-36 0 -73 12 -104 35l2 -2l-133 -132l-35 35l133 133l1 -1c-47 60 -47 145 -2 206zM243 588
c-48 -48 -48 -126 0 -174c25 -24 56 -36 88 -36s63 12 87 36c48 48 48 126 0 174c-24 24 -55 36 -87 36s-64 -12 -88 -36z" />
    <glyph glyph-name="plusminus" unicode="&#xb1;" horiz-adv-x="620" 
d="M60 399c0 25 22 38 48 38c37 0 132 -33 198 -34c-1 66 -34 161 -34 198c0 26 13 48 38 48s38 -22 38 -48c0 -37 -33 -132 -34 -198c66 1 161 34 198 34c26 0 48 -13 48 -38s-22 -38 -48 -38c-37 0 -132 33 -198 34c1 -66 34 -161 34 -198c0 -26 -13 -48 -38 -48
s-38 22 -38 48c0 37 33 132 34 198c-66 -1 -161 -34 -198 -34c-26 0 -48 13 -48 38zM60 38c0 25 22 38 48 38c38 0 136 -34 202 -34s164 34 202 34c26 0 48 -13 48 -38s-22 -38 -48 -38c-38 0 -136 34 -202 34s-164 -34 -202 -34c-26 0 -48 13 -48 38z" />
    <glyph glyph-name="lessequal" unicode="&#x2264;" horiz-adv-x="620" 
d="M72 340c0 5 9 8 17 11c194 74 331 187 407 187c33 0 41 -18 41 -30c0 -33 -37 -43 -37 -43l-411 -125l411 -125s37 -10 37 -43c0 -13 -8 -30 -41 -30c-76 0 -213 114 -407 187c-8 3 -17 6 -17 11zM60 67c0 25 22 38 48 38c38 0 136 -34 202 -34s164 34 202 34
c26 0 48 -13 48 -38s-22 -38 -48 -38c-38 0 -136 34 -202 34s-164 -34 -202 -34c-26 0 -48 13 -48 38z" />
    <glyph glyph-name="greaterequal" unicode="&#x2265;" horiz-adv-x="620" 
d="M120 465c0 0 -37 10 -37 43c0 12 9 30 42 30c75 0 212 -114 406 -187c8 -3 17 -6 17 -11s-9 -8 -17 -11c-194 -74 -331 -187 -406 -187c-33 0 -42 17 -42 30c0 33 37 43 37 43l411 125zM108 29c-26 0 -48 13 -48 38s22 38 48 38c38 0 136 -34 202 -34s164 34 202 34
c26 0 48 -13 48 -38s-22 -38 -48 -38c-38 0 -136 34 -202 34s-164 -34 -202 -34z" />
    <glyph glyph-name="fraction" unicode="&#x2044;" horiz-adv-x="454" 
d="M60 -20l324 1040h10l-324 -1040h-10z" />
    <glyph glyph-name="guilsinglleft" unicode="&#x2039;" horiz-adv-x="270" 
d="M68 493c-4 3 -8 4 -8 7s4 4 8 7c101 73 97 136 129 136c7 0 13 -5 13 -15c0 -35 -115 -114 -144 -128c29 -14 144 -93 144 -128c0 -10 -6 -14 -13 -14c-32 0 -30 60 -129 135z" />
    <glyph glyph-name="guilsinglright" unicode="&#x203a;" horiz-adv-x="270" 
d="M60 628c0 10 6 15 13 15c32 0 25 -67 129 -136c3 -2 8 -4 8 -7s-5 -5 -8 -7c-101 -73 -97 -135 -129 -135c-7 0 -13 4 -13 14c0 35 115 114 144 128c-29 14 -144 93 -144 128z" />
    <glyph glyph-name="guillemotright" unicode="&#xbb;" horiz-adv-x="378" 
d="M168 628c0 10 6 15 13 15c32 0 25 -67 129 -136c3 -2 8 -4 8 -7s-5 -4 -8 -7c-100 -74 -97 -135 -129 -135c-7 0 -13 4 -13 14c0 35 115 114 144 128c-29 14 -144 93 -144 128zM60 628c0 10 6 15 13 15c32 0 25 -67 129 -136c3 -2 8 -4 8 -7s-5 -5 -8 -7
c-101 -73 -97 -135 -129 -135c-7 0 -13 4 -13 14c0 35 115 114 144 128c-29 14 -144 93 -144 128z" />
    <glyph glyph-name="guillemotleft" unicode="&#xab;" horiz-adv-x="378" 
d="M68 493c-4 3 -8 4 -8 7s4 4 8 7c101 73 97 136 129 136c7 0 13 -5 13 -15c0 -35 -115 -114 -144 -128c29 -14 144 -93 144 -128c0 -10 -6 -14 -13 -14c-32 0 -30 60 -129 135zM176 493c-4 3 -8 4 -8 7s4 4 8 7c101 73 97 136 129 136c7 0 13 -5 13 -15
c0 -35 -115 -114 -144 -128c29 -14 144 -93 144 -128c0 -10 -6 -14 -13 -14c-32 0 -30 60 -129 135z" />
    <glyph glyph-name="cent" unicode="&#xa2;" horiz-adv-x="773" 
d="M401 874h2c169 0 248 -70 248 -70v-118h-4c-60 97 -154 145 -247 157l1 -657c20 -5 40 -7 60 -7c79 0 189 24 238 153l14 -6c-56 -129 -172 -201 -313 -200l1 -59c1 -66 26 -142 26 -180c0 -26 -10 -48 -31 -48c-20 0 -30 22 -30 48c0 38 25 114 25 180v59
c-208 7 -331 172 -331 374s123 368 330 374l1 78c1 66 -25 142 -25 180c0 26 10 48 30 48c21 0 31 -22 31 -48c0 -38 -26 -114 -26 -180v-78zM103 597c0 -227 140 -373 287 -409l1 656c-11 1 -22 1 -32 1c-91 0 -256 -58 -256 -248z" />
    <glyph glyph-name="quoteleft" unicode="&#x2018;" horiz-adv-x="259" 
d="M60 860c0 135 98 160 98 160l1 -10c-43 -10 -73 -76 -58 -119c0 0 9 13 31 13c37 0 67 -30 67 -67s-30 -67 -67 -67s-72 30 -72 90z" />
    <glyph glyph-name="quoteright" unicode="&#x2019;" horiz-adv-x="259" 
d="M127 886c-37 0 -67 30 -67 67s30 67 67 67s72 -30 72 -90c0 -135 -98 -160 -98 -160l-1 10c43 10 73 76 58 119c0 0 -9 -13 -31 -13z" />
    <glyph glyph-name="quotesinglbase" unicode="&#x201a;" horiz-adv-x="259" 
d="M127 0c-37 0 -67 30 -67 67s30 67 67 67s72 -30 72 -90c0 -135 -98 -160 -98 -160l-1 10c43 10 73 76 58 119c0 0 -9 -13 -31 -13z" />
    <glyph glyph-name="quotedblleft" unicode="&#x201c;" horiz-adv-x="440" 
d="M241 860c0 135 98 160 98 160l1 -10c-43 -10 -73 -76 -58 -119c0 0 9 13 31 13c37 0 67 -30 67 -67s-30 -67 -67 -67s-72 30 -72 90zM60 860c0 135 98 160 98 160l1 -10c-43 -10 -73 -76 -58 -119c0 0 9 13 31 13c37 0 67 -30 67 -67s-30 -67 -67 -67s-72 30 -72 90z" />
    <glyph glyph-name="quotedblright" unicode="&#x201d;" horiz-adv-x="440" 
d="M60 953c0 37 30 67 67 67s72 -30 72 -90c0 -135 -98 -160 -98 -160l-1 10c43 10 73 76 58 119c0 0 -9 -13 -31 -13c-37 0 -67 30 -67 67zM241 953c0 37 30 67 67 67s72 -30 72 -90c0 -135 -98 -160 -98 -160l-1 10c43 10 73 76 58 119c0 0 -9 -13 -31 -13
c-37 0 -67 30 -67 67z" />
    <glyph glyph-name="quotedblbase" unicode="&#x201e;" horiz-adv-x="440" 
d="M241 67c0 37 30 67 67 67s72 -30 72 -90c0 -135 -98 -160 -98 -160l-1 10c43 10 73 76 58 119c0 0 -9 -13 -31 -13c-37 0 -67 30 -67 67zM60 67c0 37 30 67 67 67s72 -30 72 -90c0 -135 -98 -160 -98 -160l-1 10c43 10 73 76 58 119c0 0 -9 -13 -31 -13
c-37 0 -67 30 -67 67z" />
    <glyph glyph-name="dagger" unicode="&#x2020;" horiz-adv-x="620" 
d="M60 727c0 25 22 38 48 38c37 0 132 -33 198 -34c-1 66 -34 204 -34 241c0 26 13 48 38 48s38 -22 38 -48c0 -37 -33 -175 -34 -241c66 1 161 34 198 34c26 0 48 -13 48 -38s-22 -38 -48 -38c-37 0 -132 33 -198 34c1 -66 34 -658 34 -695c0 -26 -13 -48 -38 -48
s-38 22 -38 48c0 37 33 629 34 695c-66 -1 -161 -34 -198 -34c-26 0 -48 13 -48 38z" />
    <glyph glyph-name="daggerdbl" unicode="&#x2021;" horiz-adv-x="620" 
d="M60 727c0 25 22 38 48 38c37 0 132 -33 198 -34c-1 66 -34 204 -34 241c0 26 13 48 38 48s38 -22 38 -48c0 -37 -33 -175 -34 -241c66 1 161 34 198 34c26 0 48 -13 48 -38s-22 -38 -48 -38c-37 0 -132 33 -198 34c0 -86 26 -135 26 -221c0 -88 -26 -137 -26 -225
c66 1 161 34 198 34c26 0 48 -13 48 -38s-22 -38 -48 -38c-37 0 -132 33 -198 34c1 -66 34 -204 34 -241c0 -26 -13 -48 -38 -48s-38 22 -38 48c0 37 33 175 34 241c-66 -1 -161 -34 -198 -34c-26 0 -48 13 -48 38s22 38 48 38c37 0 132 -33 198 -34c0 88 -26 137 -26 225
c0 86 26 135 26 221c-66 -1 -161 -34 -198 -34c-26 0 -48 13 -48 38z" />
    <glyph glyph-name="numbersign" unicode="#" horiz-adv-x="643" 
d="M398 271h124v-10h-127l-81 -261h-11l81 261h-186l-81 -261h-11l81 261h-127v10h130l65 206h-135v10h138l75 241h11l-75 -241h185l76 241h11l-76 -241h118v-10h-121zM202 271h185l64 206h-185z" />
    <glyph glyph-name="endash" unicode="&#x2013;" horiz-adv-x="620" 
d="M60 491v11h500v-11h-500z" />
    <glyph glyph-name="emdash" unicode="&#x2014;" horiz-adv-x="921" 
d="M60 491v11h801v-11h-801z" />
    <glyph glyph-name="divide" unicode="&#xf7;" horiz-adv-x="620" 
d="M60 501c0 25 22 38 48 38c38 0 136 -34 202 -34s164 34 202 34c26 0 48 -13 48 -38s-22 -38 -48 -38c-38 0 -136 34 -202 34s-164 -34 -202 -34c-26 0 -48 13 -48 38zM243 326c0 37 30 67 67 67s67 -30 67 -67s-30 -67 -67 -67s-67 30 -67 67zM310 616
c-37 0 -67 30 -67 67s30 67 67 67s67 -30 67 -67s-30 -67 -67 -67z" />
    <glyph glyph-name="notequal" unicode="&#x2260;" horiz-adv-x="620" 
d="M60 577c0 25 22 38 48 38c38 0 136 -34 202 -34c7 0 13 0 20 1l137 438h10l-136 -437c62 7 139 32 171 32c26 0 48 -13 48 -38s-22 -38 -48 -38c-33 0 -111 26 -175 32l-44 -141c6 -1 12 -1 17 -1c66 0 164 34 202 34c26 0 48 -13 48 -38s-22 -38 -48 -38
c-38 0 -136 34 -202 34c-6 0 -13 0 -20 -1l-137 -440h-10l137 439c-63 -7 -139 -32 -172 -32c-26 0 -48 13 -48 38s22 38 48 38c33 0 112 -26 175 -32l44 141c-6 1 -11 1 -17 1c-66 0 -164 -34 -202 -34c-26 0 -48 13 -48 38z" />
    <glyph glyph-name="onequarter" unicode="&#xbc;" horiz-adv-x="686" 
d="M212 129c128 142 167 256 211 371h90c-103 -150 -163 -222 -277 -353c29 16 64 45 107 45c72 0 130 -45 190 -45c34 0 70 5 78 23c17 38 -104 17 -104 67v179h64v-198c0 -24 46 -13 46 -50c0 -25 -20 -52 -46 -62c1 -74 10 -101 55 -101v-5h-175v5c43 0 53 25 55 91
c-83 1 -116 48 -210 48c-38 0 -62 -10 -84 -20v5zM220 500h-160v8c44 0 47 36 47 137v232c0 54 -3 73 -47 73v8c34 5 98 44 105 62h8v-375c0 -101 3 -137 47 -137v-8zM110 -20l324 1040h10l-324 -1040h-10z" />
    <glyph glyph-name="uni2074" unicode="&#x2074;" horiz-adv-x="535" 
d="M60 629c128 142 167 256 211 371h90c-103 -150 -162 -222 -277 -353c29 16 64 45 107 45c73 0 130 -45 190 -45c34 0 70 5 78 23c17 38 -104 17 -104 67v179h64v-198c0 -24 47 -13 47 -50c0 -25 -20 -52 -47 -62c1 -74 11 -101 56 -101v-5h-176v5c43 0 53 25 55 91
c-83 1 -116 48 -210 48c-38 0 -62 -10 -84 -20v5z" />
    <glyph glyph-name="onehalf" unicode="&#xbd;" horiz-adv-x="726" 
d="M386 -19c-45 0 -81 30 -81 70c0 123 296 180 296 326c0 58 -33 126 -115 126c-85 0 -116 -55 -116 -103c0 -27 12 -70 52 -70c18 0 36 8 36 22c6 -3 11 -11 11 -20c0 -28 -28 -49 -63 -49c-52 0 -90 34 -90 97c0 92 81 129 170 129c139 0 180 -90 180 -137
c0 -194 -350 -195 -350 -317c0 -28 24 -33 46 -33c70 0 143 53 209 53c54 0 83 -33 83 -62c0 -8 -2 -17 -9 -22c-10 17 -34 29 -60 28c-78 -3 -135 -38 -199 -38zM60 500v8c44 0 47 36 47 137v232c0 54 -3 73 -47 73v8c34 5 98 44 105 62h8v-375c0 -101 3 -137 47 -137v-8
h-160zM110 -20l324 1040h10l-324 -1040h-10z" />
    <glyph glyph-name="threequarters" unicode="&#xbe;" horiz-adv-x="918" 
d="M247 491c-88 0 -187 33 -187 117c0 40 26 72 75 72c46 0 60 -43 42 -60c-6 3 -13 4 -19 4c-21 0 -37 -18 -37 -39c0 -58 64 -88 126 -88c94 0 157 58 157 172c0 63 -44 107 -103 107c-93 0 -120 -50 -154 -50c-13 0 -26 12 -26 25c0 78 233 41 233 164
c0 42 -16 99 -115 99c-89 0 -104 -47 -104 -85c0 -22 13 -47 36 -47c12 0 19 2 25 11c5 -2 8 -7 8 -12c0 -23 -22 -41 -54 -41c-46 0 -76 36 -76 80c0 80 106 100 165 100c101 0 181 -36 181 -106c0 -139 -277 -82 -277 -156c0 -11 10 -15 16 -15c24 0 87 47 170 47
c76 0 141 -46 141 -122c0 -100 -111 -177 -223 -177zM444 124l-1 5c128 142 167 256 211 371h90c-102 -150 -162 -222 -276 -353c29 17 63 45 107 45c72 0 130 -45 189 -45c34 0 69 5 78 24c18 37 -104 16 -104 66v179h65v-198c0 -24 46 -13 46 -50c0 -24 -20 -51 -46 -62
c1 -73 10 -101 55 -101v-5h-176v5c44 0 53 25 55 92c-82 0 -115 47 -209 47c-38 0 -63 -9 -84 -20zM331 -20l324 1040h10l-324 -1040h-10z" />
    <glyph glyph-name="trademark" unicode="&#x2122;" horiz-adv-x="1030" 
d="M460 1000h80l192 -403l150 403h88v-5c-43 0 -46 -35 -46 -134v-222c0 -99 3 -134 46 -134v-5h-135v5c43 0 46 35 46 134v344c-54 -144 -104 -282 -166 -447h-4c-79 168 -124 266 -200 428v-278c0 -145 41 -181 84 -181v-5h-135v5c43 0 46 35 46 134v222
c0 99 -3 134 -46 134v5zM65 933h-5v67h350v-67h-5c0 53 -114 62 -149 62v-356c0 -99 -1 -134 42 -134v-5h-130v5c43 0 46 35 46 134v356c-35 0 -149 -9 -149 -62z" />
    <glyph glyph-name="e.002" horiz-adv-x="773" 
d="M403 -20c-215 0 -343 168 -343 374s128 374 343 374s290 -148 290 -243c0 -129 -115 -166 -202 -166c-112 0 -204 84 -281 84c-24 0 -36 -12 -39 -20l-4 1c0 41 44 71 90 71c83 0 163 -118 283 -118c68 0 108 44 108 117c0 106 -89 245 -289 245
c-91 0 -256 -58 -256 -248c0 -263 189 -418 358 -418c79 0 189 24 238 153l14 -6c-52 -119 -161 -200 -310 -200z" />
    <glyph glyph-name="c.001" horiz-adv-x="733" 
d="M403 -20c-215 0 -343 168 -343 374s128 374 343 374c169 0 248 -70 248 -70v-118h-4c-69 111 -183 159 -288 159c-91 0 -256 -58 -256 -248c0 -263 189 -418 358 -418c79 0 189 24 238 153l14 -6c-52 -119 -161 -200 -310 -200z" />
    <glyph glyph-name="G_A" horiz-adv-x="1785" 
d="M939 175c0 246 400 340 400 444c0 19 -11 27 -24 27c-48 0 -78 -105 -135 -105c-28 0 -33 27 -23 53c61 161 98 260 161 426h10l320 -845c44 -110 76 -165 137 -165v-10h-328v10c141 0 136 81 98 182l-124 327c4 -32 6 -72 6 -120c0 -243 -117 -419 -316 -419
c-116 0 -182 91 -182 195zM1024 194c0 -94 59 -166 157 -166c167 0 246 205 246 369c0 74 -3 129 -21 188l-121 319l-115 -306c-13 -35 -5 -47 11 -47c46 0 83 105 136 105c19 0 33 -13 33 -39c0 -134 -326 -176 -326 -423zM60 500c0 300 196 520 445 520
c123 0 208 -20 285 -46v-134h-10s-61 168 -275 168c-207 0 -355 -216 -355 -508s162 -508 355 -508c151 0 252 111 252 147v154c0 302 -453 96 -453 263c0 78 93 106 153 106c169 0 369 -176 512 -176c63 0 141 28 162 59l5 -7c-17 -27 -53 -106 -167 -106
c-198 0 -355 187 -535 187c-62 0 -119 -17 -119 -68c0 -139 528 49 528 -258v-156c-60 -100 -195 -157 -338 -157c-249 0 -445 220 -445 520z" />
    <glyph glyph-name="AE" unicode="&#xc6;" horiz-adv-x="1251" 
d="M30 175c0 246 400 340 400 444c0 19 -11 27 -24 27c-48 0 -78 -105 -135 -105c-28 0 -41 32 -23 53c142 163 233 265 349 406h624v-135h-10v4c0 67 -132 121 -362 121h-166v-430c29 29 70 46 116 46c99 0 154 -62 242 -62c38 0 74 22 74 57h10c0 -59 -49 -110 -128 -110
c-122 0 -173 86 -244 88c-29 1 -54 -14 -70 -35v-534h128c95 0 400 11 400 155h10v-165h-716v10c86 0 92 71 92 268v31c-41 -195 -212 -329 -385 -329c-116 0 -182 91 -182 195zM115 194c0 -94 59 -166 157 -166c167 0 325 205 325 369v577l-331 -376c-29 -32 -7 -47 6 -47
c46 0 83 105 136 105c19 0 33 -13 33 -39c0 -134 -326 -176 -326 -423z" />
    <glyph glyph-name="g_y" horiz-adv-x="1401" 
d="M336 -435c-183 0 -316 76 -316 224c0 88 77 147 155 147c92 0 129 -44 222 -44c24 0 70 13 60 50l4 1c38 -48 2 -134 -84 -134c-74 0 -113 44 -204 44c-45 0 -94 -34 -94 -83c0 -117 108 -195 259 -195c154 0 296 124 296 295c0 104 -89 180 -223 180
c-82 0 -102 -18 -179 -18c-40 0 -84 18 -84 58c0 146 424 19 424 365c0 135 -80 261 -216 261s-217 -129 -217 -264c0 -136 94 -227 207 -227v-9c-17 -3 -34 -4 -50 -4c-146 0 -243 112 -243 240c0 142 113 276 303 276h430c45 0 72 -41 84 -80c53 -172 92 -307 154 -501
c18 -56 44 -83 73 -87c51 160 94 294 131 421c23 80 44 217 -68 217h-22v10h263v-10h-17c-69 0 -118 -134 -137 -195c-48 -157 -98 -319 -163 -523c-27 -77 -140 -395 -230 -395h-135v10c121 0 303 222 353 385c-26 1 -91 22 -138 167c-53 165 -90 293 -132 428
c-19 61 -43 143 -115 143h-245c137 -34 216 -147 216 -266c0 -365 -499 -236 -499 -360c0 -33 39 -50 73 -50c95 0 160 48 255 48c118 0 222 -92 222 -212c0 -174 -141 -313 -373 -313z" />
    <glyph glyph-name="g_v" horiz-adv-x="1395" 
d="M336 -435c-183 0 -316 76 -316 224c0 88 77 147 155 147c92 0 129 -44 222 -44c24 0 70 13 60 50l4 1c38 -48 2 -134 -84 -134c-74 0 -113 44 -204 44c-45 0 -94 -34 -94 -83c0 -117 108 -195 259 -195c154 0 296 124 296 295c0 104 -89 180 -223 180
c-82 0 -102 -18 -179 -18c-40 0 -84 18 -84 58c0 146 424 19 424 365c0 135 -80 261 -216 261s-217 -129 -217 -264c0 -136 94 -227 207 -227v-9c-17 -3 -34 -4 -50 -4c-146 0 -243 112 -243 240c0 142 113 276 303 276h414c66 0 88 -62 100 -101c53 -172 86 -287 148 -481
c18 -56 44 -83 73 -87c51 160 94 294 131 421c23 80 44 217 -68 217h-22v10h263v-10h-17c-69 0 -118 -133 -137 -195c-48 -156 -98 -319 -163 -523c0 0 -91 -19 -150 167c-53 166 -84 274 -126 408c-19 61 -43 164 -115 164h-245c137 -34 216 -147 216 -266
c0 -365 -499 -236 -499 -360c0 -33 39 -50 73 -50c95 0 160 48 255 48c118 0 222 -92 222 -212c0 -174 -141 -313 -373 -313z" />
    <glyph glyph-name="Aring" unicode="&#xc5;" horiz-adv-x="876" 
d="M30 175c0 246 400 340 400 444c0 19 -11 27 -24 27c-48 0 -78 -105 -135 -105c-28 0 -33 27 -23 53c61 161 98 260 161 426h10l320 -845c44 -110 76 -165 137 -165v-10h-328v10c141 0 136 81 98 182l-124 327c4 -32 6 -72 6 -120c0 -243 -117 -419 -316 -419
c-116 0 -182 91 -182 195zM441 617c0 -134 -326 -176 -326 -423c0 -94 59 -166 157 -166c167 0 246 205 246 369c0 74 -3 129 -21 188l-121 319l-115 -306c-13 -35 -5 -47 11 -47c46 0 83 105 136 105c19 0 33 -13 33 -39zM349 1144c0 36 29 65 65 65c35 0 64 -29 64 -65
c0 -35 -29 -64 -64 -64c-36 0 -65 29 -65 64zM360 1144c0 -29 24 -53 54 -53c29 0 53 24 53 53c0 30 -24 54 -53 54c-30 0 -54 -24 -54 -54z" />
    <glyph glyph-name="Adieresis" unicode="&#xc4;" horiz-adv-x="876" 
d="M30 175c0 246 400 340 400 444c0 19 -11 27 -24 27c-48 0 -78 -105 -135 -105c-28 0 -33 27 -23 53c61 161 98 260 161 426h10l320 -845c44 -110 76 -165 137 -165v-10h-328v10c141 0 136 81 98 182l-124 327c4 -32 6 -72 6 -120c0 -243 -117 -419 -316 -419
c-116 0 -182 91 -182 195zM441 617c0 -134 -326 -176 -326 -423c0 -94 59 -166 157 -166c167 0 246 205 246 369c0 74 -3 129 -21 188l-121 319l-115 -306c-13 -35 -5 -47 11 -47c46 0 83 105 136 105c19 0 33 -13 33 -39zM360 1080c-16 0 -30 13 -30 30c0 16 14 29 30 29
s29 -13 29 -29c0 -17 -13 -30 -29 -30zM464 1080c-17 0 -30 13 -30 30c0 16 13 29 30 29c16 0 29 -13 29 -29c0 -17 -13 -30 -29 -30z" />
    <glyph glyph-name="Atilde" unicode="&#xc3;" horiz-adv-x="876" 
d="M30 175c0 246 400 340 400 444c0 19 -11 27 -24 27c-48 0 -78 -105 -135 -105c-28 0 -33 27 -23 53c61 161 98 260 161 426h10l320 -845c44 -110 76 -165 137 -165v-10h-328v10c141 0 136 81 98 182l-124 327c4 -32 6 -72 6 -120c0 -243 -117 -419 -316 -419
c-116 0 -182 91 -182 195zM441 617c0 -134 -326 -176 -326 -423c0 -94 59 -166 157 -166c167 0 246 205 246 369c0 74 -3 129 -21 188l-121 319l-115 -306c-13 -35 -5 -47 11 -47c46 0 83 105 136 105c19 0 33 -13 33 -39zM295 1095c4 14 26 43 66 43c48 0 72 -28 117 -28
c44 0 49 20 49 20l6 -3c-8 -28 -34 -47 -70 -47c-44 0 -64 29 -120 29c-19 0 -36 -7 -43 -17z" />
    <glyph glyph-name="Acircumflex" unicode="&#xc2;" horiz-adv-x="876" 
d="M30 175c0 246 400 340 400 444c0 19 -11 27 -24 27c-48 0 -78 -105 -135 -105c-28 0 -33 27 -23 53c61 161 98 260 161 426h10l320 -845c44 -110 76 -165 137 -165v-10h-328v10c141 0 136 81 98 182l-124 327c4 -32 6 -72 6 -120c0 -243 -117 -419 -316 -419
c-116 0 -182 91 -182 195zM115 194c0 -94 59 -166 157 -166c167 0 246 205 246 369c0 74 -3 129 -21 188l-121 319l-115 -306c-13 -35 -5 -47 11 -47c46 0 83 105 136 105c19 0 33 -13 33 -39c0 -134 -326 -176 -326 -423zM307 1080l-6 10l110 86l116 -86l-6 -10l-107 46z
" />
    <glyph glyph-name="Aacute" unicode="&#xc1;" horiz-adv-x="876" 
d="M30 175c0 246 400 340 400 444c0 19 -11 27 -24 27c-48 0 -78 -105 -135 -105c-28 0 -33 27 -23 53c61 161 98 260 161 426h10l320 -845c44 -110 76 -165 137 -165v-10h-328v10c141 0 136 81 98 182l-124 327c4 -32 6 -72 6 -120c0 -243 -117 -419 -316 -419
c-116 0 -182 91 -182 195zM441 617c0 -134 -326 -176 -326 -423c0 -94 59 -166 157 -166c167 0 246 205 246 369c0 74 -3 129 -21 188l-121 319l-115 -306c-13 -35 -5 -47 11 -47c46 0 83 105 136 105c19 0 33 -13 33 -39zM392 1080h-76v10h32c86 0 86 85 133 85
c18 0 28 -13 28 -27c0 -41 -67 -68 -117 -68z" />
    <glyph glyph-name="Agrave" unicode="&#xc0;" horiz-adv-x="876" 
d="M30 175c0 246 400 340 400 444c0 19 -11 27 -24 27c-48 0 -78 -105 -135 -105c-28 0 -33 27 -23 53c61 161 98 260 161 426h10l320 -845c44 -110 76 -165 137 -165v-10h-328v10c141 0 136 81 98 182l-124 327c4 -32 6 -72 6 -120c0 -243 -117 -419 -316 -419
c-116 0 -182 91 -182 195zM441 617c0 -134 -326 -176 -326 -423c0 -94 59 -166 157 -166c167 0 246 205 246 369c0 74 -3 129 -21 188l-121 319l-115 -306c-13 -35 -5 -47 11 -47c46 0 83 105 136 105c19 0 33 -13 33 -39zM433 1080c-50 0 -117 27 -117 68c0 14 10 27 28 27
c47 0 47 -85 133 -85h32v-10h-76z" />
    <glyph glyph-name="Ccedilla" unicode="&#xc7;" horiz-adv-x="832" 
d="M483 -19c-238 12 -423 228 -423 519c0 300 196 520 445 520c229 0 307 -119 307 -210c0 -208 -283 -282 -283 -401c0 -31 10 -48 30 -65c-54 -12 -87 47 -87 93c0 176 281 235 281 381c0 119 -81 190 -248 190c-207 0 -355 -216 -355 -508s162 -508 355 -508
c222 0 285 168 285 168h11v-134c-106 -34 -197 -46 -308 -46l-32 -60c12 9 25 14 41 14c92 0 86 -140 -32 -140c-13 0 -26 5 -33 11l4 8c5 -4 15 -6 23 -6c75 0 86 115 29 115c-14 0 -26 -7 -34 -14l-8 12z" />
    <glyph glyph-name="Egrave" unicode="&#xc8;" horiz-adv-x="776" 
d="M30 10c86 0 92 71 92 268v444c0 197 -6 268 -92 268v10h716v-135h-10v4c0 67 -132 121 -362 121h-166v-430c30 29 70 46 116 46c99 0 154 -62 242 -62c38 0 74 22 74 57h10c0 -59 -49 -110 -128 -110c-122 0 -173 86 -244 88c-29 1 -54 -14 -70 -35v-534h128
c95 0 400 11 400 155h10v-165h-716v10zM299 1148c0 14 10 27 28 27c47 0 47 -85 133 -85h32v-10h-76c-50 0 -117 27 -117 68z" />
    <glyph glyph-name="Eacute" unicode="&#xc9;" horiz-adv-x="776" 
d="M746 0h-716v10c86 0 92 71 92 268v444c0 197 -6 268 -92 268v10h716v-135h-10v4c0 67 -132 121 -362 121h-166v-430c30 29 70 46 116 46c99 0 154 -62 242 -62c38 0 74 22 74 57h10c0 -59 -49 -110 -128 -110c-122 0 -173 86 -244 88c-29 1 -54 -14 -70 -35v-534h128
c95 0 400 11 400 155h10v-165zM299 1090h32c86 0 86 85 133 85c18 0 28 -13 28 -27c0 -41 -67 -68 -117 -68h-76v10z" />
    <glyph glyph-name="Ecircumflex" unicode="&#xca;" horiz-adv-x="776" 
d="M30 990v10h716v-135h-10v4c0 67 -132 121 -362 121h-166v-430c30 29 70 46 116 46c99 0 154 -62 242 -62c38 0 74 22 74 57h10c0 -59 -49 -110 -128 -110c-122 0 -173 86 -244 88c-29 1 -54 -14 -70 -35v-534h128c95 0 400 11 400 155h10v-165h-716v10c86 0 92 71 92 268
v444c0 197 -6 268 -92 268zM290 1080l-6 10l110 86l116 -86l-6 -10l-107 46z" />
    <glyph glyph-name="Edieresis" unicode="&#xcb;" horiz-adv-x="776" 
d="M30 0v10c86 0 92 71 92 268v444c0 197 -6 268 -92 268v10h716v-135h-10v4c0 67 -132 121 -362 121h-166v-430c30 29 70 46 116 46c99 0 154 -62 242 -62c38 0 74 22 74 57h10c0 -59 -49 -110 -128 -110c-122 0 -173 86 -244 88c-29 1 -54 -14 -70 -35v-534h128
c95 0 400 11 400 155h10v-165h-716zM343 1080c-16 0 -30 13 -30 30c0 16 14 29 30 29s29 -13 29 -29c0 -17 -13 -30 -29 -30zM447 1080c-17 0 -30 13 -30 30c0 16 13 29 30 29c16 0 29 -13 29 -29c0 -17 -13 -30 -29 -30z" />
    <glyph glyph-name="Igrave" unicode="&#xcc;" 
d="M30 990v10h270v-10c-86 0 -92 -71 -92 -268v-444c0 -197 6 -268 92 -268v-10h-270v10c86 0 92 71 92 268v444c0 197 -6 268 -92 268zM183 1080c-50 0 -117 27 -117 68c0 14 10 27 28 27c47 0 47 -85 133 -85h32v-10h-76z" />
    <glyph glyph-name="Iacute" unicode="&#xcd;" 
d="M30 0v10c86 0 92 71 92 268v444c0 197 -6 268 -92 268v10h270v-10c-86 0 -92 -71 -92 -268v-444c0 -197 6 -268 92 -268v-10h-270zM66 1080v10h32c86 0 86 85 133 85c18 0 28 -13 28 -27c0 -41 -67 -68 -117 -68h-76z" />
    <glyph glyph-name="Icircumflex" unicode="&#xce;" 
d="M30 990v10h270v-10c-86 0 -92 -71 -92 -268v-444c0 -197 6 -268 92 -268v-10h-270v10c86 0 92 71 92 268v444c0 197 -6 268 -92 268zM56 1080l-6 10l110 86l116 -86l-6 -10l-107 46z" />
    <glyph glyph-name="Idieresis" unicode="&#xcf;" 
d="M30 990v10h270v-10c-86 0 -92 -71 -92 -268v-444c0 -197 6 -268 92 -268v-10h-270v10c86 0 92 71 92 268v444c0 197 -6 268 -92 268zM80 1110c0 16 13 29 29 29c17 0 30 -13 30 -29c0 -17 -13 -30 -30 -30c-16 0 -29 13 -29 30zM184 1110c0 16 13 29 29 29s30 -13 30 -29
c0 -17 -14 -30 -30 -30s-29 13 -29 30z" />
    <glyph glyph-name="Eth" unicode="&#xd0;" horiz-adv-x="903" 
d="M-20 550h142v172c0 197 -6 268 -92 268v10h80c105 0 191 20 279 20c308 0 454 -246 454 -520s-146 -520 -454 -520c-88 0 -174 20 -279 20h-80v10c86 0 92 71 92 268v252h-142v20zM207 550h199v-20h-199v-508c58 -18 116 -28 181 -28c247 0 369 233 369 506
s-122 506 -369 506c-65 0 -123 -10 -181 -28v-428z" />
    <glyph glyph-name="Ograve" unicode="&#xd2;" horiz-adv-x="1010" 
d="M60 500c0 300 196 520 445 520s445 -220 445 -520s-196 -520 -445 -520s-445 220 -445 520zM150 500c0 -292 162 -508 355 -508s355 216 355 508s-148 508 -355 508s-355 -216 -355 -508zM408 1148c0 14 10 27 28 27c47 0 47 -85 133 -85h32v-10h-76
c-50 0 -117 27 -117 68z" />
    <glyph glyph-name="Oacute" unicode="&#xd3;" horiz-adv-x="1010" 
d="M60 500c0 300 196 520 445 520s445 -220 445 -520s-196 -520 -445 -520s-445 220 -445 520zM505 1008c-207 0 -355 -216 -355 -508s162 -508 355 -508s355 216 355 508s-148 508 -355 508zM484 1080h-76v10h32c86 0 86 85 133 85c18 0 28 -13 28 -27
c0 -41 -67 -68 -117 -68z" />
    <glyph glyph-name="Ocircumflex" unicode="&#xd4;" horiz-adv-x="1010" 
d="M60 500c0 300 196 520 445 520s445 -220 445 -520s-196 -520 -445 -520s-445 220 -445 520zM505 1008c-207 0 -355 -216 -355 -508s162 -508 355 -508s355 216 355 508s-148 508 -355 508zM398 1080l-6 10l110 86l116 -86l-6 -10l-107 46z" />
    <glyph glyph-name="Otilde" unicode="&#xd5;" horiz-adv-x="1010" 
d="M60 500c0 300 196 520 445 520s445 -220 445 -520s-196 -520 -445 -520s-445 220 -445 520zM505 1008c-207 0 -355 -216 -355 -508s162 -508 355 -508s355 216 355 508s-148 508 -355 508zM386 1095c4 14 26 43 66 43c48 0 72 -28 117 -28c44 0 49 20 49 20l6 -3
c-8 -28 -34 -47 -70 -47c-44 0 -64 29 -120 29c-19 0 -36 -7 -43 -17z" />
    <glyph glyph-name="Odieresis" unicode="&#xd6;" horiz-adv-x="1010" 
d="M505 -20c-249 0 -445 220 -445 520s196 520 445 520s445 -220 445 -520s-196 -520 -445 -520zM150 500c0 -292 162 -508 355 -508s355 216 355 508s-148 508 -355 508s-355 -216 -355 -508zM451 1080c-16 0 -29 13 -29 30c0 16 13 29 29 29c17 0 30 -13 30 -29
c0 -17 -13 -30 -30 -30zM555 1080c-16 0 -29 13 -29 30c0 16 13 29 29 29s30 -13 30 -29c0 -17 -14 -30 -30 -30z" />
    <glyph glyph-name="Oslash" unicode="&#xd8;" horiz-adv-x="1010" 
d="M347 11c-169 71 -287 256 -287 489c0 300 196 520 445 520c52 0 102 -10 148 -28l9 28h10l-10 -31c170 -71 288 -256 288 -489c0 -300 -196 -520 -445 -520c-52 0 -102 10 -149 28l-8 -28h-10zM505 1008c-207 0 -355 -216 -355 -508c0 -212 85 -384 206 -462l291 932
c-43 25 -91 38 -142 38zM364 33c44 -27 91 -41 141 -41c193 0 355 216 355 508c0 215 -80 389 -205 465z" />
    <glyph glyph-name="Ugrave" unicode="&#xd9;" horiz-adv-x="916" 
d="M30 1000h270v-10c-86 0 -92 -71 -92 -268v-444c0 -194 110 -288 252 -288s248 95 248 288v444c0 197 -6 268 -92 268v10h270v-10c-86 0 -92 -71 -92 -268v-444c0 -200 -150 -298 -334 -298s-338 96 -338 298v444c0 197 -6 268 -92 268v10zM362 1148c0 14 10 27 28 27
c47 0 47 -85 133 -85h32v-10h-76c-50 0 -117 27 -117 68z" />
    <glyph glyph-name="Uacute" unicode="&#xda;" horiz-adv-x="916" 
d="M30 990v10h270v-10c-86 0 -92 -71 -92 -268v-444c0 -194 110 -288 252 -288s248 95 248 288v444c0 197 -6 268 -92 268v10h270v-10c-86 0 -92 -71 -92 -268v-444c0 -200 -150 -298 -334 -298s-338 96 -338 298v444c0 197 -6 268 -92 268zM362 1090h32c86 0 86 85 133 85
c18 0 28 -13 28 -27c0 -41 -67 -68 -117 -68h-76v10z" />
    <glyph glyph-name="Ucircumflex" unicode="&#xdb;" horiz-adv-x="916" 
d="M30 1000h270v-10c-86 0 -92 -71 -92 -268v-444c0 -194 110 -288 252 -288s248 95 248 288v444c0 197 -6 268 -92 268v10h270v-10c-86 0 -92 -71 -92 -268v-444c0 -200 -150 -298 -334 -298s-338 96 -338 298v444c0 197 -6 268 -92 268v10zM352 1080l-6 10l110 86l116 -86
l-6 -10l-107 46z" />
    <glyph glyph-name="Udieresis" unicode="&#xdc;" horiz-adv-x="916" 
d="M30 990v10h270v-10c-86 0 -92 -71 -92 -268v-444c0 -194 110 -288 252 -288s248 95 248 288v444c0 197 -6 268 -92 268v10h270v-10c-86 0 -92 -71 -92 -268v-444c0 -200 -150 -298 -334 -298s-338 96 -338 298v444c0 197 -6 268 -92 268zM509 1080c-16 0 -30 13 -30 30
c0 16 14 29 30 29s29 -13 29 -29c0 -17 -13 -30 -29 -30zM405 1080c-16 0 -29 13 -29 30c0 16 13 29 29 29s30 -13 30 -29c0 -17 -14 -30 -30 -30z" />
    <glyph glyph-name="Yacute" unicode="&#xdd;" horiz-adv-x="818" 
d="M0 990v10h278v-10h-22c-28 0 -54 -13 -54 -53c0 -68 185 -372 247 -493c69 131 237 434 237 500c0 36 -28 46 -56 46h-26v10h214v-10c-76 0 -100 -75 -191 -249c-62 -116 -141 -252 -175 -318v-145c0 -197 6 -268 92 -268v-10h-270v10c86 0 92 71 92 268v145
c-34 66 -113 202 -175 318c-91 174 -115 249 -191 249zM347 1090h32c86 0 86 85 133 85c18 0 28 -13 28 -27c0 -41 -67 -68 -117 -68h-76v10z" />
    <glyph glyph-name="agrave" unicode="&#xe0;" horiz-adv-x="746" 
d="M60 202c0 352 506 237 506 402c0 81 -94 114 -175 114c-95 0 -187 -33 -187 -116c0 -38 31 -55 40 -46c10 -30 -23 -58 -56 -58c-43 0 -72 37 -72 80c0 99 118 150 275 150c113 0 260 -47 260 -126c0 -161 -503 -15 -503 -406c0 -104 66 -183 164 -183
c108 0 245 111 245 402c0 22 -2 45 -17 49c0 6 11 14 27 14c73 0 82 -76 82 -156c0 -89 1 -104 1 -210c0 -84 49 -102 76 -102v-10h-71c-53 0 -95 49 -95 124v171c-36 -172 -102 -315 -277 -315c-129 0 -223 93 -223 222zM294 856c0 14 10 27 28 27c47 0 47 -85 133 -85h32
v-10h-76c-50 0 -117 27 -117 68z" />
    <glyph glyph-name="aacute" unicode="&#xe1;" horiz-adv-x="746" 
d="M283 -20c-129 0 -223 93 -223 222c0 352 506 237 506 402c0 81 -94 114 -175 114c-95 0 -187 -33 -187 -116c0 -38 31 -55 40 -46c10 -30 -23 -58 -56 -58c-43 0 -72 37 -72 80c0 99 118 150 275 150c113 0 260 -47 260 -126c0 -161 -503 -15 -503 -406
c0 -104 66 -183 164 -183c108 0 245 111 245 402c0 22 -2 45 -17 49c0 6 11 14 27 14c73 0 82 -76 82 -156c0 -89 1 -104 1 -210c0 -84 49 -102 76 -102v-10h-71c-53 0 -95 49 -95 124v171c-36 -172 -102 -315 -277 -315zM294 788v10h32c86 0 86 85 133 85
c18 0 28 -13 28 -27c0 -41 -67 -68 -117 -68h-76z" />
    <glyph glyph-name="acircumflex" unicode="&#xe2;" horiz-adv-x="746" 
d="M283 -20c-129 0 -223 93 -223 222c0 352 506 237 506 402c0 81 -94 114 -175 114c-95 0 -187 -33 -187 -116c0 -38 31 -55 40 -46c10 -30 -23 -58 -56 -58c-43 0 -72 37 -72 80c0 99 118 150 275 150c113 0 260 -47 260 -126c0 -161 -503 -15 -503 -406
c0 -104 66 -183 164 -183c108 0 245 111 245 402c0 22 -2 45 -17 49c0 6 11 14 27 14c73 0 82 -76 82 -156c0 -89 1 -104 1 -210c0 -84 49 -102 76 -102v-10h-71c-53 0 -95 49 -95 124v171c-36 -172 -102 -315 -277 -315zM278 798l110 86l116 -86l-6 -10l-107 46l-107 -46z
" />
    <glyph glyph-name="atilde" unicode="&#xe3;" horiz-adv-x="746" 
d="M283 -20c-129 0 -223 93 -223 222c0 352 506 237 506 402c0 81 -94 114 -175 114c-95 0 -187 -33 -187 -116c0 -38 31 -55 40 -46c10 -30 -23 -58 -56 -58c-43 0 -72 37 -72 80c0 99 118 150 275 150c113 0 260 -47 260 -126c0 -161 -503 -15 -503 -406
c0 -104 66 -183 164 -183c108 0 245 111 245 402c0 22 -2 45 -17 49c0 6 11 14 27 14c73 0 82 -76 82 -156c0 -89 1 -104 1 -210c0 -84 49 -102 76 -102v-10h-71c-53 0 -95 49 -95 124v171c-36 -172 -102 -315 -277 -315zM277 800l-5 3c4 14 26 43 66 43
c48 0 72 -28 117 -28c44 0 49 20 49 20l6 -3c-8 -28 -34 -47 -70 -47c-44 0 -64 29 -120 29c-19 0 -36 -7 -43 -17z" />
    <glyph glyph-name="adieresis" unicode="&#xe4;" horiz-adv-x="746" 
d="M283 -20c-129 0 -223 93 -223 222c0 352 506 237 506 402c0 81 -94 114 -175 114c-95 0 -187 -33 -187 -116c0 -38 31 -55 40 -46c10 -30 -23 -58 -56 -58c-43 0 -72 37 -72 80c0 99 118 150 275 150c113 0 260 -47 260 -126c0 -161 -503 -15 -503 -406
c0 -104 66 -183 164 -183c108 0 245 111 245 402c0 22 -2 45 -17 49c0 6 11 14 27 14c73 0 82 -76 82 -156c0 -89 1 -104 1 -210c0 -84 49 -102 76 -102v-10h-71c-53 0 -95 49 -95 124v171c-36 -172 -102 -315 -277 -315zM308 818c0 16 13 29 29 29c17 0 30 -13 30 -29
c0 -17 -13 -30 -30 -30c-16 0 -29 13 -29 30zM441 788c-16 0 -29 13 -29 30c0 16 13 29 29 29s30 -13 30 -29c0 -17 -14 -30 -30 -30z" />
    <glyph glyph-name="aring" unicode="&#xe5;" horiz-adv-x="746" 
d="M283 -20c-129 0 -223 93 -223 222c0 352 506 237 506 402c0 81 -94 114 -175 114c-95 0 -187 -33 -187 -116c0 -38 31 -55 40 -46c10 -30 -23 -58 -56 -58c-43 0 -72 37 -72 80c0 99 118 150 275 150c113 0 260 -47 260 -126c0 -161 -503 -15 -503 -406
c0 -104 66 -183 164 -183c108 0 245 111 245 402c0 22 -2 45 -17 49c0 6 11 14 27 14c73 0 82 -76 82 -156c0 -89 1 -104 1 -210c0 -84 49 -102 76 -102v-10h-71c-53 0 -95 49 -95 124v171c-36 -172 -102 -315 -277 -315zM391 788c-36 0 -65 29 -65 64c0 36 29 65 65 65
s65 -29 65 -65c0 -35 -29 -64 -65 -64zM391 906c-29 0 -53 -24 -53 -54c0 -29 24 -53 53 -53c30 0 54 24 54 53c0 30 -24 54 -54 54z" />
    <glyph glyph-name="ccedilla" unicode="&#xe7;" horiz-adv-x="733" 
d="M60 354c0 206 128 374 343 374c169 0 277 -70 277 -70v-118h-4c-55 110 -170 176 -275 176c-203 0 -257 -218 -255 -359c2 -186 109 -343 293 -343c79 0 211 43 260 172l14 -6c-52 -118 -160 -199 -308 -200l-32 -61c12 9 25 14 41 14c92 0 86 -140 -32 -140
c-13 0 -26 5 -33 11l4 8c5 -4 15 -6 23 -6c75 0 86 115 29 115c-14 0 -26 -7 -34 -14l-8 12l32 61c-210 4 -335 170 -335 374z" />
    <glyph glyph-name="egrave" unicode="&#xe8;" horiz-adv-x="773" 
d="M60 354c0 206 128 374 343 374s307 -127 306 -228c-1 -113 -66 -181 -181 -181c-161 0 -210 89 -308 89c-24 0 -46 -17 -49 -25l-4 1c0 41 36 80 105 80c105 0 183 -133 263 -133c148 0 152 385 -134 385c-203 0 -257 -218 -255 -359c2 -186 109 -343 293 -343
c79 0 211 43 260 172l14 -6c-52 -119 -161 -200 -310 -200c-215 0 -343 168 -343 374zM314 856c0 14 10 27 28 27c47 0 47 -85 133 -85h32v-10h-76c-50 0 -117 27 -117 68z" />
    <glyph glyph-name="eacute" unicode="&#xe9;" horiz-adv-x="773" 
d="M403 -20c-215 0 -343 168 -343 374s128 374 343 374s307 -127 306 -228c-1 -113 -66 -181 -181 -181c-161 0 -210 89 -308 89c-24 0 -46 -17 -49 -25l-4 1c0 41 36 80 105 80c105 0 183 -133 263 -133c148 0 152 385 -134 385c-203 0 -257 -218 -255 -359
c2 -186 109 -343 293 -343c79 0 211 43 260 172l14 -6c-52 -119 -161 -200 -310 -200zM314 788v10h32c86 0 86 85 133 85c18 0 28 -13 28 -27c0 -41 -67 -68 -117 -68h-76z" />
    <glyph glyph-name="ecircumflex" unicode="&#xea;" horiz-adv-x="773" 
d="M403 -20c-215 0 -343 168 -343 374s128 374 343 374s307 -127 306 -228c-1 -113 -66 -181 -181 -181c-161 0 -210 89 -308 89c-24 0 -46 -17 -49 -25l-4 1c0 41 36 80 105 80c105 0 183 -133 263 -133c148 0 152 385 -134 385c-203 0 -257 -218 -255 -359
c2 -186 109 -343 293 -343c79 0 211 43 260 172l14 -6c-52 -119 -161 -200 -310 -200zM304 788l-6 10l110 86l116 -86l-6 -10l-107 46z" />
    <glyph glyph-name="edieresis" unicode="&#xeb;" horiz-adv-x="773" 
d="M60 354c0 206 128 374 343 374s307 -127 306 -228c-1 -113 -66 -181 -181 -181c-161 0 -210 89 -308 89c-24 0 -46 -17 -49 -25l-4 1c0 41 36 80 105 80c105 0 183 -133 263 -133c148 0 152 385 -134 385c-203 0 -257 -218 -255 -359c2 -186 109 -343 293 -343
c79 0 211 43 260 172l14 -6c-52 -119 -161 -200 -310 -200c-215 0 -343 168 -343 374zM461 788c-16 0 -29 13 -29 30c0 16 13 29 29 29c17 0 30 -13 30 -29c0 -17 -13 -30 -30 -30zM358 788c-17 0 -30 13 -30 30c0 16 13 29 30 29c16 0 29 -13 29 -29c0 -17 -13 -30 -29 -30
z" />
    <glyph glyph-name="igrave" unicode="&#xec;" 
d="M30 0v10c86 0 92 71 92 268v152c0 197 -6 268 -92 268v10h178v-430c0 -197 6 -268 92 -268v-10h-270zM59 856c0 14 10 27 28 27c47 0 47 -85 133 -85h32v-10h-76c-50 0 -117 27 -117 68z" />
    <glyph glyph-name="iacute" unicode="&#xed;" 
d="M30 698v10h178v-430c0 -197 6 -268 92 -268v-10h-270v10c86 0 92 71 92 268v152c0 197 -6 268 -92 268zM59 798h32c86 0 86 85 133 85c18 0 28 -13 28 -27c0 -41 -67 -68 -117 -68h-76v10z" />
    <glyph glyph-name="icircumflex" unicode="&#xee;" 
d="M30 708h178v-430c0 -197 6 -268 92 -268v-10h-270v10c86 0 92 71 92 268v152c0 197 -6 268 -92 268v10zM49 788l-6 10l110 86l116 -86l-6 -10l-107 46z" />
    <glyph glyph-name="idieresis" unicode="&#xef;" 
d="M300 0h-270v10c86 0 92 71 92 268v152c0 197 -6 268 -92 268v10h178v-430c0 -197 6 -268 92 -268v-10zM103 788c-17 0 -30 13 -30 30c0 16 13 29 30 29c16 0 29 -13 29 -29c0 -17 -13 -30 -29 -30zM177 818c0 16 13 29 29 29c17 0 30 -13 30 -29c0 -17 -13 -30 -30 -30
c-16 0 -29 13 -29 30z" />
    <glyph glyph-name="eth" unicode="&#xf0;" horiz-adv-x="605" 
 />
    <glyph glyph-name="ntilde" unicode="&#xf1;" horiz-adv-x="787" 
d="M30 10c86 0 92 71 92 268v152c0 197 -6 268 -92 268v10h114c82 0 207 20 264 20c89 0 267 -13 267 -223v-227c0 -197 6 -268 92 -268v-10h-270v10c86 0 92 71 92 268c0 30 -1 206 -1 206c0 224 -157 230 -225 230c-51 0 -107 -12 -155 -29v-407c0 -197 6 -268 92 -268
v-10h-270v10zM257 803c4 14 26 43 66 43c48 0 72 -28 117 -28c44 0 49 20 49 20l6 -3c-8 -28 -34 -47 -70 -47c-44 0 -64 29 -120 29c-19 0 -36 -7 -43 -17z" />
    <glyph glyph-name="ograve" unicode="&#xf2;" horiz-adv-x="808" 
d="M403 -20c-215 0 -343 168 -343 374s128 374 343 374s345 -168 345 -374s-130 -374 -345 -374zM403 716c-155 0 -258 -142 -258 -362s103 -362 258 -362s260 142 260 362s-105 362 -260 362zM306 856c0 14 10 27 28 27c47 0 47 -85 133 -85h32v-10h-76
c-50 0 -117 27 -117 68z" />
    <glyph glyph-name="oacute" unicode="&#xf3;" horiz-adv-x="808" 
d="M403 -20c-215 0 -343 168 -343 374s128 374 343 374s345 -168 345 -374s-130 -374 -345 -374zM403 716c-155 0 -258 -142 -258 -362s103 -362 258 -362s260 142 260 362s-105 362 -260 362zM306 798h32c86 0 86 85 133 85c18 0 28 -13 28 -27c0 -41 -67 -68 -117 -68h-76
v10z" />
    <glyph glyph-name="ocircumflex" unicode="&#xf4;" horiz-adv-x="808" 
d="M403 -20c-215 0 -343 168 -343 374s128 374 343 374s345 -168 345 -374s-130 -374 -345 -374zM403 716c-155 0 -258 -142 -258 -362s103 -362 258 -362s260 142 260 362s-105 362 -260 362zM296 788l-6 10l110 86l116 -86l-6 -10l-107 46z" />
    <glyph glyph-name="otilde" unicode="&#xf5;" horiz-adv-x="808" 
d="M403 -20c-215 0 -343 168 -343 374s128 374 343 374s345 -168 345 -374s-130 -374 -345 -374zM145 354c0 -220 103 -362 258 -362s260 142 260 362s-105 362 -260 362s-258 -142 -258 -362zM284 803c4 14 26 43 66 43c48 0 72 -28 117 -28c44 0 49 20 49 20l6 -3
c-8 -28 -34 -47 -70 -47c-44 0 -64 29 -120 29c-19 0 -36 -7 -43 -17z" />
    <glyph glyph-name="odieresis" unicode="&#xf6;" horiz-adv-x="808" 
d="M403 -20c-215 0 -343 168 -343 374s128 374 343 374s345 -168 345 -374s-130 -374 -345 -374zM145 354c0 -220 103 -362 258 -362s260 142 260 362s-105 362 -260 362s-258 -142 -258 -362zM424 818c0 16 13 29 30 29c16 0 29 -13 29 -29c0 -17 -13 -30 -29 -30
c-17 0 -30 13 -30 30zM320 818c0 16 13 29 30 29c16 0 29 -13 29 -29c0 -17 -13 -30 -29 -30c-17 0 -30 13 -30 30z" />
    <glyph glyph-name="ydieresis" unicode="&#xff;" horiz-adv-x="732" 
d="M0 708h123c45 0 72 -41 84 -80c53 -172 86 -287 148 -481c18 -56 44 -83 73 -87c51 160 94 294 131 421c23 80 44 217 -68 217h-22v10h263v-10h-17c-69 0 -118 -134 -137 -195c-49 -157 -98 -319 -163 -523c-27 -77 -140 -395 -230 -395h-135v10c122 0 303 222 353 385
c-26 1 -91 22 -138 167c-53 165 -84 273 -126 408c-19 61 -43 143 -115 143h-24v10zM267 818c0 16 14 29 30 29s30 -13 30 -29c0 -17 -14 -30 -30 -30s-30 13 -30 30zM371 818c0 16 13 29 30 29c16 0 29 -13 29 -29c0 -17 -13 -30 -29 -30c-17 0 -30 13 -30 30z" />
    <glyph glyph-name="yacute" unicode="&#xfd;" horiz-adv-x="732" 
d="M0 708h123c45 0 72 -41 84 -80c53 -172 86 -287 148 -481c18 -56 44 -83 73 -87c51 160 94 294 131 421c23 80 44 217 -68 217h-22v10h263v-10h-17c-69 0 -118 -134 -137 -195c-49 -157 -98 -319 -163 -523c-27 -77 -140 -395 -230 -395h-135v10c122 0 303 222 353 385
c-26 1 -91 22 -138 167c-53 165 -84 273 -126 408c-19 61 -43 143 -115 143h-24v10zM253 798h32c86 0 86 85 133 85c18 0 28 -13 28 -27c0 -41 -67 -68 -117 -68h-76v10z" />
    <glyph glyph-name="udieresis" unicode="&#xfc;" horiz-adv-x="777" 
d="M20 698v10h178c0 -30 1 -484 1 -484c0 -224 157 -230 225 -230c51 0 107 12 155 29v407c0 197 -6 268 -92 268v10h178v-430c0 -197 6 -268 92 -268v-10h-114c-82 0 -207 -20 -264 -20c-89 0 -267 13 -267 223v227c0 197 -6 268 -92 268zM388 818c0 16 14 29 30 29
s29 -13 29 -29c0 -17 -13 -30 -29 -30s-30 13 -30 30zM285 818c0 16 13 29 29 29s30 -13 30 -29c0 -17 -14 -30 -30 -30s-29 13 -29 30z" />
    <glyph glyph-name="ucircumflex" unicode="&#xfb;" horiz-adv-x="777" 
d="M20 698v10h178c0 -30 1 -484 1 -484c0 -224 157 -230 225 -230c51 0 107 12 155 29v407c0 197 -6 268 -92 268v10h178v-430c0 -197 6 -268 92 -268v-10h-114c-82 0 -207 -20 -264 -20c-89 0 -267 13 -267 223v227c0 197 -6 268 -92 268zM261 788l-6 10l110 86l116 -86
l-6 -10l-107 46z" />
    <glyph glyph-name="uacute" unicode="&#xfa;" horiz-adv-x="777" 
d="M20 698v10h178c0 -30 1 -484 1 -484c0 -224 157 -230 225 -230c51 0 107 12 155 29v407c0 197 -6 268 -92 268v10h178v-430c0 -197 6 -268 92 -268v-10h-114c-82 0 -207 -20 -264 -20c-89 0 -267 13 -267 223v227c0 197 -6 268 -92 268zM347 788h-76v10h32
c86 0 86 85 133 85c18 0 28 -13 28 -27c0 -41 -67 -68 -117 -68z" />
    <glyph glyph-name="ugrave" unicode="&#xf9;" horiz-adv-x="777" 
d="M20 698v10h178c0 -30 1 -484 1 -484c0 -224 157 -230 225 -230c51 0 107 12 155 29v407c0 197 -6 268 -92 268v10h178v-430c0 -197 6 -268 92 -268v-10h-114c-82 0 -207 -20 -264 -20c-89 0 -267 13 -267 223v227c0 197 -6 268 -92 268zM388 788c-50 0 -117 27 -117 68
c0 14 10 27 28 27c47 0 47 -85 133 -85h32v-10h-76z" />
    <glyph glyph-name="oslash" unicode="&#xf8;" horiz-adv-x="808" 
d="M179 61c-77 69 -119 175 -119 293c0 206 128 374 343 374c76 0 141 -21 194 -57l39 57h10l-43 -62c93 -67 145 -182 145 -312c0 -206 -130 -374 -345 -374c-88 0 -162 28 -218 76l-52 -76h-10zM580 632l-368 -536c45 -67 111 -104 191 -104c155 0 260 142 260 362
c0 119 -31 215 -83 278zM207 103l367 536c-44 49 -103 77 -171 77c-155 0 -258 -142 -258 -362c0 -103 22 -189 62 -251z" />
    <glyph glyph-name="Amacron" unicode="&#x100;" horiz-adv-x="876" 
d="M30 175c0 246 400 340 400 444c0 19 -11 27 -24 27c-48 0 -78 -105 -135 -105c-28 0 -33 27 -23 53c61 161 98 260 161 426h10l320 -845c44 -110 76 -165 137 -165v-10h-328v10c141 0 136 81 98 182l-124 327c4 -32 6 -72 6 -120c0 -243 -117 -419 -316 -419
c-116 0 -182 91 -182 195zM115 194c0 -94 59 -166 157 -166c167 0 246 205 246 369c0 74 -3 129 -21 188l-121 319l-115 -306c-13 -35 -5 -47 11 -47c46 0 83 105 136 105c19 0 33 -13 33 -39c0 -134 -326 -176 -326 -423zM306 1102h215v-22h-215v22z" />
    <glyph glyph-name="amacron" unicode="&#x101;" horiz-adv-x="746" 
d="M283 -20c-129 0 -223 93 -223 222c0 352 506 237 506 402c0 81 -94 114 -175 114c-95 0 -187 -33 -187 -116c0 -38 31 -55 40 -46c10 -30 -23 -58 -56 -58c-43 0 -72 37 -72 80c0 99 118 150 275 150c113 0 260 -47 260 -126c0 -161 -503 -15 -503 -406
c0 -104 66 -183 164 -183c108 0 245 111 245 402c0 22 -2 45 -17 49c0 6 11 14 27 14c73 0 82 -76 82 -156c0 -89 1 -104 1 -210c0 -84 49 -102 76 -102v-10h-71c-53 0 -95 49 -95 124v171c-36 -172 -102 -315 -277 -315zM284 788v22h215v-22h-215z" />
    <glyph glyph-name="Abreve" unicode="&#x102;" horiz-adv-x="876" 
d="M30 175c0 246 400 340 400 444c0 19 -11 27 -24 27c-48 0 -78 -105 -135 -105c-28 0 -33 27 -23 53c61 161 98 260 161 426h10l320 -845c44 -110 76 -165 137 -165v-10h-328v10c141 0 136 81 98 182l-124 327c4 -32 6 -72 6 -120c0 -243 -117 -419 -316 -419
c-116 0 -182 91 -182 195zM115 194c0 -94 59 -166 157 -166c167 0 246 205 246 369c0 74 -3 129 -21 188l-121 319l-115 -306c-13 -35 -5 -47 11 -47c46 0 83 105 136 105c19 0 33 -13 33 -39c0 -134 -326 -176 -326 -423zM414 1080c-55 0 -101 38 -110 86h8
c21 -35 56 -56 102 -56c45 0 80 21 101 56h9c-10 -48 -56 -86 -110 -86z" />
    <glyph glyph-name="abreve" unicode="&#x103;" horiz-adv-x="746" 
d="M60 202c0 352 506 237 506 402c0 81 -94 114 -175 114c-95 0 -187 -33 -187 -116c0 -38 31 -55 40 -46c10 -30 -23 -58 -56 -58c-43 0 -72 37 -72 80c0 99 118 150 275 150c113 0 260 -47 260 -126c0 -161 -503 -15 -503 -406c0 -104 66 -183 164 -183
c108 0 245 111 245 402c0 22 -2 45 -17 49c0 6 11 14 27 14c73 0 82 -76 82 -156c0 -89 1 -104 1 -210c0 -84 49 -102 76 -102v-10h-71c-53 0 -95 49 -95 124v171c-36 -172 -102 -315 -277 -315c-129 0 -223 93 -223 222zM281 874h9c21 -35 56 -56 101 -56s80 21 101 56h9
c-9 -48 -56 -86 -110 -86s-101 38 -110 86z" />
    <glyph glyph-name="Aogonek" unicode="&#x104;" horiz-adv-x="876" 
d="M30 175c0 246 400 340 400 444c0 19 -11 27 -24 27c-48 0 -78 -105 -135 -105c-28 0 -33 27 -23 53c61 161 98 260 161 426h10l320 -845c44 -110 76 -165 137 -165v-10h-147c-55 0 -90 -41 -90 -83c0 -35 14 -65 49 -65c16 0 31 15 23 30l2 2s16 -5 16 -23
c0 -25 -18 -46 -50 -46c-43 0 -69 37 -69 74c0 51 41 97 89 111h-151v10c141 0 136 81 98 182l-124 327c4 -32 6 -72 6 -120c0 -243 -117 -419 -316 -419c-116 0 -182 91 -182 195zM115 194c0 -94 59 -166 157 -166c167 0 246 205 246 369c0 74 -3 129 -21 188l-121 319
l-115 -306c-13 -35 -5 -47 11 -47c46 0 83 105 136 105c19 0 33 -13 33 -39c0 -134 -326 -176 -326 -423z" />
    <glyph glyph-name="aogonek" unicode="&#x105;" horiz-adv-x="746" 
d="M60 202c0 352 506 237 506 402c0 81 -94 114 -175 114c-95 0 -187 -33 -187 -116c0 -38 31 -55 40 -46c10 -30 -23 -58 -56 -58c-43 0 -72 37 -72 80c0 99 118 150 275 150c113 0 260 -47 260 -126c0 -161 -503 -15 -503 -406c0 -104 66 -183 164 -183
c108 0 245 111 245 402c0 22 -2 45 -17 49c0 6 11 14 27 14c73 0 82 -76 82 -156c0 -89 1 -104 1 -210c0 -84 49 -102 76 -102v-10h-65c-55 0 -90 -41 -90 -83c0 -35 14 -65 49 -65c16 0 31 15 23 30l2 2s16 -5 16 -23c0 -25 -18 -46 -50 -46c-43 0 -69 37 -69 74
c0 53 45 101 96 113c-45 9 -78 55 -78 122v171c-36 -172 -102 -315 -277 -315c-129 0 -223 93 -223 222z" />
    <glyph glyph-name="Cacute" unicode="&#x106;" horiz-adv-x="832" 
d="M60 500c0 300 196 520 445 520c229 0 307 -119 307 -210c0 -208 -283 -282 -283 -401c0 -31 10 -48 30 -65c-54 -12 -87 47 -87 93c0 176 281 235 281 381c0 119 -81 190 -248 190c-207 0 -355 -216 -355 -508s162 -508 355 -508c222 0 285 168 285 168h11v-134
c-80 -26 -168 -46 -296 -46c-249 0 -445 220 -445 520zM396 1090h32c86 0 86 85 133 85c18 0 28 -13 28 -27c0 -41 -67 -68 -117 -68h-76v10z" />
    <glyph glyph-name="cacute" unicode="&#x107;" horiz-adv-x="733" 
d="M60 354c0 206 128 374 343 374c169 0 277 -70 277 -70v-118h-4c-55 110 -170 176 -275 176c-203 0 -257 -218 -255 -359c2 -186 109 -343 293 -343c79 0 211 43 260 172l14 -6c-52 -119 -161 -200 -310 -200c-215 0 -343 168 -343 374zM378 788h-76v10h32
c86 0 86 85 133 85c18 0 28 -13 28 -27c0 -41 -67 -68 -117 -68z" />
    <glyph glyph-name="uni0326" unicode="&#x326;" horiz-adv-x="210" 
d="M104 -128c-24 0 -44 19 -44 44c0 24 20 43 44 43s46 -19 46 -58c0 -88 -63 -104 -63 -104l-1 6c28 7 47 49 38 77c0 0 -6 -8 -20 -8z" />
    <glyph glyph-name="Ccircumflex" unicode="&#x108;" horiz-adv-x="832" 
d="M60 500c0 300 196 520 445 520c229 0 307 -119 307 -210c0 -208 -283 -282 -283 -401c0 -31 10 -48 30 -65c-54 -12 -87 47 -87 93c0 176 281 235 281 381c0 119 -81 190 -248 190c-207 0 -355 -216 -355 -508s162 -508 355 -508c222 0 285 168 285 168h11v-134
c-80 -26 -168 -46 -296 -46c-249 0 -445 220 -445 520zM386 1080l-6 10l110 86l116 -86l-6 -10l-107 46z" />
    <glyph glyph-name="ccircumflex" unicode="&#x109;" horiz-adv-x="733" 
d="M60 354c0 206 128 374 343 374c169 0 277 -70 277 -70v-118h-4c-55 110 -170 176 -275 176c-203 0 -257 -218 -255 -359c2 -186 109 -343 293 -343c79 0 211 43 260 172l14 -6c-52 -119 -161 -200 -310 -200c-215 0 -343 168 -343 374zM292 788l-6 10l110 86l116 -86
l-6 -10l-107 46z" />
    <glyph glyph-name="Cdotaccent" unicode="&#x10a;" horiz-adv-x="832" 
d="M505 -20c-249 0 -445 220 -445 520s196 520 445 520c229 0 307 -119 307 -210c0 -208 -283 -282 -283 -401c0 -31 10 -48 30 -65c-54 -12 -87 47 -87 93c0 176 281 235 281 381c0 119 -81 190 -248 190c-207 0 -355 -216 -355 -508s162 -508 355 -508
c222 0 285 168 285 168h11v-134c-80 -26 -168 -46 -296 -46zM450 1123c0 24 19 44 43 44s43 -20 43 -44s-19 -43 -43 -43s-43 19 -43 43z" />
    <glyph glyph-name="cdotaccent" unicode="&#x10b;" horiz-adv-x="733" 
d="M60 354c0 206 128 374 343 374c169 0 277 -70 277 -70v-118h-4c-55 110 -170 176 -275 176c-203 0 -257 -218 -255 -359c2 -186 109 -343 293 -343c79 0 211 43 260 172l14 -6c-52 -119 -161 -200 -310 -200c-215 0 -343 168 -343 374zM399 788c-24 0 -43 19 -43 43
s19 44 43 44s43 -20 43 -44s-19 -43 -43 -43z" />
    <glyph glyph-name="Ccaron" unicode="&#x10c;" horiz-adv-x="832" 
d="M505 -20c-249 0 -445 220 -445 520s196 520 445 520c229 0 307 -119 307 -210c0 -208 -283 -282 -283 -401c0 -31 10 -48 30 -65c-54 -12 -87 47 -87 93c0 176 281 235 281 381c0 119 -81 190 -248 190c-207 0 -355 -216 -355 -508s162 -508 355 -508
c222 0 285 168 285 168h11v-134c-80 -26 -168 -46 -296 -46zM492 1080l-110 86l6 10l107 -46l107 46l6 -10z" />
    <glyph glyph-name="ccaron" unicode="&#x10d;" horiz-adv-x="733" 
d="M60 354c0 206 128 374 343 374c169 0 277 -70 277 -70v-118h-4c-55 110 -170 176 -275 176c-203 0 -257 -218 -255 -359c2 -186 109 -343 293 -343c79 0 211 43 260 172l14 -6c-52 -119 -161 -200 -310 -200c-215 0 -343 168 -343 374zM288 874l6 10l107 -46l107 46
l6 -10l-116 -86z" />
    <glyph glyph-name="Dcaron" unicode="&#x10e;" horiz-adv-x="903" 
d="M30 990v10h80c105 0 191 20 279 20c308 0 454 -246 454 -520s-146 -520 -454 -520c-88 0 -174 20 -279 20h-80v10c86 0 92 71 92 268v444c0 197 -6 268 -92 268zM207 978v-956c58 -18 116 -28 181 -28c247 0 369 233 369 506s-122 506 -369 506c-65 0 -123 -10 -181 -28z
M357 1080l-110 86l6 10l107 -46l107 46l6 -10z" />
    <glyph glyph-name="Dcroat" unicode="&#x110;" horiz-adv-x="903" 
d="M-20 550h142v172c0 197 -6 268 -92 268v10h80c105 0 191 20 279 20c308 0 454 -246 454 -520s-146 -520 -454 -520c-88 0 -174 20 -279 20h-80v10c86 0 92 71 92 268v252h-142v20zM207 550h199v-20h-199v-508c58 -18 116 -28 181 -28c247 0 369 233 369 506
s-122 506 -369 506c-65 0 -123 -10 -181 -28v-428z" />
    <glyph glyph-name="Emacron" unicode="&#x112;" horiz-adv-x="776" 
d="M30 990v10h716v-135h-10v4c0 67 -132 121 -362 121h-166v-430c30 29 70 46 116 46c99 0 154 -62 242 -62c38 0 74 22 74 57h10c0 -59 -49 -110 -128 -110c-122 0 -173 86 -244 88c-29 1 -54 -14 -70 -35v-534h128c95 0 400 11 400 155h10v-165h-716v10c86 0 92 71 92 268
v444c0 197 -6 268 -92 268zM289 1102h215v-22h-215v22z" />
    <glyph glyph-name="emacron" unicode="&#x113;" horiz-adv-x="773" 
d="M403 -20c-215 0 -343 168 -343 374s128 374 343 374s307 -127 306 -228c-1 -113 -66 -181 -181 -181c-161 0 -210 89 -308 89c-24 0 -46 -17 -49 -25l-4 1c0 41 36 80 105 80c105 0 183 -133 263 -133c148 0 152 385 -134 385c-203 0 -257 -218 -255 -359
c2 -186 109 -343 293 -343c79 0 211 43 260 172l14 -6c-52 -119 -161 -200 -310 -200zM519 788h-215v22h215v-22z" />
    <glyph glyph-name="Ebreve" unicode="&#x114;" horiz-adv-x="776" 
d="M30 1000h716v-135h-10v4c0 67 -132 121 -362 121h-166v-430c30 29 70 46 116 46c99 0 154 -62 242 -62c38 0 74 22 74 57h10c0 -59 -49 -110 -128 -110c-122 0 -173 86 -244 88c-29 1 -54 -14 -70 -35v-534h128c95 0 400 11 400 155h10v-165h-716v10c86 0 92 71 92 268
v444c0 197 -6 268 -92 268v10zM287 1166h8c21 -35 56 -56 102 -56c45 0 80 21 101 56h9c-10 -48 -56 -86 -110 -86c-55 0 -101 38 -110 86z" />
    <glyph glyph-name="ebreve" unicode="&#x115;" horiz-adv-x="773" 
d="M403 -20c-215 0 -343 168 -343 374s128 374 343 374s307 -127 306 -228c-1 -113 -66 -181 -181 -181c-161 0 -210 89 -308 89c-24 0 -46 -17 -49 -25l-4 1c0 41 36 80 105 80c105 0 183 -133 263 -133c148 0 152 385 -134 385c-203 0 -257 -218 -255 -359
c2 -186 109 -343 293 -343c79 0 211 43 260 172l14 -6c-52 -119 -161 -200 -310 -200zM301 874h9c21 -35 56 -56 101 -56c46 0 81 21 102 56h8c-9 -48 -55 -86 -110 -86c-54 0 -100 38 -110 86z" />
    <glyph glyph-name="Edotaccent" unicode="&#x116;" horiz-adv-x="776" 
d="M30 10c86 0 92 71 92 268v444c0 197 -6 268 -92 268v10h716v-135h-10v4c0 67 -132 121 -362 121h-166v-430c30 29 70 46 116 46c99 0 154 -62 242 -62c38 0 74 22 74 57h10c0 -59 -49 -110 -128 -110c-122 0 -173 86 -244 88c-29 1 -54 -14 -70 -35v-534h128
c95 0 400 11 400 155h10v-165h-716v10zM353 1123c0 24 20 44 44 44c23 0 43 -20 43 -44s-20 -43 -43 -43c-24 0 -44 19 -44 43z" />
    <glyph glyph-name="edotaccent" unicode="&#x117;" horiz-adv-x="773" 
d="M403 -20c-215 0 -343 168 -343 374s128 374 343 374s307 -127 306 -228c-1 -113 -66 -181 -181 -181c-161 0 -210 89 -308 89c-24 0 -46 -17 -49 -25l-4 1c0 41 36 80 105 80c105 0 183 -133 263 -133c148 0 152 385 -134 385c-203 0 -257 -218 -255 -359
c2 -186 109 -343 293 -343c79 0 211 43 260 172l14 -6c-52 -119 -161 -200 -310 -200zM368 831c0 24 19 44 43 44s44 -20 44 -44s-20 -43 -44 -43s-43 19 -43 43z" />
    <glyph glyph-name="Eogonek" unicode="&#x118;" horiz-adv-x="776" 
d="M30 1000h716v-135h-10v4c0 67 -132 121 -362 121h-166v-430c30 29 70 46 116 46c99 0 154 -62 242 -62c38 0 74 22 74 57h10c0 -59 -49 -110 -128 -110c-122 0 -173 86 -244 88c-29 1 -54 -14 -70 -35v-534h128c95 0 400 11 400 155h10v-165h-299c-54 0 -89 -41 -89 -83
c0 -35 14 -65 49 -65c16 0 31 15 23 30l2 2s16 -5 16 -23c0 -25 -18 -46 -50 -46c-43 0 -69 37 -69 74c0 51 41 97 89 111h-388v10c86 0 92 71 92 268v444c0 197 -6 268 -92 268v10z" />
    <glyph glyph-name="eogonek" unicode="&#x119;" horiz-adv-x="773" 
d="M60 354c0 206 128 374 343 374s307 -127 306 -228c-1 -113 -66 -181 -181 -181c-161 0 -210 89 -308 89c-24 0 -46 -17 -49 -25l-4 1c0 41 36 80 105 80c105 0 183 -133 263 -133c148 0 152 385 -134 385c-203 0 -257 -218 -255 -359c2 -186 109 -343 293 -343
c79 0 211 43 260 172l14 -6c-52 -119 -161 -200 -310 -200h-16c-20 -16 -31 -39 -31 -63c0 -35 14 -65 49 -65c16 0 31 15 23 30l2 2s16 -5 16 -23c0 -25 -18 -46 -50 -46c-43 0 -69 37 -69 74c0 36 21 70 50 92c-199 13 -317 175 -317 373z" />
    <glyph glyph-name="Ecaron" unicode="&#x11a;" horiz-adv-x="776" 
d="M30 1000h716v-135h-10v4c0 67 -132 121 -362 121h-166v-430c30 29 70 46 116 46c99 0 154 -62 242 -62c38 0 74 22 74 57h10c0 -59 -49 -110 -128 -110c-122 0 -173 86 -244 88c-29 1 -54 -14 -70 -35v-534h128c95 0 400 11 400 155h10v-165h-716v10c86 0 92 71 92 268
v444c0 197 -6 268 -92 268v10zM396 1080l-110 86l6 10l107 -46l107 46l6 -10z" />
    <glyph glyph-name="ecaron" unicode="&#x11b;" horiz-adv-x="773" 
d="M403 -20c-215 0 -343 168 -343 374s128 374 343 374s307 -127 306 -228c-1 -113 -66 -181 -181 -181c-161 0 -210 89 -308 89c-24 0 -46 -17 -49 -25l-4 1c0 41 36 80 105 80c105 0 183 -133 263 -133c148 0 152 385 -134 385c-203 0 -257 -218 -255 -359
c2 -186 109 -343 293 -343c79 0 211 43 260 172l14 -6c-52 -119 -161 -200 -310 -200zM410 788l-110 86l6 10l107 -46l107 46l6 -10z" />
    <glyph glyph-name="Gcircumflex" unicode="&#x11c;" horiz-adv-x="921" 
d="M60 500c0 300 196 520 445 520c123 0 208 -20 285 -46v-134h-10s-61 168 -275 168c-207 0 -355 -216 -355 -508s162 -508 355 -508c176 0 252 153 252 189v141c0 195 -189 166 -323 166c-73 0 -130 9 -130 68c0 85 92 126 152 126c149 0 231 -91 360 -91
c70 0 73 30 73 30c16 -63 -39 -98 -101 -98c-120 0 -255 96 -354 96c-62 0 -119 -21 -119 -68c0 -67 122 -51 248 -51c137 0 280 -18 280 -178v-144c-76 -126 -195 -198 -338 -198c-249 0 -445 220 -445 520zM401 1090l110 86l116 -86l-6 -10l-107 46l-107 -46z" />
    <glyph glyph-name="gcircumflex" unicode="&#x11d;" horiz-adv-x="729" 
d="M336 -435c-183 0 -316 76 -316 224c0 88 77 147 155 147c92 0 129 -44 222 -44c24 0 70 13 60 50l4 1c38 -48 2 -134 -84 -134c-74 0 -113 44 -204 44c-45 0 -94 -34 -94 -83c0 -117 108 -195 259 -195c154 0 296 124 296 295c0 104 -89 180 -223 180
c-82 0 -102 -18 -179 -18c-40 0 -84 18 -84 58c0 146 424 19 424 365c0 135 -80 261 -216 261s-217 -129 -217 -264c0 -136 94 -227 207 -227v-9c-17 -3 -34 -4 -50 -4c-146 0 -243 112 -243 240c0 142 113 276 303 276h302v-32l-216 22c137 -34 216 -147 216 -266
c0 -365 -499 -236 -499 -360c0 -33 39 -50 73 -50c95 0 160 48 255 48c118 0 222 -92 222 -212c0 -174 -141 -313 -373 -313zM243 798l110 86l116 -86l-6 -10l-107 46l-107 -46z" />
    <glyph glyph-name="Gbreve" unicode="&#x11e;" horiz-adv-x="921" 
d="M60 500c0 300 196 520 445 520c123 0 208 -20 285 -46v-134h-10s-61 168 -275 168c-207 0 -355 -216 -355 -508s162 -508 355 -508c176 0 252 153 252 189v141c0 195 -189 166 -323 166c-73 0 -130 9 -130 68c0 85 92 126 152 126c149 0 231 -91 360 -91
c70 0 73 30 73 30c16 -63 -39 -98 -101 -98c-120 0 -255 96 -354 96c-62 0 -119 -21 -119 -68c0 -67 122 -51 248 -51c137 0 280 -18 280 -178v-144c-76 -126 -195 -198 -338 -198c-249 0 -445 220 -445 520zM404 1166h9c21 -35 56 -56 101 -56c46 0 81 21 102 56h8
c-9 -48 -55 -86 -110 -86c-54 0 -100 38 -110 86z" />
    <glyph glyph-name="gbreve" unicode="&#x11f;" horiz-adv-x="729" 
d="M336 -435c-183 0 -316 76 -316 224c0 88 77 147 155 147c92 0 129 -44 222 -44c24 0 70 13 60 50l4 1c38 -48 2 -134 -84 -134c-74 0 -113 44 -204 44c-45 0 -94 -34 -94 -83c0 -117 108 -195 259 -195c154 0 296 124 296 295c0 104 -89 180 -223 180
c-82 0 -102 -18 -179 -18c-40 0 -84 18 -84 58c0 146 424 19 424 365c0 135 -80 261 -216 261s-217 -129 -217 -264c0 -136 94 -227 207 -227v-9c-17 -3 -34 -4 -50 -4c-146 0 -243 112 -243 240c0 142 113 276 303 276h302v-32l-216 22c137 -34 216 -147 216 -266
c0 -365 -499 -236 -499 -360c0 -33 39 -50 73 -50c95 0 160 48 255 48c118 0 222 -92 222 -212c0 -174 -141 -313 -373 -313zM356 788c-55 0 -101 38 -110 86h8c21 -35 57 -56 102 -56s80 21 101 56h9c-10 -48 -56 -86 -110 -86z" />
    <glyph glyph-name="Gdotaccent" unicode="&#x120;" horiz-adv-x="921" 
d="M60 500c0 300 196 520 445 520c123 0 208 -20 285 -46v-134h-10s-61 168 -275 168c-207 0 -355 -216 -355 -508s162 -508 355 -508c176 0 252 153 252 189v141c0 195 -189 166 -323 166c-73 0 -130 9 -130 68c0 85 92 126 152 126c149 0 231 -91 360 -91
c70 0 73 30 73 30c16 -63 -39 -98 -101 -98c-120 0 -255 96 -354 96c-62 0 -119 -21 -119 -68c0 -67 122 -51 248 -51c137 0 280 -18 280 -178v-144c-76 -126 -195 -198 -338 -198c-249 0 -445 220 -445 520zM514 1080c-24 0 -43 19 -43 43s19 44 43 44s44 -20 44 -44
s-20 -43 -44 -43z" />
    <glyph glyph-name="gdotaccent" unicode="&#x121;" horiz-adv-x="729" 
d="M20 -211c0 88 77 147 155 147c92 0 129 -44 222 -44c24 0 70 13 60 50l4 1c38 -48 2 -134 -84 -134c-74 0 -113 44 -204 44c-45 0 -94 -34 -94 -83c0 -117 108 -195 259 -195c154 0 296 124 296 295c0 104 -89 180 -223 180c-82 0 -102 -18 -179 -18c-40 0 -84 18 -84 58
c0 146 424 19 424 365c0 135 -80 261 -216 261s-217 -129 -217 -264c0 -136 94 -227 207 -227v-9c-17 -3 -34 -4 -50 -4c-146 0 -243 112 -243 240c0 142 113 276 303 276h302v-32l-216 22c137 -34 216 -147 216 -266c0 -365 -499 -236 -499 -360c0 -33 39 -50 73 -50
c95 0 160 48 255 48c118 0 222 -92 222 -212c0 -174 -141 -313 -373 -313c-183 0 -316 76 -316 224zM313 831c0 24 19 44 43 44s43 -20 43 -44s-19 -43 -43 -43s-43 19 -43 43z" />
    <glyph glyph-name="uni0122" unicode="&#x122;" horiz-adv-x="921" 
d="M60 500c0 300 196 520 445 520c123 0 208 -20 285 -46v-134h-10s-61 168 -275 168c-207 0 -355 -216 -355 -508s162 -508 355 -508c176 0 252 153 252 189v141c0 195 -189 166 -323 166c-73 0 -130 9 -130 68c0 85 92 126 152 126c149 0 231 -91 360 -91
c70 0 73 30 73 30c16 -63 -39 -98 -101 -98c-120 0 -255 96 -354 96c-62 0 -119 -21 -119 -68c0 -67 122 -51 248 -51c137 0 280 -18 280 -178v-144c-76 -126 -195 -198 -338 -198c-249 0 -445 220 -445 520zM462 -84c0 24 20 44 44 44s47 -20 47 -59
c0 -88 -64 -104 -64 -104l-1 7c28 6 48 49 38 77c0 0 -6 -8 -20 -8c-24 0 -44 19 -44 43z" />
    <glyph glyph-name="uni0123" unicode="&#x123;" horiz-adv-x="729" 
d="M336 -435c-183 0 -316 76 -316 224c0 88 77 147 155 147c92 0 129 -44 222 -44c24 0 70 13 60 50l4 1c38 -48 2 -134 -84 -134c-74 0 -113 44 -204 44c-45 0 -94 -34 -94 -83c0 -117 108 -195 259 -195c154 0 296 124 296 295c0 104 -89 180 -223 180
c-82 0 -102 -18 -179 -18c-40 0 -84 18 -84 58c0 146 424 19 424 365c0 135 -80 261 -216 261s-217 -129 -217 -264c0 -136 94 -227 207 -227v-9c-17 -3 -34 -4 -50 -4c-146 0 -243 112 -243 240c0 142 113 276 303 276h302v-32l-216 22c137 -34 216 -147 216 -266
c0 -365 -499 -236 -499 -360c0 -33 39 -50 73 -50c95 0 160 48 255 48c118 0 222 -92 222 -212c0 -174 -141 -313 -373 -313zM366 788c-24 0 -47 20 -47 59c0 87 64 104 64 104l1 -7c-28 -6 -48 -49 -38 -77c0 0 6 8 20 8c24 0 44 -19 44 -43s-20 -44 -44 -44z" />
    <glyph glyph-name="Hcircumflex" unicode="&#x124;" horiz-adv-x="916" 
d="M30 990v10h270v-10c-86 0 -92 -71 -92 -268v-175c12 27 56 59 116 59c99 0 182 -62 270 -62c38 0 74 22 74 57h10c0 -59 -49 -110 -128 -110c-122 0 -201 88 -272 88c-52 0 -70 -41 -70 -88v-213c0 -197 6 -268 92 -268v-10h-270v10c86 0 92 71 92 268v444
c0 197 -6 268 -92 268zM616 0v10c86 0 92 71 92 268v444c0 197 -6 268 -92 268v10h270v-10c-86 0 -92 -71 -92 -268v-444c0 -197 6 -268 92 -268v-10h-270zM346 1080l-6 10l110 86l116 -86l-6 -10l-107 46z" />
    <glyph glyph-name="hcircumflex" unicode="&#x125;" horiz-adv-x="787" 
d="M30 10c86 0 92 71 92 268v444c0 197 -6 268 -92 268v10h178v-289c36 0 156 17 200 17c89 0 267 -13 267 -223v-227c0 -197 6 -268 92 -268v-10h-270v10c86 0 92 71 92 268c0 30 -1 206 -1 206c0 224 -157 230 -225 230c-51 0 -107 -12 -155 -29v-407
c0 -197 6 -268 92 -268v-10h-270v10zM25 1090l110 86l116 -86l-6 -10l-107 46l-107 -46z" />
    <glyph glyph-name="Hbar" unicode="&#x126;" horiz-adv-x="916" 
d="M30 1000h270v-10c-86 0 -92 -71 -92 -268v-14h500v14c0 197 -6 268 -92 268v10h270v-10c-86 0 -92 -71 -92 -268v-14h76v-22h-76v-408c0 -197 6 -268 92 -268v-10h-270v10c86 0 92 71 92 268v408h-500v-139c12 27 56 59 116 59c99 0 182 -62 270 -62c38 0 74 22 74 57h10
c0 -59 -49 -110 -128 -110c-122 0 -201 88 -272 88c-52 0 -70 -41 -70 -88v-213c0 -197 6 -268 92 -268v-10h-270v10c86 0 92 71 92 268v408h-75v22h75v14c0 197 -6 268 -92 268v10z" />
    <glyph glyph-name="hbar" unicode="&#x127;" horiz-adv-x="787" 
d="M30 0v10c86 0 92 71 92 268v444v66h-92v22h91c-3 131 -19 180 -91 180v10h178v-190h37v-22h-37v-77c36 0 156 17 200 17c89 0 267 -13 267 -223v-227c0 -197 6 -268 92 -268v-10h-270v10c86 0 92 71 92 268c0 30 -1 206 -1 206c0 224 -157 230 -225 230
c-51 0 -107 -12 -155 -29v-407c0 -197 6 -268 92 -268v-10h-270z" />
    <glyph glyph-name="Itilde" unicode="&#x128;" 
d="M30 0v10c86 0 92 71 92 268v444c0 197 -6 268 -92 268v10h270v-10c-86 0 -92 -71 -92 -268v-444c0 -197 6 -268 92 -268v-10h-270zM44 1095c4 14 26 43 66 43c48 0 72 -28 117 -28c44 0 49 20 49 20l6 -3c-8 -28 -34 -47 -70 -47c-44 0 -64 29 -120 29
c-19 0 -36 -7 -43 -17z" />
    <glyph glyph-name="itilde" unicode="&#x129;" 
d="M30 708h178v-430c0 -197 6 -268 92 -268v-10h-270v10c86 0 92 71 92 268v152c0 197 -6 268 -92 268v10zM42 800l-5 3c4 14 26 43 66 43c48 0 72 -28 117 -28c44 0 49 20 49 20l6 -3c-8 -28 -34 -47 -70 -47c-44 0 -64 29 -120 29c-19 0 -36 -7 -43 -17z" />
    <glyph glyph-name="Imacron" unicode="&#x12a;" 
d="M30 0v10c86 0 92 71 92 268v444c0 197 -6 268 -92 268v10h270v-10c-86 0 -92 -71 -92 -268v-444c0 -197 6 -268 92 -268v-10h-270zM56 1102h215v-22h-215v22z" />
    <glyph glyph-name="imacron" unicode="&#x12b;" 
d="M30 708h178v-430c0 -197 6 -268 92 -268v-10h-270v10c86 0 92 71 92 268v152c0 197 -6 268 -92 268v10zM264 788h-215v22h215v-22z" />
    <glyph glyph-name="Ibreve" unicode="&#x12c;" 
d="M30 990v10h270v-10c-86 0 -92 -71 -92 -268v-444c0 -197 6 -268 92 -268v-10h-270v10c86 0 92 71 92 268v444c0 197 -6 268 -92 268zM163 1080c-54 0 -101 38 -110 86h9c21 -35 56 -56 101 -56s80 21 101 56h9c-9 -48 -56 -86 -110 -86z" />
    <glyph glyph-name="ibreve" unicode="&#x12d;" 
d="M30 0v10c86 0 92 71 92 268v152c0 197 -6 268 -92 268v10h178v-430c0 -197 6 -268 92 -268v-10h-270zM156 788c-54 0 -100 38 -110 86h9c21 -35 56 -56 101 -56c46 0 81 21 102 56h8c-9 -48 -55 -86 -110 -86z" />
    <glyph glyph-name="Iogonek" unicode="&#x12e;" 
d="M141 0h-111v10c86 0 92 71 92 268v444c0 197 -6 268 -92 268v10h270v-10c-86 0 -92 -71 -92 -268v-444c0 -197 6 -268 92 -268v-10h-129c-55 0 -90 -41 -90 -83c0 -35 14 -65 49 -65c16 0 31 15 23 30l2 2s16 -5 16 -23c0 -25 -18 -46 -50 -46c-43 0 -69 37 -69 74
c0 51 42 97 89 111z" />
    <glyph glyph-name="iogonek" unicode="&#x12f;" horiz-adv-x="320" 
d="M30 0v10c86 0 92 71 92 268v152c0 197 -6 268 -92 268v10h178v-430c0 -197 6 -268 92 -268v-10h-126c-55 0 -90 -41 -90 -83c0 -35 14 -65 49 -65c16 0 31 15 23 30l2 2s16 -5 16 -23c0 -25 -18 -46 -50 -46c-43 0 -69 37 -69 74c0 51 42 97 89 111h-114zM160 772
c-37 0 -67 30 -67 67s30 67 67 67s67 -30 67 -67s-30 -67 -67 -67z" />
    <glyph glyph-name="Idotaccent" unicode="&#x130;" 
d="M30 990v10h270v-10c-86 0 -92 -71 -92 -268v-444c0 -197 6 -268 92 -268v-10h-270v10c86 0 92 71 92 268v444c0 197 -6 268 -92 268zM120 1123c0 24 19 44 43 44s43 -20 43 -44s-19 -43 -43 -43s-43 19 -43 43z" />
    <glyph glyph-name="IJ" unicode="&#x132;" horiz-adv-x="647" 
d="M315 -210c-16 0 -23 2 -35 4l2 10s10 -1 16 -1c98 0 151 112 151 264v655c0 197 -6 268 -92 268v10h270v-10c-86 0 -92 -71 -92 -268v-653c0 -143 -91 -279 -220 -279zM30 990v10h270v-10c-86 0 -92 -71 -92 -268v-444c0 -197 6 -268 92 -268v-10h-270v10
c86 0 92 71 92 268v444c0 197 -6 268 -92 268z" />
    <glyph glyph-name="ij" unicode="&#x133;" horiz-adv-x="607" 
d="M270 -414l7 10c14 -11 36 -18 58 -18c91 0 102 117 102 189v663c0 197 -6 268 -92 268v10h178v-926c0 -102 -60 -218 -177 -218c-35 0 -58 9 -76 22zM30 708h178v-430c0 -197 6 -268 92 -268v-10h-270v10c86 0 92 71 92 268v152c0 197 -6 268 -92 268v10zM480 906
c37 0 67 -30 67 -67s-30 -67 -67 -67s-67 30 -67 67s30 67 67 67zM93 839c0 37 30 67 67 67s67 -30 67 -67s-30 -67 -67 -67s-67 30 -67 67z" />
    <glyph glyph-name="Jcircumflex" unicode="&#x134;" horiz-adv-x="317" 
d="M-15 -210c-16 0 -23 2 -35 4l2 10s10 -1 16 -1c98 0 151 112 151 264v655c0 197 -6 268 -92 268v10h270v-10c-86 0 -92 -71 -92 -268v-653c0 -143 -91 -279 -220 -279zM57 1080l-6 10l110 86l116 -86l-6 -10l-107 46z" />
    <glyph glyph-name="jcircumflex" unicode="&#x135;" horiz-adv-x="287" 
d="M26 -436c-35 0 -58 9 -76 22l7 10c14 -11 36 -18 58 -18c91 0 102 117 102 189v663c0 197 -6 268 -92 268v10h178v-926c0 -102 -60 -218 -177 -218zM38 798l110 86l116 -86l-6 -10l-107 46l-107 -46z" />
    <glyph glyph-name="uni0136" unicode="&#x136;" horiz-adv-x="845" 
d="M647 905c0 37 -13 79 -35 95h99c18 -17 30 -56 30 -93c0 -309 -484 -342 -484 -407c0 -57 180 -29 276 -173c94 -140 188 -317 302 -317v-10h-153c-46 0 -74 63 -232 300c-111 166 -203 143 -203 200c0 90 400 125 400 405zM30 0v10c86 0 92 71 92 268v444
c0 197 -6 268 -92 268v10h269v-10c-86 0 -92 -71 -92 -268v-444c0 -197 6 -268 92 -268v-10h-269zM166 -108c-24 0 -43 19 -43 44c0 24 19 43 43 43c25 0 47 -19 47 -58c0 -88 -63 -104 -63 -104l-1 6c28 7 47 50 38 77c0 0 -6 -8 -21 -8z" />
    <glyph glyph-name="uni0137" unicode="&#x137;" horiz-adv-x="700" 
d="M30 990v10h178v-722c0 -197 6 -268 92 -268v-10h-270v10c86 0 92 71 92 268v444c0 197 -6 268 -92 268zM234 440c0 92 291 60 291 212c0 26 -13 46 -47 46v10h120c14 0 17 -13 17 -26c0 -198 -371 -171 -371 -242c0 -59 173 -31 272 -190c41 -66 40 -121 68 -188
c14 -33 37 -52 86 -52v-10h-115c-47 0 -60 61 -73 107c-16 58 -28 107 -47 141c-82 148 -201 131 -201 192zM127 -64c0 24 19 43 43 43c25 0 47 -19 47 -58c0 -88 -63 -104 -63 -104l-1 6c28 7 47 50 38 77c0 0 -6 -8 -21 -8c-24 0 -43 19 -43 44z" />
    <glyph glyph-name="kgreenlandic" unicode="&#x138;" horiz-adv-x="700" 
d="M300 0h-270v10c86 0 92 71 92 268v444c0 197 -6 268 -92 268v10h178v-722c0 -197 6 -268 92 -268v-10zM525 652c0 26 -13 46 -47 46v10h120c14 0 17 -13 17 -26c0 -198 -371 -171 -371 -242c0 -59 173 -31 272 -190c41 -66 40 -121 68 -188c14 -33 37 -52 86 -52v-10
h-115c-47 0 -60 61 -73 107c-16 58 -28 107 -47 141c-82 148 -201 131 -201 192c0 92 291 60 291 212z" />
    <glyph glyph-name="Lacute" unicode="&#x139;" horiz-adv-x="775" 
d="M30 1000h270v-10c-86 0 -92 -71 -92 -268v-712h127c95 0 400 11 400 155h10v-165h-715v10c86 0 92 71 92 268v444c0 197 -6 268 -92 268v10zM141 1080h-76v10h32c86 0 86 85 133 85c18 0 28 -13 28 -27c0 -41 -67 -68 -117 -68z" />
    <glyph glyph-name="lacute" unicode="&#x13a;" 
d="M30 1000h178v-722c0 -197 6 -268 92 -268v-10h-270v10c86 0 92 71 92 268v444c0 197 -6 268 -92 268v10zM54 1090h32c86 0 86 85 133 85c18 0 28 -13 28 -27c0 -41 -67 -68 -117 -68h-76v10z" />
    <glyph glyph-name="uni013B" unicode="&#x13b;" horiz-adv-x="775" 
d="M30 990v10h270v-10c-86 0 -92 -71 -92 -268v-712h127c95 0 400 11 400 155h10v-165h-715v10c86 0 92 71 92 268v444c0 197 -6 268 -92 268zM153 -108c-24 0 -44 19 -44 44c0 24 20 43 44 43s46 -19 46 -58c0 -88 -63 -104 -63 -104l-1 6c28 7 47 50 38 77
c0 0 -6 -8 -20 -8z" />
    <glyph glyph-name="uni013C" unicode="&#x13c;" 
d="M300 0h-270v10c86 0 92 71 92 268v444c0 197 -6 268 -92 268v10h178v-722c0 -197 6 -268 92 -268v-10zM126 -85c0 24 19 43 43 43s47 -19 47 -58c0 -88 -64 -104 -64 -104v6c28 7 47 50 37 78c0 0 -6 -9 -20 -9c-24 0 -43 20 -43 44z" />
    <glyph glyph-name="Lcaron" unicode="&#x13d;" horiz-adv-x="775" 
d="M30 0v10c86 0 92 71 92 268v444c0 197 -6 268 -92 268v10h270v-10c-86 0 -92 -71 -92 -268v-712h127c95 0 400 11 400 155h10v-165h-715zM332 957c0 24 20 43 44 43s46 -19 46 -58c0 -88 -63 -104 -63 -104l-1 6c28 7 48 49 38 77c0 0 -6 -8 -20 -8c-24 0 -44 19 -44 44z
" />
    <glyph glyph-name="lcaron" unicode="&#x13e;" 
d="M300 0h-270v10c86 0 92 71 92 268v444c0 197 -6 268 -92 268v10h178v-722c0 -197 6 -268 92 -268v-10zM298 913c-24 0 -43 19 -43 44c0 24 19 43 43 43s47 -19 47 -58c0 -88 -64 -104 -64 -104v6c28 7 47 49 37 77c0 0 -6 -8 -20 -8z" />
    <glyph glyph-name="Ldot" unicode="&#x13f;" horiz-adv-x="775" 
d="M30 0v10c86 0 92 71 92 268v444c0 197 -6 268 -92 268v10h270v-10c-86 0 -92 -71 -92 -268v-712h127c95 0 400 11 400 155h10v-165h-715zM388 726c-37 0 -67 30 -67 67s30 67 67 67s67 -30 67 -67s-30 -67 -67 -67z" />
    <glyph glyph-name="ldot" unicode="&#x140;" horiz-adv-x="401" 
d="M300 0h-270v10c86 0 92 71 92 268v444c0 197 -6 268 -92 268v10h178v-722c0 -197 6 -268 92 -268v-10zM319 434c-37 0 -67 30 -67 67s30 67 67 67s67 -30 67 -67s-30 -67 -67 -67z" />
    <glyph glyph-name="Lslash" unicode="&#x141;" horiz-adv-x="775" 
d="M30 0v10c86 0 92 71 92 268v213h-61v11h61v220c0 197 -6 268 -92 268v10h270v-10c-86 0 -92 -71 -92 -268v-220h117v-11h-117v-481h127c95 0 400 11 400 155h10v-165h-715z" />
    <glyph glyph-name="lslash" unicode="&#x142;" 
d="M30 0v10c86 0 92 71 92 268v213h-51v11h51v220c0 197 -6 268 -92 268v10h178v-498h43v-11h-43v-213c0 -197 6 -268 92 -268v-10h-270z" />
    <glyph glyph-name="nacute" unicode="&#x144;" horiz-adv-x="787" 
d="M122 430c0 197 -6 268 -92 268v10h114c82 0 207 20 264 20c89 0 267 -13 267 -223v-227c0 -197 6 -268 92 -268v-10h-270v10c86 0 92 71 92 268c0 30 -1 206 -1 206c0 224 -157 230 -225 230c-51 0 -107 -12 -155 -29v-407c0 -197 6 -268 92 -268v-10h-270v10
c86 0 92 71 92 268v152zM355 788h-76v10h32c86 0 86 85 133 85c18 0 28 -13 28 -27c0 -41 -67 -68 -117 -68z" />
    <glyph glyph-name="uni0146" unicode="&#x146;" horiz-adv-x="787" 
d="M122 430c0 197 -6 268 -92 268v10h114c82 0 207 20 264 20c89 0 267 -13 267 -223v-227c0 -197 6 -268 92 -268v-10h-270v10c86 0 92 71 92 268c0 30 -1 206 -1 206c0 224 -157 230 -225 230c-51 0 -107 -12 -155 -29v-407c0 -197 6 -268 92 -268v-10h-270v10
c86 0 92 71 92 268v152zM172 -108c-24 0 -43 20 -43 44s19 43 43 43s47 -19 47 -58c0 -88 -64 -104 -64 -104v6c28 7 47 50 37 78c0 0 -6 -9 -20 -9z" />
    <glyph glyph-name="ncaron" unicode="&#x148;" horiz-adv-x="787" 
d="M30 10c86 0 92 71 92 268v152c0 197 -6 268 -92 268v10h114c82 0 207 20 264 20c89 0 267 -13 267 -223v-227c0 -197 6 -268 92 -268v-10h-270v10c86 0 92 71 92 268c0 30 -1 206 -1 206c0 224 -157 230 -225 230c-51 0 -107 -12 -155 -29v-407c0 -197 6 -268 92 -268
v-10h-270v10zM265 874l6 10l107 -46l107 46l6 -10l-116 -86z" />
    <glyph glyph-name="napostrophe" unicode="&#x149;" horiz-adv-x="787" 
d="M30 708h114c82 0 207 20 264 20c89 0 267 -13 267 -223v-227c0 -197 6 -268 92 -268v-10h-270v10c86 0 92 71 92 268c0 30 -1 206 -1 206c0 224 -157 230 -225 230c-51 0 -107 -12 -155 -29v-407c0 -197 6 -268 92 -268v-10h-270v10c86 0 92 71 92 268v152
c0 197 -6 268 -92 268v10zM-94 664c0 25 20 44 44 44s46 -19 46 -58c0 -88 -63 -104 -63 -104l-1 6c28 7 48 49 38 77c0 0 -6 -8 -20 -8c-24 0 -44 19 -44 43z" />
    <glyph glyph-name="Eng" unicode="&#x14a;" horiz-adv-x="963" 
d="M30 1000h175l560 -854v576c0 197 -6 268 -92 268v10h270v-10c-86 0 -92 -71 -92 -268v-653c0 -143 -91 -279 -220 -279c-16 0 -23 2 -35 4l2 10s10 -1 16 -1c80 0 130 75 146 185l-628 956v-526c0 -291 82 -408 168 -408v-10h-270v10c86 0 92 71 92 268v444
c0 197 -6 268 -92 268v10z" />
    <glyph glyph-name="eng" unicode="&#x14b;" horiz-adv-x="787" 
d="M30 0v10c86 0 92 71 92 268v152c0 197 -6 268 -92 268v10h114c82 0 207 20 264 20c89 0 269 -13 267 -223l-1 -104v-619c0 -102 -60 -218 -177 -218c-35 0 -58 9 -76 22l7 10c14 -11 36 -18 58 -18c91 0 102 117 102 189v663v54c0 224 -157 230 -225 230
c-51 0 -107 -12 -155 -29v-407c0 -197 6 -268 92 -268v-10h-270z" />
    <glyph glyph-name="Omacron" unicode="&#x14c;" horiz-adv-x="1010" 
d="M505 -20c-249 0 -445 220 -445 520s196 520 445 520s445 -220 445 -520s-196 -520 -445 -520zM505 1008c-207 0 -355 -216 -355 -508s162 -508 355 -508s355 216 355 508s-148 508 -355 508zM612 1080h-215v22h215v-22z" />
    <glyph glyph-name="ohungarumlaut" unicode="&#x151;" horiz-adv-x="808" 
d="M60 354c0 206 128 374 343 374s345 -168 345 -374s-130 -374 -345 -374s-343 168 -343 374zM145 354c0 -220 103 -362 258 -362s260 142 260 362s-105 362 -260 362s-258 -142 -258 -362zM432 788v8h11c54 0 26 97 74 97c12 0 21 -9 21 -23c0 -32 -49 -82 -92 -82h-14z
M331 788v8h11c54 0 26 97 74 97c12 0 21 -9 21 -23c0 -32 -49 -82 -92 -82h-14z" />
    <glyph glyph-name="Ohungarumlaut" unicode="&#x150;" horiz-adv-x="1010" 
d="M60 500c0 300 196 520 445 520s445 -220 445 -520s-196 -520 -445 -520s-445 220 -445 520zM505 1008c-207 0 -355 -216 -355 -508s162 -508 355 -508s355 216 355 508s-148 508 -355 508zM533 1088h11c54 0 26 97 74 97c12 0 21 -9 21 -23c0 -32 -49 -82 -92 -82h-14v8z
M432 1088h11c54 0 26 97 74 97c12 0 21 -9 21 -23c0 -32 -49 -82 -92 -82h-14v8z" />
    <glyph glyph-name="Racute" unicode="&#x154;" horiz-adv-x="872" 
d="M30 10c86 0 92 71 92 268v444c0 197 -6 268 -92 268v10h120c110 0 181 20 297 20c213 0 332 -118 332 -281c0 -137 -112 -261 -286 -261c-94 0 -158 64 -200 64c-12 0 -29 -3 -29 -26c0 -65 211 -79 292 -205c79 -123 172 -301 286 -301v-10h-153c-46 0 -74 63 -232 300
c-97 146 -203 150 -203 218c0 24 17 34 35 34c59 0 105 -57 198 -57c125 0 206 123 206 243c0 166 -117 268 -303 268c-74 0 -122 -10 -183 -32v-696c0 -197 6 -268 92 -268v-10h-269v10zM338 1080h-76v10h32c86 0 86 85 133 85c18 0 28 -13 28 -27c0 -41 -67 -68 -117 -68z
" />
    <glyph glyph-name="racute" unicode="&#x155;" horiz-adv-x="676" 
d="M30 698v10h116c115 0 244 20 355 20c89 0 155 -45 155 -122c0 -53 -29 -97 -86 -97c-28 0 -55 18 -55 46c28 1 54 34 54 75c0 46 -35 84 -107 84c-62 0 -197 -11 -254 -29v-407c0 -197 6 -268 92 -268v-10h-270v10c86 0 92 71 92 268v152c0 197 -6 268 -92 268zM242 798
h32c86 0 86 85 133 85c18 0 28 -13 28 -27c0 -41 -67 -68 -117 -68h-76v10z" />
    <glyph glyph-name="uni0156" unicode="&#x156;" horiz-adv-x="872" 
d="M30 10c86 0 92 71 92 268v444c0 197 -6 268 -92 268v10h120c110 0 181 20 297 20c213 0 332 -118 332 -281c0 -137 -112 -261 -286 -261c-94 0 -158 64 -200 64c-12 0 -29 -3 -29 -26c0 -65 211 -79 292 -205c79 -123 172 -301 286 -301v-10h-153c-46 0 -74 63 -232 300
c-97 146 -203 150 -203 218c0 24 17 34 35 34c59 0 105 -57 198 -57c125 0 206 123 206 243c0 166 -117 268 -303 268c-74 0 -122 -10 -183 -32v-696c0 -197 6 -268 92 -268v-10h-269v10zM162 -108c-24 0 -43 19 -43 44c0 24 19 43 43 43s47 -19 47 -58
c0 -88 -64 -104 -64 -104v6c28 7 47 50 37 77c0 0 -5 -8 -20 -8z" />
    <glyph glyph-name="omacron" unicode="&#x14d;" horiz-adv-x="808" 
d="M60 354c0 206 128 374 343 374s345 -168 345 -374s-130 -374 -345 -374s-343 168 -343 374zM403 716c-155 0 -258 -142 -258 -362s103 -362 258 -362s260 142 260 362s-105 362 -260 362zM511 788h-215v22h215v-22z" />
    <glyph glyph-name="Obreve" unicode="&#x14e;" horiz-adv-x="1010" 
d="M505 -20c-249 0 -445 220 -445 520s196 520 445 520s445 -220 445 -520s-196 -520 -445 -520zM505 1008c-207 0 -355 -216 -355 -508s162 -508 355 -508s355 216 355 508s-148 508 -355 508zM395 1166h9c21 -35 56 -56 101 -56s80 21 101 56h9c-9 -48 -56 -86 -110 -86
s-101 38 -110 86z" />
    <glyph glyph-name="obreve" unicode="&#x14f;" horiz-adv-x="808" 
d="M403 -20c-215 0 -343 168 -343 374s128 374 343 374s345 -168 345 -374s-130 -374 -345 -374zM403 716c-155 0 -258 -142 -258 -362s103 -362 258 -362s260 142 260 362s-105 362 -260 362zM403 788c-54 0 -100 38 -110 86h9c21 -35 56 -56 101 -56c46 0 81 21 102 56h8
c-9 -48 -55 -86 -110 -86z" />
    <glyph glyph-name="uni0157" unicode="&#x157;" horiz-adv-x="676" 
d="M30 698v10h116c115 0 244 20 355 20c89 0 155 -45 155 -122c0 -53 -29 -97 -86 -97c-28 0 -55 18 -55 46c28 1 54 34 54 75c0 46 -35 84 -107 84c-62 0 -197 -11 -254 -29v-407c0 -197 6 -268 92 -268v-10h-270v10c86 0 92 71 92 268v152c0 197 -6 268 -92 268zM176 -108
c-24 0 -44 19 -44 44c0 24 20 43 44 43s47 -19 47 -58c0 -88 -64 -104 -64 -104l-1 6c28 7 48 50 38 77c0 0 -6 -8 -20 -8z" />
    <glyph glyph-name="Rcaron" unicode="&#x158;" horiz-adv-x="872" 
d="M30 10c86 0 92 71 92 268v444c0 197 -6 268 -92 268v10h120c110 0 181 20 297 20c213 0 332 -118 332 -281c0 -137 -112 -261 -286 -261c-94 0 -158 64 -200 64c-12 0 -29 -3 -29 -26c0 -65 211 -79 292 -205c79 -123 172 -301 286 -301v-10h-153c-46 0 -74 63 -232 300
c-97 146 -203 150 -203 218c0 24 17 34 35 34c59 0 105 -57 198 -57c125 0 206 123 206 243c0 166 -117 268 -303 268c-74 0 -122 -10 -183 -32v-696c0 -197 6 -268 92 -268v-10h-269v10zM358 1080l-110 86l6 10l107 -46l107 46l6 -10z" />
    <glyph glyph-name="rcaron" unicode="&#x159;" horiz-adv-x="676" 
d="M30 708h116c115 0 244 20 355 20c89 0 155 -45 155 -122c0 -53 -29 -97 -86 -97c-28 0 -55 18 -55 46c28 1 54 34 54 75c0 46 -35 84 -107 84c-62 0 -197 -11 -254 -29v-407c0 -197 6 -268 92 -268v-10h-270v10c86 0 92 71 92 268v152c0 197 -6 268 -92 268v10zM228 874
l6 10l107 -46l107 46l6 -10l-116 -86z" />
    <glyph glyph-name="Sacute" unicode="&#x15a;" horiz-adv-x="822" 
d="M60 760c0 139 127 260 358 260c123 0 208 -20 285 -46v-134h-10s-61 168 -275 168c-186 0 -288 -113 -288 -224c0 -274 632 -177 632 -527c0 -139 -144 -277 -375 -277c-132 0 -249 67 -323 122v134h10s131 -238 369 -238c146 0 261 107 261 218c0 301 -644 216 -644 544
zM391 1080h-76v10h32c86 0 86 85 133 85c18 0 28 -13 28 -27c0 -41 -67 -68 -117 -68z" />
    <glyph glyph-name="sacute" unicode="&#x15b;" horiz-adv-x="670" 
d="M60 163h10c0 -47 85 -176 242 -173c109 2 217 66 217 181c0 211 -455 102 -455 383c0 94 83 174 246 174c169 0 248 -70 248 -70v-118h-4c-39 115 -127 178 -234 178c-126 0 -198 -70 -198 -145c0 -207 478 -112 478 -389c0 -147 -143 -204 -298 -204
c-106 0 -188 20 -252 61v122zM233 788v10h32c86 0 86 85 133 85c18 0 28 -13 28 -27c0 -41 -67 -68 -117 -68h-76z" />
    <glyph glyph-name="Scircumflex" unicode="&#x15c;" horiz-adv-x="822" 
d="M704 216c0 301 -644 216 -644 544c0 139 127 260 358 260c123 0 208 -20 285 -46v-134h-10s-61 168 -275 168c-186 0 -288 -113 -288 -224c0 -274 632 -177 632 -527c0 -139 -144 -277 -375 -277c-132 0 -249 67 -323 122v134h10s131 -238 369 -238
c146 0 261 107 261 218zM301 1090l110 86l116 -86l-6 -10l-107 46l-107 -46z" />
    <glyph glyph-name="scircumflex" unicode="&#x15d;" horiz-adv-x="670" 
d="M60 41v122h10c0 -47 85 -176 242 -173c109 2 217 66 217 181c0 211 -455 102 -455 383c0 94 83 174 246 174c169 0 248 -70 248 -70v-118h-4c-39 115 -127 178 -234 178c-126 0 -198 -70 -198 -145c0 -207 478 -112 478 -389c0 -147 -143 -204 -298 -204
c-106 0 -188 20 -252 61zM223 788l-6 10l110 86l116 -86l-6 -10l-107 46z" />
    <glyph glyph-name="Scedilla" unicode="&#x15e;" horiz-adv-x="822" 
d="M60 760c0 139 127 260 358 260c123 0 208 -20 285 -46v-134h-10s-61 168 -275 168c-186 0 -288 -113 -288 -224c0 -274 632 -177 632 -527c0 -138 -142 -275 -371 -277l-32 -61c12 9 25 14 41 14c92 0 86 -140 -32 -140c-13 0 -26 5 -33 11l4 8c5 -4 15 -6 23 -6
c75 0 86 115 29 115c-14 0 -26 -7 -34 -14l-8 12l32 61c-129 2 -244 68 -317 122v134h10s131 -238 369 -238c146 0 261 107 261 218c0 301 -644 216 -644 544z" />
    <glyph glyph-name="scedilla" unicode="&#x15f;" horiz-adv-x="670" 
d="M306 -20c-103 1 -183 21 -246 61v122h10c0 -47 85 -176 242 -173c109 2 217 66 217 181c0 211 -455 102 -455 383c0 94 83 174 246 174c169 0 248 -70 248 -70v-118h-4c-39 115 -127 178 -234 178c-126 0 -198 -70 -198 -145c0 -207 478 -112 478 -389
c0 -146 -140 -203 -294 -204l-32 -61c12 9 25 14 41 14c92 0 86 -140 -32 -140c-13 0 -26 5 -33 11l4 8c5 -4 15 -6 23 -6c75 0 86 115 29 115c-14 0 -26 -7 -34 -14l-8 12z" />
    <glyph glyph-name="Scaron" unicode="&#x160;" horiz-adv-x="822" 
d="M704 216c0 301 -644 216 -644 544c0 139 127 260 358 260c123 0 208 -20 285 -46v-134h-10s-61 168 -275 168c-186 0 -288 -113 -288 -224c0 -274 632 -177 632 -527c0 -139 -144 -277 -375 -277c-132 0 -249 67 -323 122v134h10s131 -238 369 -238
c146 0 261 107 261 218zM413 1080l-110 86l6 10l107 -46l107 46l6 -10z" />
    <glyph glyph-name="scaron" unicode="&#x161;" horiz-adv-x="670" 
d="M60 163h10c0 -47 85 -176 242 -173c109 2 217 66 217 181c0 211 -455 102 -455 383c0 94 83 174 246 174c169 0 248 -70 248 -70v-118h-4c-39 115 -127 178 -234 178c-126 0 -198 -70 -198 -145c0 -207 478 -112 478 -389c0 -147 -143 -204 -298 -204
c-106 0 -188 20 -252 61v122zM329 788l-110 86l6 10l107 -46l107 46l6 -10z" />
    <glyph glyph-name="uni0162" unicode="&#x162;" horiz-adv-x="759" 
d="M30 865v135h699v-135h-10c0 3 1 0 1 4c0 67 -126 121 -298 121v-712c0 -197 -2 -268 84 -268v-10h-261v10c86 0 92 71 92 268v712c-172 0 -298 -54 -298 -121c0 -4 1 -1 1 -4h-10zM379 -108c-24 0 -44 19 -44 44c0 24 20 43 44 43s47 -19 47 -58c0 -88 -64 -104 -64 -104
l-1 6c28 7 48 50 38 77c0 0 -6 -8 -20 -8z" />
    <glyph glyph-name="uni0163" unicode="&#x163;" horiz-adv-x="318" 
d="M20 698v10c167 0 168 174 168 242h10v-242h76v-10h-76v-480c0 -156 -6 -210 32 -210c31 0 58 47 58 47l10 -5c-26 -43 -59 -70 -110 -70c-57 0 -76 46 -76 112v606h-92zM189 -128c-24 0 -43 19 -43 44c0 24 19 43 43 43s47 -19 47 -58c0 -88 -63 -104 -63 -104l-1 6
c28 7 47 50 38 77c0 0 -6 -8 -21 -8z" />
    <glyph glyph-name="Tcaron" unicode="&#x164;" horiz-adv-x="759" 
d="M30 865v135h699v-135h-10c0 3 1 0 1 4c0 67 -126 121 -298 121v-712c0 -197 -2 -268 84 -268v-10h-261v10c86 0 92 71 92 268v712c-172 0 -298 -54 -298 -121c0 -4 1 -1 1 -4h-10zM269 1166l6 10l107 -46l107 46l6 -10l-116 -86z" />
    <glyph glyph-name="tcaron" unicode="&#x165;" horiz-adv-x="318" 
d="M112 698h-92v10c167 0 168 174 168 242h10v-242h76v-10h-76v-480c0 -156 -6 -210 32 -210c31 0 58 47 58 47l10 -5c-26 -43 -59 -70 -110 -70c-57 0 -76 46 -76 112v606zM240 908c0 24 19 43 43 43s47 -19 47 -58c0 -88 -64 -104 -64 -104v6c28 7 47 50 37 78
c0 0 -5 -9 -20 -9c-24 0 -43 20 -43 44z" />
    <glyph glyph-name="Tbar" unicode="&#x166;" horiz-adv-x="759" 
d="M30 865v135h699v-135h-10c0 3 1 0 1 4c0 67 -126 121 -298 121v-240h139v-22h-139v-450c0 -197 -2 -268 84 -268v-10h-261v10c86 0 92 71 92 268v450h-131v22h131v240c-172 0 -298 -54 -298 -121c0 -4 1 -1 1 -4h-10z" />
    <glyph glyph-name="tbar" unicode="&#x167;" horiz-adv-x="318" 
d="M20 698v10c167 0 168 174 168 242h10v-242h76v-10h-76v-69h72v-22h-72v-389c0 -156 -6 -210 32 -210c31 0 58 47 58 47l10 -5c-26 -43 -59 -70 -110 -70c-57 0 -76 46 -76 112v515h-90v22h90v69h-92z" />
    <glyph glyph-name="Utilde" unicode="&#x168;" horiz-adv-x="916" 
d="M30 990v10h270v-10c-86 0 -92 -71 -92 -268v-444c0 -194 110 -288 252 -288s248 95 248 288v444c0 197 -6 268 -92 268v10h270v-10c-86 0 -92 -71 -92 -268v-444c0 -200 -150 -298 -334 -298s-338 96 -338 298v444c0 197 -6 268 -92 268zM340 1095c4 14 26 43 66 43
c48 0 72 -28 117 -28c44 0 49 20 49 20l6 -3c-8 -28 -34 -47 -70 -47c-44 0 -64 29 -120 29c-19 0 -36 -7 -43 -17z" />
    <glyph glyph-name="utilde" unicode="&#x169;" horiz-adv-x="777" 
d="M20 698v10h178c0 -30 1 -484 1 -484c0 -224 157 -230 225 -230c51 0 107 12 155 29v407c0 197 -6 268 -92 268v10h178v-430c0 -197 6 -268 92 -268v-10h-114c-82 0 -207 -20 -264 -20c-89 0 -267 13 -267 223v227c0 197 -6 268 -92 268zM254 800l-5 3c4 14 26 43 66 43
c48 0 72 -28 117 -28c44 0 49 20 49 20l6 -3c-8 -28 -34 -47 -70 -47c-44 0 -64 29 -120 29c-19 0 -36 -7 -43 -17z" />
    <glyph glyph-name="Umacron" unicode="&#x16a;" horiz-adv-x="916" 
d="M30 990v10h270v-10c-86 0 -92 -71 -92 -268v-444c0 -194 110 -288 252 -288s248 95 248 288v444c0 197 -6 268 -92 268v10h270v-10c-86 0 -92 -71 -92 -268v-444c0 -200 -150 -298 -334 -298s-338 96 -338 298v444c0 197 -6 268 -92 268zM351 1102h215v-22h-215v22z" />
    <glyph glyph-name="umacron" unicode="&#x16b;" horiz-adv-x="777" 
d="M20 708h178c0 -30 1 -484 1 -484c0 -224 157 -230 225 -230c51 0 107 12 155 29v407c0 197 -6 268 -92 268v10h178v-430c0 -197 6 -268 92 -268v-10h-114c-82 0 -207 -20 -264 -20c-89 0 -267 13 -267 223v227c0 197 -6 268 -92 268v10zM475 788h-215v22h215v-22z" />
    <glyph glyph-name="Ubreve" unicode="&#x16c;" horiz-adv-x="916" 
d="M30 1000h270v-10c-86 0 -92 -71 -92 -268v-444c0 -194 110 -288 252 -288s248 95 248 288v444c0 197 -6 268 -92 268v10h270v-10c-86 0 -92 -71 -92 -268v-444c0 -200 -150 -298 -334 -298s-338 96 -338 298v444c0 197 -6 268 -92 268v10zM459 1080
c-55 0 -101 38 -110 86h8c21 -35 56 -56 102 -56c45 0 80 21 101 56h9c-10 -48 -56 -86 -110 -86z" />
    <glyph glyph-name="ubreve" unicode="&#x16d;" horiz-adv-x="777" 
d="M20 698v10h178c0 -30 1 -484 1 -484c0 -224 157 -230 225 -230c51 0 107 12 155 29v407c0 197 -6 268 -92 268v10h178v-430c0 -197 6 -268 92 -268v-10h-114c-82 0 -207 -20 -264 -20c-89 0 -267 13 -267 223v227c0 197 -6 268 -92 268zM368 788c-55 0 -101 38 -110 86h8
c21 -35 56 -56 102 -56c45 0 80 21 101 56h9c-10 -48 -56 -86 -110 -86z" />
    <glyph glyph-name="Uring" unicode="&#x16e;" horiz-adv-x="916" 
d="M30 990v10h270v-10c-86 0 -92 -71 -92 -268v-444c0 -194 110 -288 252 -288s248 95 248 288v444c0 197 -6 268 -92 268v10h270v-10c-86 0 -92 -71 -92 -268v-444c0 -200 -150 -298 -334 -298s-338 96 -338 298v444c0 197 -6 268 -92 268zM459 1080c-36 0 -65 29 -65 64
c0 36 29 65 65 65c35 0 64 -29 64 -65c0 -35 -29 -64 -64 -64zM405 1144c0 -29 24 -53 54 -53s54 24 54 53c0 30 -24 54 -54 54s-54 -24 -54 -54z" />
    <glyph glyph-name="uring" unicode="&#x16f;" horiz-adv-x="777" 
d="M20 698v10h178c0 -30 1 -484 1 -484c0 -224 157 -230 225 -230c51 0 107 12 155 29v407c0 197 -6 268 -92 268v10h178v-430c0 -197 6 -268 92 -268v-10h-114c-82 0 -207 -20 -264 -20c-89 0 -267 13 -267 223v227c0 197 -6 268 -92 268zM303 852c0 36 29 65 65 65
c35 0 64 -29 64 -65c0 -35 -29 -64 -64 -64c-36 0 -65 29 -65 64zM368 906c-29 0 -54 -24 -54 -54c0 -29 25 -53 54 -53c30 0 54 24 54 53c0 30 -24 54 -54 54z" />
    <glyph glyph-name="Uhungarumlaut" unicode="&#x170;" horiz-adv-x="916" 
d="M30 1000h270v-10c-86 0 -92 -71 -92 -268v-444c0 -194 110 -288 252 -288s248 95 248 288v444c0 197 -6 268 -92 268v10h270v-10c-86 0 -92 -71 -92 -268v-444c0 -200 -150 -298 -334 -298s-338 96 -338 298v444c0 197 -6 268 -92 268v10zM487 1088h11c54 0 26 97 74 97
c12 0 21 -9 21 -23c0 -32 -49 -82 -92 -82h-14v8zM386 1088h11c54 0 26 97 74 97c12 0 21 -9 21 -23c0 -32 -49 -82 -92 -82h-14v8z" />
    <glyph glyph-name="uhungarumlaut" unicode="&#x171;" horiz-adv-x="777" 
d="M20 698v10h178c0 -30 1 -484 1 -484c0 -224 157 -230 225 -230c51 0 107 12 155 29v407c0 197 -6 268 -92 268v10h178v-430c0 -197 6 -268 92 -268v-10h-114c-82 0 -207 -20 -264 -20c-89 0 -267 13 -267 223v227c0 197 -6 268 -92 268zM396 796h11c54 0 26 97 74 97
c12 0 21 -9 21 -23c0 -32 -49 -82 -92 -82h-14v8zM309 788h-14v8h11c54 0 26 97 74 97c12 0 21 -9 21 -23c0 -32 -49 -82 -92 -82z" />
    <glyph glyph-name="Uogonek" unicode="&#x172;" horiz-adv-x="916" 
d="M30 1000h270v-10c-86 0 -92 -71 -92 -268v-444c0 -194 110 -288 252 -288s248 95 248 288v444c0 197 -6 268 -92 268v10h270v-10c-86 0 -92 -71 -92 -268v-444c0 -198 -147 -296 -328 -298c-55 0 -90 -41 -90 -83c0 -35 14 -65 49 -65c16 0 31 15 23 30l2 2s16 -5 16 -23
c0 -25 -18 -46 -50 -46c-43 0 -69 37 -69 74c0 51 42 98 91 111c-174 8 -316 104 -316 298v444c0 197 -6 268 -92 268v10z" />
    <glyph glyph-name="uogonek" unicode="&#x173;" horiz-adv-x="777" 
d="M112 430c0 197 -6 268 -92 268v10h178c0 -30 1 -484 1 -484c0 -224 157 -230 225 -230c51 0 107 12 155 29v407c0 197 -6 268 -92 268v10h178v-430c0 -197 6 -268 92 -268v-10h-108c-55 0 -90 -41 -90 -83c0 -35 14 -65 49 -65c16 0 31 15 23 30l2 2s16 -5 16 -23
c0 -25 -18 -46 -50 -46c-43 0 -69 37 -69 74c0 50 40 96 87 110c-80 -3 -187 -19 -238 -19c-89 0 -267 13 -267 223v227z" />
    <glyph glyph-name="Wcircumflex" unicode="&#x174;" horiz-adv-x="1340" 
d="M0 1000h328v-10c-141 0 -136 -81 -98 -182l270 -712c52 147 108 294 162 442l-109 287c-44 110 -76 165 -137 165v10h508v-10c-61 0 -95 -54 -137 -165l-74 -195l203 -534c83 236 177 472 254 709c26 80 28 185 -113 185v10h283v-10c-61 0 -95 -54 -137 -165l-320 -845
h-10l-203 536l-203 -536h-10l-320 845c-44 110 -76 165 -137 165v10zM690 989c-96 0 -77 -95 -44 -181l58 -152c17 49 33 99 50 149c23 69 52 184 -64 184zM577 1080l-6 10l110 86l116 -86l-6 -10l-107 46z" />
    <glyph glyph-name="wcircumflex" unicode="&#x175;" horiz-adv-x="1123" 
d="M0 708h123c45 0 72 -41 84 -80c53 -172 86 -287 148 -481c18 -56 44 -83 73 -87c50 155 92 286 128 410c-23 72 -49 228 -141 228h-24v10h123c45 0 72 -41 84 -80c53 -172 86 -287 148 -481c18 -56 44 -83 73 -87c51 160 94 294 131 421c23 80 44 217 -68 217h-22v10h263
v-10h-17c-69 0 -118 -134 -137 -195c-48 -157 -98 -319 -163 -523c0 0 -91 -19 -150 167c-38 119 -68 212 -95 304c-43 -140 -89 -291 -146 -471c0 0 -90 -19 -150 167c-53 165 -84 273 -126 408c-19 61 -43 143 -115 143h-24v10zM392 788l-6 10l110 86l116 -86l-6 -10
l-107 46z" />
    <glyph glyph-name="Ycircumflex" unicode="&#x176;" horiz-adv-x="818" 
d="M0 1000h278v-10h-22c-28 0 -54 -13 -54 -53c0 -68 185 -372 247 -493c69 131 237 434 237 500c0 36 -28 46 -56 46h-26v10h214v-10c-76 0 -100 -75 -191 -249c-62 -116 -141 -252 -175 -318v-145c0 -197 6 -268 92 -268v-10h-270v10c86 0 92 71 92 268v145
c-34 66 -113 202 -175 318c-91 174 -115 249 -191 249v10zM332 1090l110 86l116 -86l-6 -10l-107 46l-107 -46z" />
    <glyph glyph-name="ycircumflex" unicode="&#x177;" horiz-adv-x="732" 
d="M0 708h123c45 0 72 -41 84 -80c53 -172 86 -287 148 -481c18 -56 44 -83 73 -87c51 160 94 294 131 421c23 80 44 217 -68 217h-22v10h263v-10h-17c-69 0 -118 -134 -137 -195c-49 -157 -98 -319 -163 -523c-27 -77 -140 -395 -230 -395h-135v10c122 0 303 222 353 385
c-26 1 -91 22 -138 167c-53 165 -84 273 -126 408c-19 61 -43 143 -115 143h-24v10zM244 788l-6 10l110 86l116 -86l-6 -10l-107 46z" />
    <glyph glyph-name="Ydieresis" unicode="&#x178;" horiz-adv-x="818" 
d="M0 1000h278v-10h-22c-28 0 -54 -13 -54 -53c0 -68 185 -372 247 -493c69 131 237 434 237 500c0 36 -28 46 -56 46h-26v10h214v-10c-76 0 -100 -75 -191 -249c-62 -116 -141 -252 -175 -318v-145c0 -197 6 -268 92 -268v-10h-270v10c86 0 92 71 92 268v145
c-34 66 -113 202 -175 318c-91 174 -115 249 -191 249v10zM465 1110c0 16 13 29 30 29c16 0 29 -13 29 -29c0 -17 -13 -30 -29 -30c-17 0 -30 13 -30 30zM391 1080c-16 0 -30 13 -30 30c0 16 14 29 30 29s29 -13 29 -29c0 -17 -13 -30 -29 -30z" />
    <glyph glyph-name="Zacute" unicode="&#x179;" horiz-adv-x="789" 
d="M732 0h-702l626 990h-285c-172 0 -296 -54 -296 -121v-4h-10v135h694l-626 -990h143c95 0 446 11 446 155h10v-165zM292 1090h32c86 0 86 85 133 85c18 0 28 -13 28 -27c0 -41 -67 -68 -117 -68h-76v10z" />
    <glyph glyph-name="zacute" unicode="&#x17a;" horiz-adv-x="619" 
d="M580 0h-550l448 698h-139c-161 0 -256 -55 -274 -144h-10v154h534l-448 -698h155c161 0 256 55 274 144h10v-154zM290 788h-76v10h32c86 0 86 85 133 85c18 0 28 -13 28 -27c0 -41 -67 -68 -117 -68z" />
    <glyph glyph-name="Zdotaccent" unicode="&#x17b;" horiz-adv-x="789" 
d="M30 0l626 990h-285c-172 0 -296 -54 -296 -121v-4h-10v135h694l-626 -990h143c95 0 446 11 446 155h10v-165h-702zM346 1123c0 24 19 44 43 44s43 -20 43 -44s-19 -43 -43 -43s-43 19 -43 43z" />
    <glyph glyph-name="zdotaccent" unicode="&#x17c;" horiz-adv-x="619" 
d="M30 0l448 698h-139c-161 0 -256 -55 -274 -144h-10v154h534l-448 -698h155c161 0 256 55 274 144h10v-154h-550zM267 831c0 24 20 44 44 44s43 -20 43 -44s-19 -43 -43 -43s-44 19 -44 43z" />
    <glyph glyph-name="Zcaron" unicode="&#x17d;" horiz-adv-x="789" 
d="M732 0h-702l626 990h-285c-172 0 -296 -54 -296 -121v-4h-10v135h694l-626 -990h143c95 0 446 11 446 155h10v-165zM278 1166l6 10l107 -46l107 46l6 -10l-116 -86z" />
    <glyph glyph-name="zcaron" unicode="&#x17e;" horiz-adv-x="619" 
d="M30 0l448 698h-139c-161 0 -256 -55 -274 -144h-10v154h534l-448 -698h155c161 0 256 55 274 144h10v-154h-550zM310 788l-110 86l6 10l107 -46l107 46l6 -10z" />
    <glyph glyph-name="dcaron" unicode="&#x10f;" horiz-adv-x="834" 
d="M403 -20c-215 0 -343 168 -343 374s128 374 343 374c105 0 170 -20 233 -60v54c0 197 -6 268 -92 268v10h178v-722c0 -197 6 -268 92 -268v-10h-178v79c-48 -57 -136 -99 -233 -99zM145 354c0 -220 103 -362 258 -362c108 0 233 81 233 187v410c-30 46 -100 127 -233 127
c-155 0 -258 -142 -258 -362zM805 914c-24 0 -44 20 -44 44s20 43 44 43s47 -19 47 -58c0 -88 -64 -104 -64 -104l-1 6c28 7 48 50 38 78c0 0 -6 -9 -20 -9z" />
    <glyph glyph-name="dcroat" unicode="&#x111;" horiz-adv-x="834" 
d="M403 -20c-215 0 -343 168 -343 374s128 374 343 374c105 0 170 -20 233 -60v54v66h-97v22h96c-3 131 -19 180 -91 180v10h178v-190h32v-22h-32v-510c0 -197 6 -268 92 -268v-10h-178v79c-48 -57 -136 -99 -233 -99zM403 716c-155 0 -258 -142 -258 -362
s103 -362 258 -362c108 0 233 81 233 187v410c-30 46 -100 127 -233 127z" />
    <glyph glyph-name="Ntilde" unicode="&#xd1;" horiz-adv-x="897" 
d="M30 1000h175l560 -854v436c0 291 -82 408 -168 408v10h270v-10c-86 0 -92 -71 -92 -268v-742h-10l-633 964v-526c0 -291 82 -408 168 -408v-10h-270v10c86 0 92 71 92 268v444c0 197 -6 268 -92 268v10zM326 1092l-5 3c4 14 26 43 66 43c48 0 72 -28 117 -28
c44 0 49 20 49 20l6 -3c-8 -28 -34 -47 -70 -47c-44 0 -64 29 -120 29c-19 0 -36 -7 -43 -17z" />
    <glyph glyph-name="uni0145" unicode="&#x145;" horiz-adv-x="897" 
d="M30 10c86 0 92 71 92 268v444c0 197 -6 268 -92 268v10h175l560 -854v436c0 291 -82 408 -168 408v10h270v-10c-86 0 -92 -71 -92 -268v-742h-10l-633 964v-526c0 -291 82 -408 168 -408v-10h-270v10zM162 -108c-24 0 -43 19 -43 44c0 24 19 43 43 43s47 -19 47 -58
c0 -88 -64 -104 -64 -104v6c28 7 47 50 38 77c0 0 -6 -8 -21 -8z" />
    <glyph glyph-name="Ncaron" unicode="&#x147;" horiz-adv-x="897" 
d="M30 990v10h175l560 -854v436c0 291 -82 408 -168 408v10h270v-10c-86 0 -92 -71 -92 -268v-742h-10l-633 964v-526c0 -291 82 -408 168 -408v-10h-270v10c86 0 92 71 92 268v444c0 197 -6 268 -92 268zM329 1166l6 10l107 -46l107 46l6 -10l-116 -86z" />
    <glyph glyph-name="Nacute" unicode="&#x143;" horiz-adv-x="897" 
d="M300 0h-270v10c86 0 92 71 92 268v444c0 197 -6 268 -92 268v10h175l560 -854v436c0 291 -82 408 -168 408v10h270v-10c-86 0 -92 -71 -92 -268v-742h-10l-633 964v-526c0 -291 82 -408 168 -408v-10zM343 1090h32c86 0 86 85 133 85c18 0 28 -13 28 -27
c0 -41 -67 -68 -117 -68h-76v10z" />
    <glyph glyph-name="g_w" horiz-adv-x="1786" 
d="M336 -435c-183 0 -316 76 -316 224c0 88 77 147 155 147c92 0 129 -44 222 -44c24 0 70 13 60 50l4 1c38 -48 2 -134 -84 -134c-74 0 -113 44 -204 44c-45 0 -94 -34 -94 -83c0 -117 108 -195 259 -195c154 0 296 124 296 295c0 104 -89 180 -223 180
c-82 0 -102 -18 -179 -18c-40 0 -84 18 -84 58c0 146 424 19 424 365c0 135 -80 261 -216 261s-217 -129 -217 -264c0 -136 94 -227 207 -227v-9c-17 -3 -34 -4 -50 -4c-146 0 -243 112 -243 240c0 142 113 276 303 276h414c66 0 88 -62 100 -101c53 -172 86 -287 148 -481
c18 -56 44 -83 73 -87c50 155 92 286 128 410c-23 72 -49 228 -141 228h-24v10h123c45 0 72 -41 84 -80c53 -172 86 -287 148 -481c18 -56 44 -83 73 -87c51 160 94 294 131 421c23 80 44 217 -68 217h-22v10h263v-10h-17c-69 0 -118 -133 -137 -195
c-48 -156 -98 -319 -163 -523c0 0 -91 -19 -150 167c-38 119 -68 212 -95 304c-43 -140 -89 -291 -146 -471c0 0 -91 -19 -150 167c-53 166 -84 274 -126 408c-19 61 -43 164 -115 164h-245c137 -34 216 -147 216 -266c0 -365 -499 -236 -499 -360c0 -33 39 -50 73 -50
c95 0 160 48 255 48c118 0 222 -92 222 -212c0 -174 -141 -313 -373 -313z" />
    <glyph glyph-name="o.001" horiz-adv-x="808" 
d="M403 -20c-215 0 -343 168 -343 374s128 374 343 374s345 -168 345 -374s-130 -374 -345 -374zM145 354c0 -220 103 -362 258 -362s260 142 260 362s-105 362 -260 362s-258 -142 -258 -362zM432 641l3 -10c-22 0 -59 -27 -59 -79c0 -107 96 -192 96 -309
c0 -67 -37 -126 -109 -145l-3 10c22 0 59 27 59 79c0 100 -96 198 -96 303c0 73 37 132 109 151z" />
    </font>
</defs>
</svg>
